<?xml version="1.0" encoding="UTF-8" standalone="no"?>
<svg
   xmlns:dc="http://purl.org/dc/elements/1.1/"
   xmlns:cc="http://creativecommons.org/ns#"
   xmlns:rdf="http://www.w3.org/1999/02/22-rdf-syntax-ns#"
   xmlns:svg="http://www.w3.org/2000/svg"
   xmlns="http://www.w3.org/2000/svg"
   xmlns:sodipodi="http://sodipodi.sourceforge.net/DTD/sodipodi-0.dtd"
   xmlns:inkscape="http://www.inkscape.org/namespaces/inkscape"
   id="svg8"
   version="1.1"
   viewBox="0 0 270.86857 135.77139"
   height="135.77138mm"
   width="270.86856mm"
   sodipodi:docname="camera_sensor.svg"
   inkscape:version="0.92.4 5da689c313, 2019-01-14">
  <sodipodi:namedview
     pagecolor="#ffffff"
     bordercolor="#666666"
     borderopacity="1"
     objecttolerance="10"
     gridtolerance="10"
     guidetolerance="10"
     inkscape:pageopacity="0"
     inkscape:pageshadow="2"
     inkscape:window-width="3840"
     inkscape:window-height="2082"
     id="namedview6255"
     showgrid="false"
     inkscape:zoom="1.8396121"
     inkscape:cx="375.79236"
     inkscape:cy="238.00088"
     inkscape:window-x="0"
     inkscape:window-y="41"
     inkscape:window-maximized="1"
     inkscape:current-layer="svg8" />
  <defs
     id="defs2" />
  <metadata
     id="metadata5">
    <rdf:RDF>
      <cc:Work
         rdf:about="">
        <dc:format>image/svg+xml</dc:format>
        <dc:type
           rdf:resource="http://purl.org/dc/dcmitype/StillImage" />
        <dc:title></dc:title>
      </cc:Work>
    </rdf:RDF>
  </metadata>
  <rect
     style="fill:#aa8800;stroke-width:0.26458332"
     id="rect3713"
     width="1.9371279"
     height="36.096725"
     x="188.67627"
     y="46.438782" />
  <g
     id="g3836"
     transform="translate(148.75253,-50.21022)">
    <rect
       y="94.877235"
       x="-24.970051"
       height="17.197916"
       width="0.9921875"
       id="rect3815"
       style="fill:#000000;stroke-width:0.26458332" />
    <rect
       y="117.31958"
       x="-24.970051"
       height="17.197916"
       width="0.9921875"
       id="rect3815-2"
       style="fill:#000000;stroke-width:0.26458332" />
  </g>
  <g
     id="g4838"
     transform="translate(103.08488,197.68983)">
    <path
       inkscape:connector-curvature="0"
       d="m 113.80954,-105.39034 c -0.95441,-0.0806 -1.914,-0.0152 -2.83454,0.25109 -0.17419,0.0773 -0.31515,0.11757 -0.45323,0.2469 -0.0222,0.0208 -0.0745,0.0776 -0.0441,0.08 0.0994,0.008 0.1812,-0.19021 0.22389,-0.25494 0.59551,0.48722 1.28454,0.82815 1.97284,1.16116 1.00647,0.41864 1.99511,0.86981 2.92109,1.44665 0.59282,0.4429 1.27236,0.85439 1.70584,1.47317 0.0828,0.11819 0.14525,0.24943 0.21786,0.37414 0.0366,0.19064 0.12708,0.37856 0.1098,0.57191 -0.11901,1.331879 -1.59058,1.503041 -2.61931,1.615983 -1.28223,0.07507 -2.55694,-0.0995 -3.81248,-0.34214 -0.13915,-0.05547 -0.27831,-0.11094 -0.41746,-0.16641 -1.16317,-0.551968 -0.38257,-2.196943 0.7806,-1.644973 v 0 c -0.005,0.008 -0.0109,0.0159 -0.0164,0.0239 1.08119,0.21064 2.17812,0.36831 3.28301,0.31801 0.41804,-0.0368 0.45503,-0.0247 0.83035,-0.10726 0.0679,-0.0149 0.13947,-0.089 0.20078,-0.0563 0.0435,0.0232 -0.0336,0.0937 -0.039,0.14269 -0.035,0.316882 -0.0357,0.24053 0.0842,0.48375 -0.005,-0.134432 -0.24625,-0.33862 -0.33071,-0.41535 -0.29437,-0.2674 -0.6207,-0.49986 -0.94484,-0.7288 -0.86601,-0.5483 -1.80759,-0.94731 -2.74768,-1.35058 -0.82147,-0.39898 -1.86673,-0.88906 -2.48829,-1.57295 -0.1328,-0.14611 -0.23331,-0.31859 -0.34997,-0.47789 -0.0674,-0.20254 -0.17645,-0.39571 -0.20217,-0.60761 -0.12869,-1.06005 0.78145,-1.66412 1.64816,-1.96748 0.18382,-0.0496 0.3655,-0.10792 0.55146,-0.14874 1.00523,-0.22061 2.04872,-0.2372 3.06962,-0.14397 1.26998,0.21167 0.97064,2.00768 -0.29933,1.79602 z"
       id="path4678"
       style="fill:#f2f2f2;fill-opacity:0.94117647;stroke:none;stroke-width:1;stroke-miterlimit:4;stroke-dasharray:none;stroke-opacity:1" />
    <path
       inkscape:connector-curvature="0"
       d="m 118.85102,-104.78656 c 0.77634,0.36315 1.3273,0.33187 2.10968,0.0348 0.29768,-0.1643 0.5946,-0.38545 0.73152,-0.70984 0.0567,-0.13433 0.0472,-0.11785 -0.0146,-0.0915 -0.16205,0.0733 0.15389,0.4344 0.0522,0.46282 -0.0469,0.0131 -0.0974,-0.006 -0.14605,-0.004 -0.0774,0.002 -0.15492,0.006 -0.23162,0.0161 -0.0994,0.0132 -0.19725,0.0359 -0.29586,0.0538 -0.55885,0.172 -1.08849,0.47621 -1.44325,0.95179 -0.0642,0.0861 -0.11504,0.18138 -0.17253,0.27207 -0.2944,0.52611 -0.17563,1.07774 -0.0109,1.62374 0.13806,0.28678 0.25117,0.68087 0.54232,0.8599 0.0548,0.0337 0.18817,0.03 0.24122,0.0322 0.96022,-0.0491 1.86568,-0.43687 2.75685,-0.7662 0.1669,-0.0703 0.33383,-0.1405 0.50075,-0.21076 1.18743,-0.49761 1.89116,1.18168 0.70374,1.6793 v 0 c -0.19116,0.0798 -0.3823,0.1596 -0.57343,0.23939 -1.01981,0.376744 -2.13413,0.850399 -3.23739,0.865488 -0.21606,0.003 -0.43058,-0.03674 -0.64587,-0.0551 -0.19296,-0.06556 -0.39598,-0.106833 -0.57891,-0.19667 -0.77137,-0.378818 -1.17388,-1.179178 -1.4591,-1.944128 -0.32665,-1.17191 -0.36904,-2.05253 0.25355,-3.14877 0.11287,-0.16066 0.21407,-0.33018 0.33859,-0.482 0.64174,-0.78242 1.54186,-1.28306 2.51542,-1.52107 0.18613,-0.0246 0.37094,-0.0637 0.55843,-0.0738 0.77311,-0.0416 1.65179,0.15917 2.02583,0.92425 0.0871,0.17806 0.0798,0.38829 0.11973,0.58243 -0.027,0.16361 -0.0346,0.3316 -0.0809,0.49082 -0.19116,0.6571 -0.74192,1.22644 -1.30514,1.58402 -0.17248,0.10951 -0.36198,0.18962 -0.54298,0.28444 -0.19814,0.066 -0.39174,0.14765 -0.59444,0.19803 -1.05952,0.26337 -2.14754,0.0997 -3.10147,-0.41973 -1.08302,-0.69622 -0.0984,-2.22783 0.98459,-1.53161 z"
       id="path4680"
       style="fill:#f2f2f2;fill-opacity:0.94117647;stroke:none;stroke-width:1;stroke-miterlimit:4;stroke-dasharray:none;stroke-opacity:1" />
    <path
       inkscape:connector-curvature="0"
       d="m 125.04668,-107.0813 c 0.44101,0.9166 0.84307,1.8493 1.17687,2.81015 0.16338,0.44308 0.2884,0.89891 0.40201,1.35684 0.0273,0.11014 0.0523,0.22087 0.0783,0.33134 0.0546,0.23234 0.0433,0.30145 0.0556,0.1989 -0.3995,-0.6029 -0.13277,-0.37572 -1.4055,-0.28813 -0.0408,0.003 -0.0626,0.12075 -0.0861,0.0873 -0.0271,-0.0387 0.0366,-0.0871 0.0562,-0.13003 0.12049,-0.26373 0.12748,-0.26917 0.26898,-0.54599 0.35575,-0.72162 0.80549,-1.38971 1.20774,-2.08492 0.28104,-0.48298 0.6015,-0.95668 1.15141,-1.15583 0.10594,-0.0384 0.22053,-0.0465 0.33078,-0.0698 0.15717,0.0169 0.31899,0.009 0.47152,0.0508 0.64823,0.17643 1.05008,0.8304 1.38226,1.357 0.45855,0.81504 0.84871,1.66959 1.20457,2.5341 0.14105,0.43934 0.38121,0.87254 0.39801,1.34452 0.005,0.14358 -0.018,0.28678 -0.027,0.43018 -0.18974,1.27343 -1.99065,1.005108 -1.80092,-0.26833 v 0 c 0.008,0.029 0.003,0.10841 0.0241,0.0869 0.0243,-0.0251 0,-0.0704 -0.007,-0.10482 -0.0518,-0.27793 -0.19079,-0.52855 -0.2722,-0.79739 -0.31528,-0.77158 -0.66572,-1.53215 -1.06595,-2.26324 -0.12914,-0.21187 -0.14108,-0.24359 -0.27927,-0.42952 -0.0572,-0.0769 -0.11859,-0.13339 -0.0966,-0.13744 0.10306,-0.019 0.2105,0.1137 0.31441,0.001 0.04,-0.0182 0.21248,-0.15198 0.16957,-0.12578 -0.15889,0.097 -0.20304,0.33169 -0.32285,0.46044 -0.38769,0.66782 -0.81859,1.31087 -1.16311,2.0032 -0.0701,0.13596 -0.44944,0.98455 -0.53774,1.01023 -1.27751,0.37162 -1.11476,0.37116 -1.59406,-0.25867 -0.23929,-0.65046 -0.3094,-1.35368 -0.57795,-1.99694 -0.30647,-0.88682 -0.68011,-1.74573 -1.08503,-2.59206 -0.57579,-1.15156 1.05277,-1.96585 1.62856,-0.81428 z"
       id="path4682"
       style="fill:#f2f2f2;fill-opacity:0.94117647;stroke:none;stroke-width:1;stroke-miterlimit:4;stroke-dasharray:none;stroke-opacity:1" />
    <path
       inkscape:connector-curvature="0"
       d="m 134.17433,-105.24032 c -0.5656,-0.0381 -1.19988,-0.0506 -1.68518,0.28381 -0.008,0.0205 -0.0466,0.0545 -0.0257,0.0615 0.12383,0.0412 0.16891,-0.26417 0.1949,-0.29623 0.0249,-0.0308 0.1276,0.0652 0.24855,0.15909 0.92776,0.56246 1.97368,0.9055 2.98328,1.29222 0.84243,0.31775 1.66531,0.68355 2.41117,1.19083 0.69369,0.50526 0.73377,1.12809 0.14425,1.76744 -0.14269,0.15477 -0.54708,0.36958 -0.71919,0.46908 -0.8914,0.444612 -1.83679,0.792708 -2.82413,0.947884 -0.19098,0.03001 -0.3842,0.04316 -0.57629,0.06474 -0.19728,-0.01402 -0.39458,-0.02805 -0.59185,-0.04208 -1.2804,-0.134935 -1.08955,-1.945694 0.19085,-1.810754 v 0 c 0.0695,0.0141 0.13893,0.0282 0.20841,0.0423 0.94239,-0.0925 1.84721,-0.35629 2.69375,-0.78527 0.0838,-0.0463 0.16724,-0.0933 0.25143,-0.13891 0.0305,-0.0165 0.0973,-0.0818 0.0927,-0.0474 -0.0132,0.0986 -0.12084,0.17265 -0.12285,0.27216 -0.014,0.69029 0.0175,0.48583 0.30755,0.82703 0.0228,0.0269 -0.056,-0.0429 -0.0841,-0.0644 -0.62384,-0.43262 -1.32835,-0.71845 -2.03304,-0.99234 -1.2083,-0.4629 -2.47081,-0.86749 -3.53337,-1.62435 -0.29859,-0.27597 -0.56896,-0.47187 -0.74137,-0.8603 -0.26368,-0.59414 -0.17497,-1.19183 0.24006,-1.68584 0.1071,-0.12748 0.25249,-0.21711 0.37872,-0.32567 0.14325,-0.0768 0.28059,-0.16574 0.42971,-0.2304 0.75092,-0.32563 1.60057,-0.34786 2.40224,-0.27891 1.27621,0.17016 1.03557,1.97498 -0.24064,1.80482 z"
       id="path4684"
       style="fill:#f2f2f2;fill-opacity:0.94117647;stroke:none;stroke-width:1;stroke-miterlimit:4;stroke-dasharray:none;stroke-opacity:1" />
    <path
       inkscape:connector-curvature="0"
       d="m 142.55199,-104.08977 c -0.55057,-0.0742 -1.12072,-0.0787 -1.66206,0.0637 -0.2876,0.0757 -0.37885,0.13903 -0.63563,0.27066 -0.14468,0.11274 -0.49445,0.34025 -0.40809,0.58567 0.0151,0.0427 0.0716,0.0553 0.10699,0.0835 0.56309,0.27429 1.15599,0.18231 1.75128,0.0837 0.15637,-0.0477 0.31734,-0.0823 0.46911,-0.14303 0.22394,-0.0896 0.4967,-0.25747 0.67598,-0.42264 0.052,-0.0479 0.2531,-0.24643 0.22955,-0.37596 -0.004,-0.0229 -0.0464,-0.003 -0.0696,-0.005 -0.073,-0.003 -0.0496,0.17809 -0.12292,0.18316 -0.0793,0.005 -0.15335,-0.0424 -0.23101,-0.0594 -0.13779,-0.0302 -0.27437,-0.0726 -0.41508,-0.0822 -0.18431,-0.0126 -0.36933,0.0106 -0.55401,0.016 -1.28741,-0.0149 -1.26629,-1.83559 0.0212,-1.82067 v 0 c 0.31827,0.0111 0.63913,-0.009 0.9548,0.0335 0.74509,0.0996 1.59364,0.45999 1.97175,1.15644 0.12124,0.22328 0.12576,0.49233 0.18863,0.73849 -0.0442,0.22934 -0.0512,0.46915 -0.13269,0.68801 -0.31203,0.83719 -1.21685,1.40904 -2.01303,1.69991 -0.22765,0.0832 -0.4672,0.12909 -0.70083,0.19364 -0.24389,0.0344 -0.48599,0.0857 -0.73168,0.10309 -0.93766,0.0663 -1.97054,-0.1053 -2.63943,-0.83133 -0.14782,-0.16043 -0.24421,-0.36156 -0.36629,-0.54234 -0.0548,-0.19297 -0.13988,-0.37982 -0.16441,-0.57891 -0.12737,-1.03331 0.56076,-1.84654 1.39004,-2.34438 0.17314,-0.0803 0.3411,-0.17286 0.5194,-0.24093 0.91308,-0.34854 1.90879,-0.38214 2.8674,-0.24885 1.26997,0.21166 0.97065,2.00768 -0.29932,1.79601 z"
       id="path4686"
       style="fill:#f2f2f2;fill-opacity:0.94117647;stroke:none;stroke-width:1;stroke-miterlimit:4;stroke-dasharray:none;stroke-opacity:1" />
    <path
       inkscape:connector-curvature="0"
       d="m 148.8331,-105.05589 c -0.68647,-0.14985 -1.42643,-0.24516 -2.11059,-0.0261 -0.11173,0.0358 -0.21629,0.091 -0.32445,0.13647 -0.25437,0.16749 -0.53145,0.39136 -0.5202,0.72944 0.003,0.0652 0.0878,0.33574 0.0977,0.36892 0.0458,0.10984 0.0915,0.21968 0.13732,0.32952 0.45413,1.20475 -1.24966,1.84696 -1.70376,0.64221 v 0 c -0.0732,-0.20568 -0.14632,-0.41137 -0.21947,-0.61705 -0.086,-0.52542 -0.16579,-0.71939 -0.0511,-1.26219 0.18658,-0.88267 0.84034,-1.49034 1.60822,-1.89117 0.20018,-0.0726 0.39531,-0.16106 0.60058,-0.21787 0.98255,-0.27193 2.02202,-0.17335 2.99952,0.061 1.23516,0.36329 0.72139,2.11009 -0.51376,1.7468 z"
       id="path4688"
       style="fill:#f2f2f2;fill-opacity:0.94117647;stroke:none;stroke-width:1;stroke-miterlimit:4;stroke-dasharray:none;stroke-opacity:1" />
  </g>
  <g
     id="g5030"
     transform="translate(147.30403,-70.356245)">
    <path
       inkscape:connector-curvature="0"
       d="m 48.705993,140.91433 c 1.049178,0.72817 2.058892,1.51209 3.069407,2.29257 1.383694,1.06708 2.787039,2.10959 4.148426,3.20537 1.154488,0.92924 1.450057,1.1967 2.581262,2.16405 2.180492,1.89529 4.226803,3.94106 6.061209,6.17327 0.523968,0.74481 1.450317,1.83913 1.364954,2.83161 -0.01249,0.14516 -0.07021,0.28281 -0.105315,0.42422 -0.408429,0.5256 -0.136268,0.31946 -0.867537,0.54448 -0.825711,0.0569 -0.906235,-1.1108 -0.08052,-1.16774 v 0 c -0.175305,0.17233 -0.147204,0.0789 -0.159766,0.24535 0.149788,-0.0383 -0.01196,-0.44678 -0.02265,-0.47568 -0.228637,-0.61715 -0.659982,-1.1288 -1.033801,-1.65946 -1.788951,-2.18077 -3.790259,-4.17481 -5.917361,-6.02651 -1.111893,-0.95109 -1.409975,-1.22056 -2.544575,-2.13394 -1.358468,-1.0936 -2.759088,-2.1337 -4.139819,-3.19866 -0.994402,-0.76807 -1.987814,-1.53983 -3.020173,-2.25655 -0.680509,-0.47112 -0.01423,-1.4335 0.666263,-0.96238 z"
       id="path4918"
       style="fill:#f2f2f2;fill-opacity:0.94117647;stroke:none;stroke-width:1;stroke-miterlimit:4;stroke-dasharray:none;stroke-opacity:1" />
    <path
       inkscape:connector-curvature="0"
       d="m 48.49576,140.20385 c -0.02426,0.71874 0.08551,1.43082 0.168637,2.1424 0.03487,0.29489 0.06584,0.59033 0.08791,0.88648 0.0032,0.0389 0.0049,0.0778 0.0053,0.11678 -0.0041,0.82766 -1.174576,0.82189 -1.170493,-0.006 v 0 c 1.24e-4,0.006 7.94e-4,0.025 5.29e-4,0.0187 -7.94e-4,-0.0152 -0.0016,-0.0269 -0.0026,-0.0431 -0.02069,-0.27975 -0.05041,-0.55878 -0.08322,-0.83735 -0.08837,-0.75664 -0.201551,-1.514 -0.17654,-2.27819 0,-0.82767 1.170506,-0.82767 1.170506,0 z"
       id="path4920"
       style="fill:#f2f2f2;fill-opacity:0.94117647;stroke:none;stroke-width:1;stroke-miterlimit:4;stroke-dasharray:none;stroke-opacity:1" />
    <path
       inkscape:connector-curvature="0"
       d="m 47.480964,139.5335 c 0.973301,0.47385 1.957239,0.92376 2.945879,1.36451 0.03241,0.0151 1.139549,0.48175 1.138724,0.48373 -0.151329,0.36375 -0.308081,0.72521 -0.462121,1.08782 -0.805151,-0.19177 -0.533953,-1.33043 0.271198,-1.13866 v 0 c -0.07653,0.38107 -0.13412,0.76643 -0.229598,1.1432 -0.0048,0.019 -0.0366,-0.014 -0.05463,-0.0216 -0.04392,-0.0186 -0.08743,-0.0381 -0.131196,-0.057 -0.335394,-0.14506 -0.674407,-0.28136 -1.008984,-0.42837 -0.994783,-0.44349 -1.984888,-0.89615 -2.964262,-1.3729 -0.750025,-0.35001 -0.255034,-1.41071 0.494991,-1.06069 z"
       id="path4922"
       style="fill:#f2f2f2;fill-opacity:0.94117647;stroke:none;stroke-width:1;stroke-miterlimit:4;stroke-dasharray:none;stroke-opacity:1" />
  </g>
</svg>
