<?xml version="1.0" encoding="UTF-8" standalone="no"?>
<!-- Created with Inkscape (http://www.inkscape.org/) -->

<svg
   xmlns:dc="http://purl.org/dc/elements/1.1/"
   xmlns:cc="http://creativecommons.org/ns#"
   xmlns:rdf="http://www.w3.org/1999/02/22-rdf-syntax-ns#"
   xmlns:svg="http://www.w3.org/2000/svg"
   xmlns="http://www.w3.org/2000/svg"
   xmlns:sodipodi="http://sodipodi.sourceforge.net/DTD/sodipodi-0.dtd"
   xmlns:inkscape="http://www.inkscape.org/namespaces/inkscape"
   width="270.86856mm"
   height="135.77138mm"
   viewBox="0 0 270.86857 135.77139"
   version="1.1"
   id="svg8"
   inkscape:version="0.92.4 5da689c313, 2019-01-14"
   sodipodi:docname="camera_diaphragm.svg">
  <defs
     id="defs2" />
  <sodipodi:namedview
     id="base"
     pagecolor="#ffffff"
     bordercolor="#666666"
     borderopacity="1.0"
     inkscape:pageopacity="0.0"
     inkscape:pageshadow="2"
     inkscape:zoom="2.034375"
     inkscape:cx="399.534"
     inkscape:cy="260.01006"
     inkscape:document-units="mm"
     inkscape:current-layer="layer1"
     showgrid="false"
     inkscape:window-width="3840"
     inkscape:window-height="2082"
     inkscape:window-x="0"
     inkscape:window-y="41"
     inkscape:window-maximized="1"
     fit-margin-right="5"
     fit-margin-top="5"
     fit-margin-left="0"
     fit-margin-bottom="5" />
  <metadata
     id="metadata5">
    <rdf:RDF>
      <cc:Work
         rdf:about="">
        <dc:format>image/svg+xml</dc:format>
        <dc:type
           rdf:resource="http://purl.org/dc/dcmitype/StillImage" />
        <dc:title></dc:title>
      </cc:Work>
    </rdf:RDF>
  </metadata>
  <g
     inkscape:label="Calque 1"
     inkscape:groupmode="layer"
     id="layer1"
     transform="translate(147.6942,-63.203147)">
    <g
       id="g3836"
       transform="translate(1.0583331,12.992927)">
      <rect
         y="94.877235"
         x="-24.970051"
         height="17.197916"
         width="0.9921875"
         id="rect3815"
         style="fill:#000000;stroke-width:0.26458332" />
      <rect
         y="117.31958"
         x="-24.970051"
         height="17.197916"
         width="0.9921875"
         id="rect3815-2"
         style="fill:#000000;stroke-width:0.26458332" />
    </g>
    <g
       id="g4830"
       transform="translate(-149.30466,312.39529)">
      <path
         inkscape:connector-curvature="0"
         d="m 106.98715,-147.12828 c 0.33496,2.08126 0.54041,4.18146 0.77457,6.27585 0.32193,2.86148 0.57735,5.7303 0.76282,8.6038 0.0263,0.66934 0.0887,1.33797 0.10452,2.00786 7.9e-4,0.0305 0.005,0.49152 -0.0212,0.57585 -0.0542,0.17173 -0.14016,0.3318 -0.21024,0.4977 -0.54299,-0.1686 -1.11633,-0.25991 -1.62897,-0.5058 -0.0872,-0.0418 -0.0209,-0.19236 -0.0277,-0.28885 -0.0394,-0.55956 -0.034,-1.12271 -0.0226,-1.68294 0.0377,-1.27412 0.26524,-2.5217 0.63428,-3.73848 0.26956,-0.731 0.57535,-1.51652 1.22924,-1.99747 0.49691,-0.36549 0.64864,-0.33728 1.23965,-0.47642 0.23453,0.004 0.47086,-0.0175 0.70357,0.0119 0.94623,0.11924 1.85142,0.61109 2.53531,1.26199 0.1727,0.16438 0.32075,0.35285 0.48112,0.52926 0.877,1.15563 1.09594,2.56047 1.17535,3.96919 0.0237,0.46832 -0.0242,0.93255 0.0263,1.39868 0.11413,1.28242 -1.6995,1.44381 -1.81362,0.16139 v 0 c -0.038,-0.4892 -0.0329,-0.97348 -0.031,-1.46426 -0.0477,-0.99077 -0.15486,-2.0114 -0.71961,-2.85719 -0.0996,-0.11684 -0.19158,-0.24058 -0.29874,-0.35051 -0.46011,-0.472 -1.0726,-0.79373 -1.72851,-0.8698 -0.10374,0.001 -0.24907,-0.0109 -0.35004,0.0376 -0.42402,0.20367 -0.53046,0.80239 -0.70809,1.17885 -0.32675,1.05471 -0.51755,2.13871 -0.5549,3.24437 -0.009,0.41456 -0.008,0.82659 0.006,1.24105 0.003,0.0854 0.007,0.17064 0.0111,0.25596 0.002,0.0376 0.0421,0.11714 0.005,0.11274 -0.53622,-0.0632 -1.06121,-0.19982 -1.59182,-0.29973 -0.0576,0.15006 -0.11008,0.30214 -0.17269,0.45016 -0.009,0.0205 0.009,-0.0438 0.0102,-0.0661 0.004,-0.0819 0.006,-0.16405 0.004,-0.24606 -0.0159,-0.65848 -0.0765,-1.31573 -0.10263,-1.97369 -0.18341,-2.84508 -0.43669,-5.6855 -0.75532,-8.51868 -0.22918,-2.04979 -0.43071,-4.10511 -0.75466,-6.14261 -0.23727,-1.26545 1.55234,-1.601 1.7896,-0.33556 z"
         id="path4670"
         style="fill:#f2f2f2;fill-opacity:0.94117647;stroke:none;stroke-width:1;stroke-miterlimit:4;stroke-dasharray:none;stroke-opacity:1" />
      <path
         inkscape:connector-curvature="0"
         d="m 117.24531,-134.08432 c -0.51124,0.39937 -0.73339,0.76747 -0.82875,1.40391 0.007,0.61426 0.25529,0.97574 0.75721,1.30862 0.81428,0.31657 1.65589,0.13495 2.45779,-0.12092 0.72181,-0.27389 1.31792,-0.74663 1.64751,-1.45626 0.0592,-0.12755 0.0988,-0.26335 0.14814,-0.39502 0.0236,-0.13603 0.12091,-0.41623 0.0122,-0.5705 -0.0339,-0.0482 -0.2345,0.009 -0.25223,0.008 -0.12279,-0.004 -0.24405,-0.0291 -0.36607,-0.0436 -0.20717,0.002 -0.41434,0.003 -0.62151,0.005 -0.93668,0.0859 -1.85849,0.31008 -2.74796,0.61266 -0.33629,0.1144 -0.66356,0.25376 -0.99535,0.38065 -1.20368,0.45693 -1.84988,-1.24533 -0.6462,-1.70226 v 0 c 0.37543,-0.14159 0.74589,-0.29711 1.12627,-0.42475 1.07281,-0.35998 2.18416,-0.61701 3.31571,-0.68633 0.7325,0.0375 1.27341,-0.0212 1.94249,0.34181 0.83587,0.4535 1.16951,1.17796 1.07614,2.09653 -0.023,0.22634 -0.10356,0.44306 -0.15534,0.6646 -0.24225,0.5739 -0.28181,0.76043 -0.66093,1.27229 -0.5783,0.78072 -1.38774,1.30755 -2.29102,1.63803 -0.2286,0.0676 -0.45363,0.14871 -0.6858,0.20288 -0.90983,0.2123 -1.92027,0.25094 -2.80972,-0.0779 -0.20766,-0.0768 -0.39666,-0.19682 -0.595,-0.29522 -0.16171,-0.12997 -0.3365,-0.24516 -0.48514,-0.3899 -0.5733,-0.55827 -0.93422,-1.33769 -0.98189,-2.13662 -0.0114,-0.19166 0.0151,-0.38371 0.0226,-0.57556 0.0391,-0.18364 0.0634,-0.37106 0.11728,-0.55091 0.25513,-0.85147 0.82734,-1.55311 1.54535,-2.06048 1.09651,-0.67477 2.05078,0.87592 0.95427,1.55069 z"
         id="path4672"
         style="fill:#f2f2f2;fill-opacity:0.94117647;stroke:none;stroke-width:1;stroke-miterlimit:4;stroke-dasharray:none;stroke-opacity:1" />
      <path
         inkscape:connector-curvature="0"
         d="m 123.39378,-146.85897 c 0.46847,2.18859 0.88791,4.38744 1.3009,6.58708 0.54544,2.79115 0.94544,5.60641 1.22833,8.43547 0.0428,0.4184 0.0729,0.83791 0.11081,1.25674 0.007,0.0822 0.10721,0.24579 0.0246,0.24625 -0.59539,0.003 -1.1803,-0.15769 -1.77046,-0.23654 0.23988,-1.26495 2.02878,-0.92574 1.78891,0.33921 v 0 c -0.61005,0.0262 -1.22286,0.14181 -1.83021,0.0785 -0.0907,-0.009 -0.0188,-0.18136 -0.0271,-0.27216 -0.0372,-0.41024 -0.0665,-0.82116 -0.10843,-1.23098 -0.27715,-2.77719 -0.67056,-5.54063 -1.2061,-8.28051 -0.40629,-2.16424 -0.81992,-4.32742 -1.2778,-6.48142 -0.31227,-1.24905 1.45417,-1.69066 1.76643,-0.44161 z"
         id="path4674"
         style="fill:#f2f2f2;fill-opacity:0.94117647;stroke:none;stroke-width:1;stroke-miterlimit:4;stroke-dasharray:none;stroke-opacity:1" />
      <path
         inkscape:connector-curvature="0"
         d="m 127.36433,-135.38907 c 0.23381,0.32488 0.50382,0.64281 0.8854,0.79761 0.17309,0.0702 0.36219,0.0756 0.54422,0.0949 0.69501,-0.037 1.18039,-0.36344 1.60367,-0.8919 0.0448,-0.0805 0.14258,-0.22011 0.14615,-0.32921 0,-0.0113 -0.0271,-0.0177 -0.0327,-0.008 -0.0939,0.16214 0.0365,0.33486 0.1266,0.45879 0,0.013 0.009,0.0346 -0.003,0.0391 -0.11959,0.0438 -0.25548,0.0263 -0.37618,0.0669 -0.28157,0.0947 -0.51324,0.29186 -0.74123,0.47265 -0.45816,0.47314 -0.78619,1.06517 -0.81997,1.73412 -0.006,0.12534 0.007,0.25088 0.0111,0.37633 0.13433,0.62176 0.48543,1.00685 1.10694,1.17914 0.17997,0.0499 0.36724,0.0683 0.55083,0.10251 1.85007,0.16554 3.67869,-0.24668 5.49135,-0.55457 1.26934,-0.21542 1.57401,1.57969 0.30467,1.79512 v 0 c -2.04568,0.3469 -4.11377,0.80258 -6.19882,0.53513 -0.75523,-0.18958 -1.03359,-0.18584 -1.67574,-0.61433 -0.62299,-0.41572 -1.06706,-1.03988 -1.27627,-1.75634 -0.0654,-0.22407 -0.0825,-0.45952 -0.12374,-0.68928 0.004,-0.22269 -0.01,-0.44647 0.0127,-0.66806 0.11533,-1.1343 0.68934,-2.12786 1.51775,-2.89144 0.15947,-0.1174 0.31134,-0.24586 0.47837,-0.3522 0.59081,-0.37613 1.31847,-0.62347 2.02766,-0.53328 0.17423,0.0222 0.34168,0.0815 0.51252,0.12223 0.16669,0.111 0.36166,0.18825 0.50001,0.33301 0.69596,0.72807 0.33904,1.66575 -0.15544,2.36567 -0.12216,0.13789 -0.23424,0.28545 -0.36653,0.41366 -0.78544,0.76127 -1.8089,1.13836 -2.89795,1.09376 -0.5407,-0.0962 -0.7003,-0.0859 -1.20277,-0.3327 -0.63042,-0.30969 -1.10911,-0.83563 -1.5,-1.40506 -0.67477,-1.0965 0.87593,-2.05077 1.55069,-0.95427 z"
         id="path4676"
         style="fill:#f2f2f2;fill-opacity:0.94117647;stroke:none;stroke-width:1;stroke-miterlimit:4;stroke-dasharray:none;stroke-opacity:1" />
      <path
         inkscape:connector-curvature="0"
         d="m 109.72218,-126.60723 c -0.26417,0.13913 -0.53539,0.27171 -0.76597,0.46444 -0.049,0.041 -0.0943,0.0863 -0.14139,0.12946 -0.28725,0.30121 -0.40378,0.70244 -0.45166,1.10803 -0.0141,0.11938 -0.0173,0.23979 -0.026,0.35968 -0.0196,0.68409 0.0853,1.36609 0.30373,2.01454 0.0384,0.11399 0.0857,0.22481 0.12849,0.33721 0.14407,0.27763 0.27294,0.6001 0.52483,0.80331 0.0255,0.0205 0.0577,0.0308 0.0866,0.0462 0.38179,0.24789 0.0312,0.78781 -0.35056,0.53992 v 0 c -0.0667,-0.0466 -0.13849,-0.0867 -0.20006,-0.13993 -0.30587,-0.26438 -0.49139,-0.66643 -0.66288,-1.02171 -0.0479,-0.12743 -0.10062,-0.25314 -0.14366,-0.38229 -0.2411,-0.72342 -0.35373,-1.48425 -0.32832,-2.24638 0.0113,-0.14086 0.0158,-0.28243 0.0339,-0.42257 0.071,-0.54934 0.25749,-1.0754 0.65403,-1.47364 0.0619,-0.0553 0.12144,-0.11335 0.18562,-0.16599 0.26254,-0.21534 0.56573,-0.37026 0.8654,-0.52604 0.40713,-0.20357 0.69503,0.37222 0.28789,0.57579 z"
         id="path4748"
         style="fill:#f2f2f2;fill-opacity:0.94117647;stroke:none;stroke-width:1;stroke-miterlimit:4;stroke-dasharray:none;stroke-opacity:1" />
      <path
         inkscape:connector-curvature="0"
         d="m 112.97696,-123.48182 c -0.19916,-0.11093 -0.42474,-0.0888 -0.62132,0.0205 -0.0501,0.0279 -0.0941,0.0654 -0.14116,0.0981 -0.0447,0.0443 -0.0937,0.0846 -0.13409,0.13286 -0.16033,0.19122 -0.26644,0.45471 -0.25971,0.70654 0.001,0.053 0.0169,0.10467 0.0253,0.157 0.02,0.0386 0.0337,0.0811 0.06,0.11569 0.11585,0.15255 0.34096,0.15865 0.50909,0.11472 0.0672,-0.0176 0.13022,-0.0485 0.19533,-0.0727 0.31525,-0.15857 0.57271,-0.40637 0.75565,-0.70811 0.0484,-0.0799 0.0849,-0.16642 0.1273,-0.24963 0.2117,-0.40297 0.78159,-0.10358 0.56989,0.29939 v 0 c -0.0589,0.10971 -0.11034,0.22378 -0.17675,0.32912 -0.19159,0.3039 -0.45307,0.57925 -0.7565,0.77302 -0.10267,0.0656 -0.21586,0.11297 -0.32379,0.16945 -0.29114,0.0844 -0.39887,0.14806 -0.70677,0.11063 -0.33472,-0.0407 -0.62725,-0.22678 -0.79009,-0.52412 -0.0489,-0.0892 -0.0688,-0.19146 -0.10325,-0.28719 -0.008,-0.10038 -0.0274,-0.20045 -0.0249,-0.30116 0.01,-0.40234 0.18863,-0.80869 0.45953,-1.10283 0.0693,-0.0752 0.15186,-0.13702 0.22779,-0.20552 0.0867,-0.0526 0.16853,-0.11421 0.26016,-0.15765 0.33838,-0.16041 0.72269,-0.1774 1.06672,-0.0267 0.063,0.0276 0.11952,0.0683 0.17928,0.10241 0.35793,0.28123 -0.0398,0.78742 -0.39772,0.50619 z"
         id="path4750"
         style="fill:#f2f2f2;fill-opacity:0.94117647;stroke:none;stroke-width:1;stroke-miterlimit:4;stroke-dasharray:none;stroke-opacity:1" />
      <path
         inkscape:connector-curvature="0"
         d="m 113.67171,-126.89752 c 0.0363,0.63159 0.13962,1.25643 0.23199,1.88151 0.12129,0.74059 0.22403,1.48423 0.3454,2.22476 0.0466,0.19822 0.0557,0.18763 -0.0414,-0.007 0.36178,0.27626 -0.0289,0.7879 -0.39069,0.51164 v 0 c -0.19913,-0.26699 -0.14159,-0.12872 -0.20324,-0.40068 -0.12163,-0.74388 -0.22538,-1.49073 -0.34694,-2.23465 -0.0953,-0.64506 -0.2012,-1.28996 -0.23802,-1.94179 -0.0239,-0.45456 0.61894,-0.4884 0.64286,-0.0338 z"
         id="path4752"
         style="fill:#f2f2f2;fill-opacity:0.94117647;stroke:none;stroke-width:1;stroke-miterlimit:4;stroke-dasharray:none;stroke-opacity:1" />
      <path
         inkscape:connector-curvature="0"
         d="m 116.21197,-124.35485 c 0.10599,0.58889 0.16215,1.18539 0.22365,1.78017 0.0211,0.1865 0.0298,0.3757 0.0685,0.55991 0.001,0.006 0.006,-0.0189 -2.7e-4,-0.0191 -0.2041,-0.009 -0.40855,-0.005 -0.61282,-0.007 0.0344,-0.4539 0.67631,-0.40524 0.6419,0.0487 v 0 c -0.20935,0.0647 -0.4108,0.16546 -0.62805,0.19403 -0.0371,0.005 -0.0262,-0.0704 -0.0349,-0.10687 -0.047,-0.19722 -0.0472,-0.40378 -0.0745,-0.60361 -0.0596,-0.5766 -0.11368,-1.15492 -0.21569,-1.72592 -0.0852,-0.44716 0.5472,-0.56761 0.63238,-0.12046 z"
         id="path4754"
         style="fill:#f2f2f2;fill-opacity:0.94117647;stroke:none;stroke-width:1;stroke-miterlimit:4;stroke-dasharray:none;stroke-opacity:1" />
      <path
         inkscape:connector-curvature="0"
         d="m 116.18261,-125.76971 c -0.0542,0.15948 -0.14982,0.30619 -0.19815,0.46766 0.0797,-0.21142 -0.23212,-0.44859 -0.41972,-0.3858 0.37446,-0.25882 0.74048,0.27075 0.36602,0.52956 v 0 c -0.0372,0.0213 -0.0738,0.0841 -0.11171,0.064 -0.5016,-0.2661 -0.50532,-0.1879 -0.44268,-0.41905 0.0627,-0.17341 0.14584,-0.33892 0.21455,-0.50997 0.17931,-0.41839 0.771,-0.16481 0.59169,0.25359 z"
         id="path4756"
         style="fill:#f2f2f2;fill-opacity:0.94117647;stroke:none;stroke-width:1;stroke-miterlimit:4;stroke-dasharray:none;stroke-opacity:1" />
      <path
         inkscape:connector-curvature="0"
         d="m 118.99704,-123.90304 c -0.14301,-0.10037 -0.31769,-0.17874 -0.49371,-0.1215 -0.0277,0.009 -0.0532,0.0238 -0.0799,0.0357 -0.14672,0.0975 -0.23887,0.2543 -0.26543,0.4284 -0.006,0.0384 -0.005,0.0775 -0.007,0.11624 0.009,0.21181 0.0808,0.41357 0.23635,0.56043 0.0159,0.01 0.0299,0.0238 0.0476,0.0299 0.0103,0.004 0.0324,-0.0315 0.0378,-0.0368 0.0593,-0.0579 -0.0191,0.0125 0.0838,-0.0761 0.17021,-0.16861 0.26855,-0.38888 0.35078,-0.61005 0.0103,-0.0312 0.0316,-0.0902 0.0385,-0.126 0.003,-0.008 -0.0106,0.004 -0.006,0.0199 0.01,0.0358 0.0238,0.0706 0.0356,0.10584 0.11973,0.16281 0.29525,0.17665 0.45281,0.0611 -0.29641,0.34545 -0.78497,-0.0738 -0.48855,-0.41921 v 0 c 0.0317,-0.0295 0.0565,-0.0691 0.0952,-0.0885 0.19701,-0.0987 0.3469,-0.0675 0.48366,0.10091 0.0191,0.0466 0.0423,0.0917 0.0572,0.13982 0.042,0.13565 -0.0257,0.30507 -0.0657,0.43246 -0.12682,0.33493 -0.28972,0.65828 -0.56502,0.89704 -0.12975,0.093 -0.1815,0.14586 -0.34004,0.19281 -0.25157,0.0745 -0.49588,-0.009 -0.68416,-0.17969 -0.0384,-0.0423 -0.0801,-0.0817 -0.11515,-0.12678 -0.20994,-0.26962 -0.29728,-0.60637 -0.29493,-0.94368 0.01,-0.0762 0.0127,-0.1535 0.0289,-0.22857 0.0629,-0.29183 0.2296,-0.56849 0.47358,-0.74394 0.0615,-0.0442 0.13147,-0.0754 0.19719,-0.11307 0.19002,-0.0598 0.23733,-0.0913 0.44114,-0.0877 0.28152,0.005 0.53991,0.12355 0.76131,0.28954 0.34748,0.29403 -0.0683,0.78546 -0.41582,0.49143 z"
         id="path4758"
         style="fill:#f2f2f2;fill-opacity:0.94117647;stroke:none;stroke-width:1;stroke-miterlimit:4;stroke-dasharray:none;stroke-opacity:1" />
      <path
         inkscape:connector-curvature="0"
         d="m 119.50636,-124.13819 c 0.005,0.27741 0,0.56343 0.0675,0.83484 0.0108,0.0439 0.0284,0.086 0.0425,0.12899 0.0167,0.029 0.0293,0.0608 0.0503,0.0869 0.0617,0.0767 0.29977,0.01 0.37087,-0.004 0.15949,-0.0383 0.31448,-0.0923 0.47103,-0.14066 0.43493,-0.13434 0.62492,0.48073 0.19,0.61507 v 0 c -0.18322,0.0566 -0.36454,0.12022 -0.55245,0.16012 -0.17391,0.0269 -0.28339,0.0566 -0.46167,0.0321 -0.34959,-0.0481 -0.55129,-0.24288 -0.68286,-0.55819 -0.0204,-0.0685 -0.0448,-0.13594 -0.0613,-0.20549 -0.0734,-0.30957 -0.0732,-0.63318 -0.0777,-0.94919 0,-0.4552 0.64376,-0.4552 0.64376,0 z"
         id="path4760"
         style="fill:#f2f2f2;fill-opacity:0.94117647;stroke:none;stroke-width:1;stroke-miterlimit:4;stroke-dasharray:none;stroke-opacity:1" />
      <path
         inkscape:connector-curvature="0"
         d="m 121.67602,-124.7299 c 0.0993,0.64419 0.23675,1.28145 0.38566,1.9157 0.20283,0.81746 0.42069,1.63271 0.68982,2.43113 0.018,0.052 0.0848,0.25036 0.11348,0.32056 0.005,0.0121 0.0297,0.0417 0.019,0.0343 -0.0763,-0.0528 -0.12583,-0.17526 -0.21854,-0.17224 -0.42596,0.0139 -0.29739,0.32448 -0.3574,0.17005 -0.005,-0.29459 -0.0636,-0.58399 -0.12732,-0.87044 -0.0897,-0.34761 -0.21876,-0.68264 -0.35417,-1.01448 -0.17317,-0.40227 -0.32681,-0.81212 -0.44379,-1.23424 -0.0618,-0.25697 -0.0833,-0.52079 -0.0395,-0.78236 0.0222,-0.13259 0.0461,-0.19848 0.0841,-0.32521 0.0971,-0.25873 0.2357,-0.51195 0.46234,-0.68004 0.0524,-0.0389 0.11112,-0.0685 0.16669,-0.1028 0.35123,-0.15837 0.74186,-0.19087 1.1208,-0.13107 0.0838,0.0132 0.16586,0.0358 0.24878,0.0538 0.38645,0.11809 0.78214,0.34628 0.86064,0.78121 0.0159,0.0881 0.003,0.17908 0.005,0.26861 -0.0222,0.0853 -0.0347,0.17388 -0.067,0.25591 -0.16452,0.41701 -0.53861,0.71465 -0.89545,0.96057 -0.107,0.0572 -0.28332,0.16703 -0.41177,0.17383 -0.10361,0.005 -0.2058,-0.0267 -0.30872,-0.0401 -0.43564,-0.13202 -0.24892,-0.7481 0.18672,-0.61607 v 0 c -0.018,0.0123 -0.0741,0.0275 -0.0544,0.037 0.0422,0.0202 0.22233,-0.0851 0.22606,-0.087 0.27173,-0.18168 0.55584,-0.39929 0.68141,-0.71142 0.0106,-0.0355 0.0309,-0.0831 0.0201,-0.12249 -0.0442,-0.16253 -0.25045,-0.22023 -0.38391,-0.27209 -0.0585,-0.0139 -0.11626,-0.0313 -0.17547,-0.0417 -0.2427,-0.0425 -0.49609,-0.0346 -0.72946,0.0475 -0.19031,0.095 -0.2573,0.22148 -0.33671,0.41417 -0.0852,0.27233 -0.1089,0.46383 -0.0397,0.74875 0.10877,0.39805 0.25712,0.78291 0.41926,1.16212 0.14883,0.36544 0.29011,0.73473 0.3865,1.11808 0.0741,0.33504 0.1402,0.6739 0.14253,1.01845 -0.0148,0.23465 0.0169,0.38594 -0.38473,0.45752 -0.27006,0.0481 -0.36674,-0.46752 -0.42555,-0.61339 -0.27491,-0.81782 -0.49951,-1.65211 -0.70644,-2.48944 -0.15391,-0.65644 -0.29631,-1.316 -0.39772,-1.9829 -0.0565,-0.45169 0.58232,-0.53153 0.63878,-0.0799 z"
         id="path4762"
         style="fill:#f2f2f2;fill-opacity:0.94117647;stroke:none;stroke-width:1;stroke-miterlimit:4;stroke-dasharray:none;stroke-opacity:1" />
      <path
         inkscape:connector-curvature="0"
         d="m 123.83889,-128.11528 c 0.11805,0.5583 0.27971,1.106 0.44685,1.65119 0.24543,0.78034 0.50554,1.55575 0.74856,2.33688 0.0701,0.23578 0.078,0.26158 0.14171,0.47902 0.0476,0.16241 0.0359,0.11688 0.0714,0.26013 0.004,0.0173 0.03,0.0487 0.0124,0.052 -0.20966,0.04 -0.42453,0.0447 -0.63678,0.067 -0.0356,-0.25994 -0.009,-0.52189 0.0262,-0.78011 0.0553,-0.34456 0.12641,-0.68736 0.25683,-1.01175 0.0947,-0.21057 0.25548,-0.39774 0.49755,-0.43444 0.17142,-0.026 0.22883,0.008 0.38483,0.0542 0.28607,0.13381 0.50327,0.36288 0.64471,0.64378 0.0302,0.0599 0.0532,0.12312 0.0799,0.18468 0.14851,0.40725 0.1737,0.84412 0.23892,1.26942 0.0327,0.20325 0.0103,0.11838 0.0543,0.25764 0.12557,0.43754 -0.49318,0.61512 -0.61875,0.17759 v 0 c -0.059,-0.21701 -0.0344,-0.10453 -0.0719,-0.33783 -0.0571,-0.37356 -0.0799,-0.75675 -0.1963,-1.11795 -0.0737,-0.18529 -0.16761,-0.35902 -0.34112,-0.46889 -0.0106,-0.007 -0.0262,-0.009 -0.032,-0.0199 -0.006,-0.0123 0.0499,-0.0485 0.0185,-0.0517 -0.008,-7.9e-4 -0.0175,0.005 -0.0225,0.0124 -0.0169,0.0236 -0.0274,0.051 -0.0412,0.0765 -0.11639,0.27067 -0.16092,0.56589 -0.21416,0.85392 -0.0295,0.21076 -0.0536,0.42472 -0.0225,0.63691 -0.21021,0.0461 -0.41756,0.10798 -0.63061,0.13845 -0.0159,0.002 -0.007,-0.0311 -0.0111,-0.0466 -0.007,-0.0285 -0.0132,-0.0571 -0.0209,-0.0854 -0.0569,-0.20702 -0.12356,-0.41133 -0.18206,-0.61788 -0.24328,-0.782 -0.50385,-1.55824 -0.74941,-2.33952 -0.17322,-0.56574 -0.3407,-1.1341 -0.46257,-1.71352 -0.0893,-0.44636 0.54198,-0.57261 0.63125,-0.12625 z"
         id="path4764"
         style="fill:#f2f2f2;fill-opacity:0.94117647;stroke:none;stroke-width:1;stroke-miterlimit:4;stroke-dasharray:none;stroke-opacity:1" />
      <path
         inkscape:connector-curvature="0"
         d="m 129.34241,-125.13574 c -0.23427,-0.0909 -0.49044,-0.15431 -0.74319,-0.11522 -0.0451,0.007 -0.0885,0.022 -0.13272,0.033 -0.038,0.0168 -0.0784,0.0291 -0.11411,0.0504 -0.18362,0.10982 -0.20447,0.34992 -0.22585,0.53911 -0.006,0.24553 0.0352,0.49085 0.108,0.72502 0.05,0.16105 0.0193,0.11677 0.10078,0.19756 0.26027,0.37344 -0.26786,0.74154 -0.52813,0.36809 v 0 c -0.0428,-0.0685 -0.093,-0.13285 -0.12838,-0.20542 -0.0298,-0.0611 -0.0464,-0.12795 -0.066,-0.1931 -0.095,-0.31694 -0.14443,-0.64775 -0.12419,-0.97883 0.0314,-0.20866 0.0325,-0.31003 0.11784,-0.50551 0.14401,-0.32964 0.38574,-0.52104 0.72372,-0.62652 0.0782,-0.0156 0.15552,-0.0373 0.23473,-0.0466 0.37018,-0.0438 0.74243,0.0436 1.0804,0.19004 0.40164,0.21421 0.0987,0.78222 -0.30294,0.56801 z"
         id="path4766"
         style="fill:#f2f2f2;fill-opacity:0.94117647;stroke:none;stroke-width:1;stroke-miterlimit:4;stroke-dasharray:none;stroke-opacity:1" />
      <path
         inkscape:connector-curvature="0"
         d="m 131.57295,-124.90706 c -0.13907,-0.12473 -0.30507,-0.26902 -0.50284,-0.27616 -0.0243,-7.9e-4 -0.0486,0.004 -0.0729,0.006 -0.0175,0.007 -0.0367,0.0118 -0.0527,0.0221 -0.0124,0.008 -0.0206,0.0214 -0.0311,0.032 -0.0899,0.0923 -0.13835,0.19842 -0.18561,0.31763 -0.0558,0.18522 -0.0867,0.39144 -0.0268,0.57934 0.0486,0.0912 0.12536,0.0649 0.21741,0.0563 0.24678,-0.0339 0.4713,-0.13806 0.69144,-0.24835 0.0262,-0.0145 0.0526,-0.029 0.0789,-0.0434 0.39925,-0.21863 0.70845,0.346 0.30919,0.56463 v 0 c -0.0333,0.0182 -0.0667,0.0363 -0.10001,0.0545 -0.3084,0.15412 -0.62746,0.28958 -0.97581,0.31638 -0.16793,-0.004 -0.23162,0.008 -0.38984,-0.0507 -0.22833,-0.0852 -0.37708,-0.26455 -0.45498,-0.48998 -0.0119,-0.052 -0.0276,-0.10331 -0.0361,-0.15601 -0.0447,-0.27872 0.004,-0.56772 0.0931,-0.832 0.0249,-0.0574 0.0464,-0.11644 0.0748,-0.17221 0.12536,-0.24595 0.31631,-0.46203 0.58447,-0.55388 0.0659,-0.0226 0.13663,-0.0267 0.20494,-0.04 0.0674,0.002 0.13544,-0.002 0.20233,0.007 0.33044,0.0447 0.61203,0.24337 0.84513,0.46986 0.30877,0.33448 -0.16428,0.77112 -0.47302,0.43664 z"
         id="path4768"
         style="fill:#f2f2f2;fill-opacity:0.94117647;stroke:none;stroke-width:1;stroke-miterlimit:4;stroke-dasharray:none;stroke-opacity:1" />
      <path
         inkscape:connector-curvature="0"
         d="m 134.02442,-124.97874 c -0.074,-0.0476 -0.17481,-0.0853 -0.25874,-0.0355 -0.0193,0.0115 -0.0767,0.082 -0.0853,0.092 -0.0923,0.14032 -0.13645,0.32104 -0.0722,0.48323 0.0117,0.0292 0.0317,0.0542 0.0475,0.0813 0.17746,0.21696 0.39209,0.23364 0.6545,0.20777 0.16545,-0.043 0.33594,-0.11227 0.44257,-0.25144 0.30848,-0.33472 0.78184,0.10155 0.47337,0.43627 v 0 c -0.0423,0.0431 -0.0812,0.0899 -0.1269,0.1294 -0.20981,0.18122 -0.47625,0.27978 -0.74538,0.32803 -0.20437,0.0103 -0.28191,0.0273 -0.48649,-0.0163 -0.25085,-0.0535 -0.4839,-0.17589 -0.65656,-0.36807 -0.0548,-0.0609 -0.0945,-0.13384 -0.14182,-0.20075 -0.0315,-0.0778 -0.0721,-0.15248 -0.0946,-0.23336 -0.0827,-0.29842 -0.0233,-0.63855 0.14001,-0.89933 0.0413,-0.066 0.0964,-0.12229 0.14457,-0.18343 0.16561,-0.13065 0.20638,-0.19096 0.42013,-0.24324 0.29134,-0.0713 0.57653,0.0362 0.80045,0.21825 0.32186,0.32187 -0.13332,0.77707 -0.45519,0.4552 z"
         id="path4772"
         style="fill:#f2f2f2;fill-opacity:0.94117647;stroke:none;stroke-width:1;stroke-miterlimit:4;stroke-dasharray:none;stroke-opacity:1" />
      <path
         inkscape:connector-curvature="0"
         d="m 134.92321,-125.35947 c 0.11525,0.6258 0.35451,1.22194 0.58343,1.81306 0.29112,0.74336 0.65707,1.45553 0.93432,2.20457 0.0491,0.13263 0.0919,0.26751 0.13785,0.40126 0.13613,0.47332 0.20752,0.97622 -0.0319,1.43183 -0.13496,0.25689 -0.24688,0.33122 -0.4526,0.52648 -0.32631,0.23727 -0.69109,0.46077 -1.09413,0.53873 -0.0822,0.0159 -0.16676,0.0147 -0.25013,0.022 -0.45445,0.026 -0.49123,-0.61669 -0.0368,-0.6427 v 0 c 0.037,5.3e-4 0.0746,0.008 0.11107,0.001 0.30591,-0.0513 0.58301,-0.22331 0.83466,-0.39371 0.1524,-0.13281 0.31186,-0.2611 0.3733,-0.46405 0.0816,-0.26967 0.004,-0.54932 -0.0625,-0.81139 -0.0425,-0.12444 -0.082,-0.24997 -0.12755,-0.37333 -0.27723,-0.75064 -0.64604,-1.46334 -0.93599,-2.20879 -0.24575,-0.63529 -0.50052,-1.2764 -0.61968,-1.94991 -0.0675,-0.45016 0.56909,-0.54565 0.63661,-0.0955 z"
         id="path4774"
         style="fill:#f2f2f2;fill-opacity:0.94117647;stroke:none;stroke-width:1;stroke-miterlimit:4;stroke-dasharray:none;stroke-opacity:1" />
      <path
         inkscape:connector-curvature="0"
         d="m 136.58138,-125.91467 c 0.10398,0.40998 0.23365,0.81278 0.3805,1.20926 0.0476,0.13159 0.0978,0.2628 0.15896,0.38881 0.008,0.0175 0.018,0.0346 0.0277,0.0514 0.003,0.002 0.008,0.006 0.006,0.006 -0.18933,0.0189 -0.37907,0.0335 -0.56861,0.0503 -0.003,-0.002 -0.006,-0.003 -0.006,-0.006 -0.005,-0.071 -0.003,-0.14227 0,-0.2134 0,-0.17175 0.0151,-0.34213 0.0284,-0.51325 0.0315,-0.26177 0.0544,-0.53921 0.17897,-0.7773 0.0214,-0.0411 0.0495,-0.0784 0.0742,-0.11757 0.045,-0.0412 0.0838,-0.0906 0.1351,-0.12369 0.15909,-0.10261 0.35202,-0.10847 0.52567,-0.0429 0.14692,0.0555 0.17907,0.10215 0.29747,0.20436 0.27072,0.2906 0.38092,0.66633 0.46593,1.04426 0.0122,0.12986 0.0988,0.408 0.0599,0.53604 -0.0172,0.0566 -0.0451,0.1093 -0.0677,0.16395 -0.19516,-0.0694 -0.40497,-0.10659 -0.58544,-0.20819 -0.0361,-0.0203 -0.004,-0.0827 -0.005,-0.12404 -0.003,-0.19456 0.0288,-0.38643 0.0608,-0.57768 0.067,-0.27974 0.13497,-0.59703 0.36907,-0.79106 0.0505,-0.0418 0.11089,-0.0699 0.16634,-0.10491 0.0706,-0.0157 0.13949,-0.0448 0.2118,-0.0472 0.28824,-0.009 0.522,0.19084 0.68268,0.40778 0.0415,0.056 0.0756,0.11701 0.11337,0.17551 0.18601,0.32468 0.32155,0.67459 0.47438,1.01533 0,10e-4 0.0822,0.15975 0.10083,0.16926 0.022,0.0112 -0.0243,-0.043 -0.0366,-0.0644 0.40124,0.21496 0.0972,0.7824 -0.30401,0.56744 v 0 c -0.0661,-0.0504 -0.13919,-0.0928 -0.19846,-0.15114 -0.0384,-0.0378 -0.12732,-0.21624 -0.1492,-0.25784 -0.14031,-0.31324 -0.26567,-0.63425 -0.43148,-0.93527 -0.0581,-0.0958 -0.0644,-0.11436 -0.13041,-0.196 -0.014,-0.0172 -0.0303,-0.0324 -0.0448,-0.0491 -0.007,-0.008 -0.0188,-0.0141 -0.0196,-0.0245 0,-0.0184 0.0443,-0.0191 0.0354,-0.0423 -0.038,-0.0214 -0.077,0.0477 -0.0897,0.0717 -0.0598,0.11312 -0.0824,0.24202 -0.11502,0.36415 -0.0212,0.12318 -0.0415,0.24575 -0.0491,0.37067 -0.003,0.0298 -0.003,0.0597 -0.003,0.0896 0,0.0132 0.0111,0.0406 -0.003,0.0396 -0.19039,-0.0145 -0.37787,-0.0552 -0.56684,-0.0828 -0.0188,0.0496 -0.0397,0.0985 -0.0564,0.14888 -0.003,0.005 -1.6e-4,0.0214 0.003,0.0162 0.0182,-0.0561 -0.0504,-0.27849 -0.0501,-0.33936 -0.0555,-0.25146 -0.11502,-0.50984 -0.27903,-0.7158 -0.004,-0.005 -0.0553,-0.0645 -0.0494,-0.0707 0.0246,-0.0256 0.0627,-0.0314 0.0663,-0.0757 -0.11761,0.13565 -0.11727,0.41657 -0.1451,0.58533 -0.0119,0.15225 -0.0254,0.30394 -0.0265,0.45676 0,0.0546 0.004,0.20301 -1.6e-4,0.26083 -0.003,0.0455 -0.0103,0.0906 -0.0156,0.13582 -0.19693,0.0436 -0.39044,0.10752 -0.59081,0.1308 -0.0225,0.003 -0.0249,-0.0381 -0.0362,-0.0579 -0.0919,-0.1636 -0.15441,-0.34236 -0.22095,-0.51706 -0.15269,-0.41335 -0.2885,-0.83298 -0.39698,-1.26027 -0.12184,-0.43859 0.49842,-0.61088 0.62026,-0.17229 z"
         id="path4776"
         style="fill:#f2f2f2;fill-opacity:0.94117647;stroke:none;stroke-width:1;stroke-miterlimit:4;stroke-dasharray:none;stroke-opacity:1" />
      <path
         inkscape:connector-curvature="0"
         d="m 139.54818,-129.51576 c 0.61243,0.67568 0.98666,1.51995 1.35006,2.34522 0.25382,0.61795 0.48617,1.2472 0.65905,1.8932 0.10015,0.37417 0.19847,0.81 0.21963,1.19999 0.0101,0.18364 -0.01,0.36769 -0.0143,0.55154 -0.17225,0.72541 -0.0271,0.36725 -0.47083,1.05942 -0.25739,0.37544 -0.78835,0.0114 -0.53094,-0.36401 v 0 c 0.33427,-0.44134 0.21804,-0.20081 0.35838,-0.71681 0.006,-0.14966 0.0259,-0.29934 0.019,-0.44897 -0.0167,-0.35705 -0.1065,-0.75425 -0.19751,-1.09589 -0.16539,-0.6208 -0.38844,-1.22544 -0.6318,-1.81929 -0.33065,-0.75269 -0.66657,-1.52585 -1.21603,-2.1492 -0.32186,-0.32188 0.13333,-0.77707 0.45522,-0.4552 z"
         id="path4778"
         style="fill:#f2f2f2;fill-opacity:0.94117647;stroke:none;stroke-width:1;stroke-miterlimit:4;stroke-dasharray:none;stroke-opacity:1" />
      <path
         inkscape:connector-curvature="0"
         d="m 132.02039,-125.28759 c 0.10043,0.23342 0.17624,0.47636 0.23058,0.72436 0.0257,0.12204 0.0374,0.246 0.0401,0.37047 -0.005,0.0389 0.008,0.23193 -0.008,0.0583 -0.0334,-0.0925 0.0167,0.0311 0.0257,0.0539 -0.0198,-0.0726 -0.12565,-0.1381 0.003,-0.0569 0.0767,0.0281 0.15237,0.0597 0.23069,0.0829 0.061,0.0144 0.11695,0.0432 0.17613,0.0629 0.035,0.0106 -0.003,-1.3e-4 -0.0188,-0.004 0.0251,1.3e-4 0.0505,-4e-5 0.0757,-2.5e-4 0.0433,10e-4 0.1075,-0.0141 -0.081,0.0177 0.42206,-0.17047 0.66315,0.42643 0.24109,0.5969 v 0 c -0.0691,0.015 -0.0997,0.0299 -0.15478,0.0291 -0.0328,2.6e-4 -0.0655,5.3e-4 -0.0983,4e-5 -0.0577,-0.002 -0.11533,-0.009 -0.16981,-0.0294 -0.0539,-0.0183 -0.10515,-0.0431 -0.16002,-0.0577 -0.13208,-0.0416 -0.26414,-0.0884 -0.38598,-0.15465 -0.10498,-0.0669 -0.20936,-0.13353 -0.25791,-0.25485 -0.014,-0.0364 -0.0297,-0.072 -0.0438,-0.10828 -0.0119,-0.0763 -0.0217,-0.14643 -0.0167,-0.223 -0.003,-0.0829 -0.009,-0.16535 -0.0257,-0.2467 -0.0444,-0.2081 -0.10956,-0.41133 -0.19312,-0.60709 -0.1793,-0.41839 0.41238,-0.67197 0.59169,-0.25358 z"
         id="path4782"
         style="fill:#f2f2f2;fill-opacity:0.94117647;stroke:none;stroke-width:1;stroke-miterlimit:4;stroke-dasharray:none;stroke-opacity:1" />
    </g>
    <path
       style="fill:#f2f2f2;fill-opacity:0.94117647;stroke:none;stroke-width:1;stroke-miterlimit:4;stroke-dasharray:none;stroke-opacity:1"
       id="path4906"
       d="m -26.196442,141.79596 c -1.795111,1.10425 -3.485023,2.3656 -5.138552,3.66906 -1.499516,1.22605 -2.892148,2.58828 -4.077608,4.12368 -0.656788,0.85066 -0.828302,1.17614 -1.383977,2.07194 -0.929905,1.54494 -1.487683,3.26223 -2.01368,4.9753 -0.06021,0.19651 -0.121253,0.39276 -0.180623,0.58952 -0.0838,0.27774 -0.171982,0.58067 -0.252111,0.86161 -0.03593,0.12599 -0.08744,0.28597 -0.107749,0.42303 -0.0051,0.0341 0.01537,-0.0673 0.02307,-0.10089 -0.215898,-0.40008 -0.08416,-0.28016 -0.303517,-0.43988 0.826664,0.0408 0.768884,1.20993 -0.05778,1.16908 v 0 c -0.637548,-0.13576 -0.359227,0.0266 -0.795316,-0.54938 -0.0038,-0.10746 -0.01857,-0.2151 -0.01138,-0.32238 0.0062,-0.0919 0.110328,-0.44203 0.127926,-0.50372 0.140348,-0.49194 0.285951,-0.98238 0.438554,-1.47067 0.555959,-1.8094 1.152719,-3.61998 2.138551,-5.24965 0.598826,-0.96107 0.770162,-1.28819 1.477573,-2.20177 1.237838,-1.59858 2.690281,-3.01771 4.253588,-4.29519 1.690401,-1.33157 3.417633,-2.6205 5.252659,-3.74846 0.706239,-0.43159 1.316598,0.56718 0.610359,0.99877 z"
       inkscape:connector-curvature="0" />
    <path
       style="fill:#f2f2f2;fill-opacity:0.94117647;stroke:none;stroke-width:1;stroke-miterlimit:4;stroke-dasharray:none;stroke-opacity:1"
       id="path4908"
       d="m -25.874217,142.84444 c -0.261138,0.81151 -0.507127,1.62778 -0.754015,2.44373 -0.213341,0.65165 -0.161096,0.7586 -1.260945,-0.0947 -0.01495,-0.0116 0.09379,-1.03975 0.10247,-1.11531 0.069,-0.71326 0.208407,-1.41601 0.34394,-2.11869 0.07487,-0.32486 0.171074,-0.64455 0.228552,-0.9732 0.0034,-0.022 0.0098,-0.0884 0.01021,-0.0661 0.0035,0.1779 -0.07094,0.14586 0.08905,0.37095 0.04935,0.0694 0.127584,0.11369 0.198292,0.1612 0.02763,0.0186 0.100724,0.002 0.09357,0.0349 -0.0082,0.0371 -0.07255,0.0229 -0.10882,0.0344 -0.610286,0.24528 -1.210855,0.49865 -1.85474,0.64136 -0.690981,0.1302 -1.285822,-0.13033 -1.870805,-0.461 -0.163317,-0.0687 -0.165669,-0.0746 -0.0182,0.006 -0.82645,0.045 -0.89009,-1.12378 -0.06364,-1.16877 v 0 c 0.514432,0.0486 0.300257,-0.0194 0.658424,0.14459 0.330943,0.18759 0.652549,0.39574 1.050239,0.33485 0.62968,-0.12642 1.198483,-0.42397 1.803675,-0.62927 0.204103,-0.0486 0.421548,-0.12361 0.636617,-0.0607 0.404101,0.11824 0.609201,0.46152 0.528741,0.86196 -0.05966,0.3344 -0.149228,0.66176 -0.231849,0.99102 -0.129987,0.67379 -0.264922,1.34742 -0.330499,2.03145 -0.03518,0.30197 -0.09273,1.01545 -0.09525,1.01609 -1.424786,0.36501 -1.195594,0.25003 -1.029375,-0.27958 0.250055,-0.82638 0.499179,-1.65309 0.763919,-2.47489 0.261733,-0.78519 1.372174,-0.41505 1.11044,0.37015 z"
       inkscape:connector-curvature="0" />
  </g>
</svg>
