<?xml version="1.0" encoding="UTF-8" standalone="no"?>
<svg
   xmlns:dc="http://purl.org/dc/elements/1.1/"
   xmlns:cc="http://creativecommons.org/ns#"
   xmlns:rdf="http://www.w3.org/1999/02/22-rdf-syntax-ns#"
   xmlns:svg="http://www.w3.org/2000/svg"
   xmlns="http://www.w3.org/2000/svg"
   xmlns:sodipodi="http://sodipodi.sourceforge.net/DTD/sodipodi-0.dtd"
   xmlns:inkscape="http://www.inkscape.org/namespaces/inkscape"
   id="svg8"
   version="1.1"
   viewBox="0 0 270.86857 135.77139"
   height="135.77138mm"
   width="270.86856mm"
   sodipodi:docname="camera_optic.svg"
   inkscape:version="0.92.4 5da689c313, 2019-01-14">
  <sodipodi:namedview
     pagecolor="#ffffff"
     bordercolor="#666666"
     borderopacity="1"
     objecttolerance="10"
     gridtolerance="10"
     guidetolerance="10"
     inkscape:pageopacity="0"
     inkscape:pageshadow="2"
     inkscape:window-width="3840"
     inkscape:window-height="2082"
     id="namedview6255"
     showgrid="false"
     inkscape:zoom="1.8396121"
     inkscape:cx="375.79236"
     inkscape:cy="238.00088"
     inkscape:window-x="0"
     inkscape:window-y="41"
     inkscape:window-maximized="1"
     inkscape:current-layer="svg8" />
  <defs
     id="defs2" />
  <metadata
     id="metadata5">
    <rdf:RDF>
      <cc:Work
         rdf:about="">
        <dc:format>image/svg+xml</dc:format>
        <dc:type
           rdf:resource="http://purl.org/dc/dcmitype/StillImage" />
        <dc:title></dc:title>
      </cc:Work>
    </rdf:RDF>
  </metadata>
  <path
     inkscape:connector-curvature="0"
     style="fill:#ffff13;fill-opacity:0.56078384;stroke:none;stroke-width:0.26458332px;stroke-linecap:butt;stroke-linejoin:miter;stroke-opacity:1"
     d="m 1e-5,8.617537 68.130202,31.749996 4.128177,0.37075 12.448566,6.7178 7.127542,-3.96683 7.552808,8.83243 0.439864,-3.96103 2.379921,-6.03205 21.57539,19.53633 64.89379,20.67057 v -36.09672 l -64.89379,20.67057 -21.5762,19.53634 -2.381114,-6.03712 -0.437861,-3.95598 -7.537476,8.83244 -7.142874,-3.96684 -12.412247,6.71782 -2.106235,0.16482 -2.106235,0.16482 L 0,120.97095 Z"
     id="path4054" />
  <rect
     style="fill:#aa8800;stroke-width:0.26458332"
     id="rect3713"
     width="1.9371279"
     height="36.096725"
     x="188.67627"
     y="46.438782" />
  <g
     id="g3836"
     transform="translate(148.75253,-50.21022)">
    <rect
       y="94.877235"
       x="-24.970051"
       height="17.197916"
       width="0.9921875"
       id="rect3815"
       style="fill:#000000;stroke-width:0.26458332" />
    <rect
       y="117.31958"
       x="-24.970051"
       height="17.197916"
       width="0.9921875"
       id="rect3815-2"
       style="fill:#000000;stroke-width:0.26458332" />
  </g>
  <g
     id="g3990"
     transform="translate(147.6942,-63.203147)">
    <path
       inkscape:connector-curvature="0"
       id="path3899"
       d="m -75.435811,103.94143 a 30.343723,29.849178 0 0 0 -11.99652,23.74346 30.343723,29.849178 0 0 0 12.032839,23.75427 50.281584,50.231399 0 0 1 -6.02724,-23.75427 50.281584,50.231399 0 0 1 5.990921,-23.74346 z"
       style="fill:#00ffff;stroke-width:0.39563408" />
    <path
       inkscape:connector-curvature="0"
       id="path3872"
       d="m -62.987245,110.65923 a 12.798876,23.595693 0 0 0 -3.956674,17.04774 12.798876,23.595693 0 0 0 3.956674,17.01437 z"
       style="fill:#00ffff;stroke-width:0.26694116" />
    <path
       inkscape:connector-curvature="0"
       id="path3872-9"
       d="m -55.859703,106.6924 a 11.069219,26.672973 0 0 0 -4.248934,20.99789 11.069219,26.672973 0 0 0 4.264267,20.99789 11.069219,26.672973 0 0 0 4.248932,-20.99789 11.069219,26.672973 0 0 0 -4.264265,-20.99789 z"
       style="fill:#00ffff;stroke-width:0.26394138" />
    <path
       inkscape:connector-curvature="0"
       id="path3923"
       d="m -45.487113,105.53175 a 13.944473,35.071111 0 0 1 3.146699,22.15906 13.944473,35.071111 0 0 1 -3.147504,22.15803 l -2.381116,-6.03712 a 5.7568925,16.400493 0 0 0 4.724254,-16.12091 5.7568925,16.400493 0 0 0 -4.722251,-16.12701 z"
       style="fill:#00ffff;stroke-width:0.32589942" />
    <path
       inkscape:connector-curvature="0"
       id="path3872-3"
       d="m -48.306895,115.52483 a 9.142362,16.854633 0 0 1 2.826291,12.17737 9.142362,16.854633 0 0 1 -2.826291,12.15354 z"
       style="fill:#00ffff;stroke-width:0.19067867" />
  </g>
  <g
     id="g4866"
     transform="translate(-137.12915,230.98425)">
    <path
       inkscape:connector-curvature="0"
       d="m 190.15273,-123.18694 c -0.44593,-0.3701 -0.99391,-0.66691 -1.59123,-0.64984 -0.10729,0.003 -0.21278,0.0281 -0.31917,0.0422 -0.8464,0.22217 -1.32313,0.69274 -1.79316,1.40606 -0.32885,0.60371 -0.45114,1.2806 -0.29273,1.95658 0.0297,0.12698 0.0834,0.24713 0.12509,0.3707 0.29197,0.64559 0.79804,1.09041 1.51001,1.20028 0.16065,0.0248 0.32445,0.0204 0.4867,0.0306 0.91802,-0.0705 1.79506,-0.45237 2.44565,-1.11317 0.12245,-0.12436 0.22473,-0.2671 0.3371,-0.40065 0.38481,-0.54408 0.78071,-1.28782 0.43347,-1.95473 -0.0451,-0.0867 -0.11562,-0.15766 -0.17344,-0.23649 -0.27424,-0.17487 -0.59512,-0.30641 -0.92927,-0.2869 -0.16303,0.01 -0.32014,0.0647 -0.48021,0.0971 -1.27916,0.14642 -1.48622,-1.66256 -0.20707,-1.80897 v 0 c 0.34388,-0.0253 0.68747,-0.0971 1.03164,-0.076 0.52022,0.0319 1.15155,0.27195 1.57033,0.58094 0.22593,0.16669 0.39822,0.39587 0.59735,0.5938 0.11925,0.23254 0.27083,0.45117 0.35777,0.69763 0.35229,0.99852 0.11496,2.08087 -0.40249,2.97147 -0.12649,0.21775 -0.28575,0.41476 -0.42859,0.62213 -0.1782,0.19805 -0.34185,0.41021 -0.53457,0.59416 -0.79359,0.75753 -1.84428,1.2963 -2.93031,1.46969 -0.28681,0.0458 -0.57944,0.0412 -0.86913,0.0617 -0.71972,-0.0878 -0.95282,-0.0587 -1.61655,-0.36315 -0.93478,-0.42884 -1.56321,-1.22075 -1.94226,-2.15581 -0.0629,-0.22485 -0.14404,-0.44537 -0.18872,-0.67453 -0.21813,-1.11889 0.0327,-2.23637 0.60113,-3.20976 0.1274,-0.17976 0.2431,-0.36841 0.38222,-0.53928 0.7072,-0.86873 1.66071,-1.45098 2.76407,-1.64829 0.2217,-0.0123 0.44318,-0.0448 0.66509,-0.037 0.98514,0.0345 1.88952,0.49374 2.62628,1.1217 0.94604,0.87327 -0.28896,2.2112 -1.235,1.33792 z"
       id="path4736"
       style="fill:#f2f2f2;fill-opacity:0.94117647;stroke:none;stroke-width:1;stroke-miterlimit:4;stroke-dasharray:none;stroke-opacity:1" />
    <path
       inkscape:connector-curvature="0"
       d="m 195.9416,-124.46929 c 0.21066,2.21735 0.42431,4.43427 0.6636,6.64875 0.27803,2.25414 0.57182,4.5064 0.86368,6.75882 0.10076,0.99119 0.29692,0.99129 -1.76511,0.41864 -0.11912,-0.0331 -0.006,-0.24716 -0.009,-0.37075 -0.01,-0.4422 -0.0103,-0.54192 -0.0177,-0.99689 0.005,-1.10088 -0.10102,-2.19842 -0.23995,-3.2893 -0.16963,-1.23158 -0.36976,-2.45861 -0.54965,-3.68862 -0.17594,-1.21744 -0.24497,-2.44449 -0.18735,-3.67272 0.0613,-0.69758 0.16055,-1.40914 0.51959,-2.02455 0.068,-0.11666 0.15155,-0.2236 0.22733,-0.33539 0.47937,-0.58523 1.13059,-0.98268 1.87635,-1.12691 0.17629,-0.0341 0.35665,-0.042 0.53498,-0.0631 0.98703,-0.0124 1.95742,0.24462 2.81501,0.73449 0.16674,0.0952 0.32287,0.20797 0.4843,0.31196 0.64849,0.51301 1.50571,1.2584 1.48052,2.17897 -0.007,0.23788 -0.0987,0.46559 -0.14808,0.69839 -0.1501,0.20396 -0.2739,0.43021 -0.45032,0.61189 -0.16423,0.16911 -0.36444,0.30054 -0.56145,0.43001 -0.83222,0.54693 -1.79004,0.80643 -2.74497,1.03948 -0.25181,0.0236 -0.50364,0.0472 -0.75544,0.0707 -1.28355,0.10075 -1.42603,-1.71446 -0.14248,-1.8152 v 0 c 0.15698,-0.009 0.31396,-0.017 0.47096,-0.0255 0.57184,-0.13602 1.13845,-0.27417 1.67613,-0.5191 0.14902,-0.0679 0.29147,-0.14953 0.43424,-0.22968 0.09,-0.0505 0.16915,-0.12067 0.26363,-0.16205 0.0269,-0.0118 0.0584,0.005 0.0876,0.008 0.0201,0.0306 0.10514,0.1869 0.10824,0.082 0.008,-0.26638 -0.54391,-0.69611 -0.71874,-0.8466 -0.63553,-0.43073 -1.33726,-0.73609 -2.11709,-0.75627 -0.43482,0.0292 -0.79952,0.10106 -1.10922,0.43309 -0.31961,0.39702 -0.36681,0.90105 -0.41245,1.39429 -0.0572,1.11036 0.0148,2.21963 0.17041,3.32038 0.18116,1.24138 0.38383,2.47961 0.55428,3.72262 0.14637,1.15741 0.25794,2.32167 0.25421,3.48955 0.007,0.44586 0.008,0.5496 0.0175,0.98291 0.003,0.12356 0.12351,0.32477 0.009,0.37065 -1.95519,0.78172 -1.75566,0.8188 -1.86086,-0.14161 -0.2935,-2.26521 -0.58915,-4.53022 -0.86823,-6.79723 -0.24003,-2.22213 -0.45461,-4.44668 -0.66593,-6.67169 -0.12205,-1.28169 1.69053,-1.45431 1.81258,-0.17262 z"
       id="path4738"
       style="fill:#f2f2f2;fill-opacity:0.94117647;stroke:none;stroke-width:1;stroke-miterlimit:4;stroke-dasharray:none;stroke-opacity:1" />
    <path
       inkscape:connector-curvature="0"
       d="m 203.49323,-135.83521 c 0.0573,0.17246 0.12068,0.34302 0.17188,0.51738 0.27662,0.94164 0.48299,1.90535 0.69426,2.86293 0.31041,1.40713 0.26874,1.22774 0.57388,2.68223 0.50814,2.31643 0.92991,4.64964 1.2332,7.00156 0.0209,0.2314 0.0736,0.7423 0.0779,1.01004 0.003,0.0984 0.0857,0.28404 -0.0122,0.29514 -0.60548,0.0687 -1.21735,-0.0577 -1.82602,-0.0866 -0.12372,-1.28153 1.68862,-1.45651 1.81236,-0.17498 v 0 c -4.35903,0.35483 -1.78024,0.73465 -1.7921,0.0687 -0.004,-0.24662 -0.0465,-0.6603 -0.0658,-0.87962 -0.2966,-2.30465 -0.71154,-4.59058 -1.20933,-6.86039 -0.30872,-1.47185 -0.25501,-1.23488 -0.56912,-2.66012 -0.19791,-0.89803 -0.38955,-1.80306 -0.64569,-2.68707 -0.0439,-0.15163 -0.0987,-0.2999 -0.14806,-0.44985 -0.45207,-1.20551 1.25278,-1.84483 1.70484,-0.63932 z"
       id="path4740"
       style="fill:#f2f2f2;fill-opacity:0.94117647;stroke:none;stroke-width:1;stroke-miterlimit:4;stroke-dasharray:none;stroke-opacity:1" />
    <path
       inkscape:connector-curvature="0"
       d="m 209.18006,-128.83719 c -1.16502,0.22374 -2.31355,0.51831 -3.44263,0.88098 -0.36478,0.10722 -0.71975,0.24185 -1.06773,0.39391 -1.18194,0.51052 -1.90394,-1.16101 -0.72199,-1.67153 v 0 c 0.40351,-0.1728 0.81243,-0.33211 1.23407,-0.45631 1.21327,-0.388 2.44679,-0.70613 3.69893,-0.94306 1.26997,-0.21167 1.56932,1.58435 0.29935,1.79601 z"
       id="path4742"
       style="fill:#f2f2f2;fill-opacity:0.94117647;stroke:none;stroke-width:1;stroke-miterlimit:4;stroke-dasharray:none;stroke-opacity:1" />
    <path
       inkscape:connector-curvature="0"
       d="m 211.68042,-125.95542 c 0.20111,0.93723 0.3664,1.8819 0.5715,2.81825 0.0111,0.0473 0.11576,0.49654 0.13981,0.57708 0.0646,0.21621 0.64868,0.72364 -0.45297,-0.44075 1.20372,0.45683 0.55766,2.15915 -0.64606,1.70233 v 0 c -0.19037,-0.18228 -0.40473,-0.34242 -0.5711,-0.54684 -0.1401,-0.17213 -0.16127,-0.70232 -0.24855,-0.90332 -0.20627,-0.94706 -0.37568,-1.90175 -0.57806,-2.84967 -0.25252,-1.26249 1.53291,-1.61957 1.78543,-0.35708 z"
       id="path4744"
       style="fill:#f2f2f2;fill-opacity:0.94117647;stroke:none;stroke-width:1;stroke-miterlimit:4;stroke-dasharray:none;stroke-opacity:1" />
    <path
       inkscape:connector-curvature="0"
       d="m 216.58236,-127.57091 c 0.11453,0 0.2291,0.003 0.34358,0 0.1768,-0.004 0.75907,-0.0209 0.90803,-0.11877 0.0175,-0.0115 -0.0412,0.007 -0.0618,0.0109 -0.14496,0.16122 -0.40955,0.26834 -0.43489,0.48367 -0.0384,0.32577 0.16068,0.63681 0.26638,0.94733 0.0124,0.0366 0.11874,0.0646 0.0835,0.0803 -0.0649,0.0289 -0.14081,-0.0209 -0.2118,-0.0232 -0.24995,-0.008 -0.37697,0.0206 -0.63431,0.0537 -0.64878,0.11111 -1.27439,0.3757 -1.70746,0.88905 -0.0718,0.0851 -0.1293,0.18133 -0.19394,0.272 -0.0289,0.0772 -0.0707,0.15065 -0.0867,0.23146 -0.0768,0.38644 0.39595,0.56228 0.65355,0.70203 1.43695,0.55364 3.01421,0.50362 4.52961,0.49699 0.56076,0.0249 1.12318,-0.025 1.68402,-7.9e-4 0.25739,0.0111 0.51329,0.0447 0.76994,0.0671 1.28206,0.11802 1.11516,1.93114 -0.1669,1.81312 v 0 c -0.20124,-0.0198 -0.40172,-0.0508 -0.60375,-0.0594 -0.55817,-0.0238 -1.11792,0.0254 -1.67603,8e-4 -1.55282,0.006 -3.26467,0.0445 -4.75303,-0.46063 -0.26268,-0.0891 -0.51096,-0.21615 -0.76645,-0.32423 -0.51644,-0.35549 -0.79904,-0.4689 -1.13627,-1.01905 -0.37352,-0.60935 -0.41797,-1.32769 -0.18135,-1.99289 0.0703,-0.19766 0.19121,-0.37348 0.28681,-0.56022 0.12795,-0.16127 0.24347,-0.33325 0.38383,-0.48383 0.72935,-0.78239 1.71728,-1.21713 2.76085,-1.38087 0.9811,-0.10002 2.46914,-0.24707 2.44485,1.27001 -0.004,0.25872 -0.31591,0.40987 -0.47387,0.61481 -0.0938,0.0415 -0.1846,0.0909 -0.28154,0.12456 -0.55478,0.19256 -1.16718,0.17491 -1.74479,0.18683 -1.28749,0 -1.28749,-1.82079 0,-1.82079 z"
       id="path4746"
       style="fill:#f2f2f2;fill-opacity:0.94117647;stroke:none;stroke-width:1;stroke-miterlimit:4;stroke-dasharray:none;stroke-opacity:1" />
  </g>
  <path
     inkscape:connector-curvature="0"
     style="fill:#f2f2f2;fill-opacity:0.94117647;stroke:none;stroke-width:1;stroke-miterlimit:4;stroke-dasharray:none;stroke-opacity:1"
     id="path4910"
     d="m 90.500842,91.448523 c 0.224271,1.13059 0.114567,2.28616 -0.177332,3.39402 -0.07513,0.28515 -0.17077,0.5645 -0.256156,0.84675 -0.403622,1.14143 -0.930402,2.24016 -1.554814,3.27738 -0.274735,0.45637 -0.536839,0.82675 -0.835506,1.262897 -0.47734,0.64361 -0.981747,1.31452 -1.708642,1.68705 -0.647666,0.0837 -0.290142,0.14012 -0.947071,-0.53116 -0.172037,-0.8096 0.972905,-1.0529 1.144942,-0.2433 v 0 c -0.569161,-0.37974 -0.32136,-0.41218 -0.692978,-0.28618 0.135215,-0.0332 0.273637,-0.17724 0.367273,-0.26495 0.32815,-0.30738 0.609706,-0.657937 0.870937,-1.023137 0.266515,-0.3886 0.538994,-0.77477 0.782765,-1.17845 0.581427,-0.9628 1.073771,-1.98223 1.453314,-3.041 0.373192,-1.21776 0.663506,-2.3537 0.413877,-3.63182 -0.189572,-0.80567 0.949822,-1.07377 1.139391,-0.2681 z" />
  <path
     inkscape:connector-curvature="0"
     style="fill:#f2f2f2;fill-opacity:0.94117647;stroke:none;stroke-width:1;stroke-miterlimit:4;stroke-dasharray:none;stroke-opacity:1"
     id="path4912"
     d="m 91.532262,90.433273 c 0.533347,0.93967 1.090755,1.86549 1.618469,2.80834 0.128887,0.2937 0.340315,0.5554 0.451453,0.85814 0.02979,0.0811 0.134488,0.19577 0.06748,0.25037 -0.949081,0.77337 -0.811215,0.71514 -1.352296,0.24522 -0.618971,-0.69886 -1.031671,-1.54008 -1.427493,-2.37705 -0.165661,-0.32815 -0.296865,-0.67108 -0.434901,-1.01105 -0.02556,-0.063 -0.09915,-0.30854 -0.191733,-0.34155 0.0059,0.011 0.06813,0.0783 0.01961,0.10053 -0.119899,0.0549 -0.256844,0.0616 -0.381445,0.10471 -0.129071,0.0447 -0.51449,0.22316 -0.617111,0.2696 -0.532448,0.27391 -1.041196,0.60747 -1.486403,1.00928 -0.104857,0.10314 -0.07924,0.0817 -0.195008,0.1796 -0.01246,0.0105 0.02418,-0.0219 0.03628,-0.0328 -0.559837,0.60961 -1.421955,-0.18212 -0.862118,-0.79173 v 0 c 0.07872,-0.078 0.163298,-0.14622 0.240038,-0.22708 0.537498,-0.4784 1.142534,-0.88318 1.786255,-1.20439 0.561369,-0.2521 1.348263,-0.64089 1.976834,-0.40536 0.127021,0.0476 0.232466,0.13984 0.348697,0.20977 0.06444,0.0789 0.136078,0.15239 0.193323,0.23664 0.287851,0.42363 0.355635,0.96967 0.625975,1.40374 0.334539,0.70847 0.677765,1.42122 1.177917,2.03095 0.278302,0.37028 0.07355,0.0284 -0.606999,0.81604 -0.01125,0.013 0.03525,0.0587 0.02869,0.0428 -0.04657,-0.11289 -0.18084,-0.35742 -0.224885,-0.43911 -0.06407,-0.11884 -0.129101,-0.23717 -0.193654,-0.35575 -0.519509,-0.92888 -1.069459,-1.8403 -1.59385,-2.76641 -0.433782,-0.70489 0.563092,-1.31835 0.996873,-0.61346 z" />
</svg>
