<?xml version="1.0" encoding="UTF-8" standalone="no"?>
<svg
   xmlns:dc="http://purl.org/dc/elements/1.1/"
   xmlns:cc="http://creativecommons.org/ns#"
   xmlns:rdf="http://www.w3.org/1999/02/22-rdf-syntax-ns#"
   xmlns:svg="http://www.w3.org/2000/svg"
   xmlns="http://www.w3.org/2000/svg"
   id="svg8"
   version="1.1"
   viewBox="0 0 258.82882 109.30277"
   height="109.30276mm"
   width="258.82883mm">
  <defs
     id="defs2" />
  <metadata
     id="metadata5">
    <rdf:RDF>
      <cc:Work
         rdf:about="">
        <dc:format>image/svg+xml</dc:format>
        <dc:type
           rdf:resource="http://purl.org/dc/dcmitype/StillImage" />
        <dc:title></dc:title>
      </cc:Work>
    </rdf:RDF>
  </metadata>
  <g
     transform="translate(75.4344,-64.019772)"
     id="layer1">
    <path
       id="path4518"
       d="m 69.736753,74.019772 a 10.786788,33.734375 0 0 0 -5.291591,28.983758 10.786788,33.734375 0 0 0 5.291591,28.98428 10.786788,33.734375 0 0 0 5.291593,-28.98428 10.786788,33.734375 0 0 0 -5.291593,-28.983758 z"
       style="fill:#00ffff;fill-opacity:0.94117647;stroke:none;stroke-width:2.93518806;stroke-miterlimit:4;stroke-dasharray:none;stroke-opacity:1" />
    <path
       id="rect4537"
       d="M -75.4344,81.411903 H 66.878164 L 161.37221,103.00379 66.878164,124.59568 H -75.4344 Z"
       style="fill:#ffff13;fill-opacity:0.77753781;stroke:none;stroke-width:4;stroke-miterlimit:4;stroke-dasharray:none;stroke-opacity:1" />
    <path
       d="m 161.75468,105.05735 c -0.14627,0.55847 -0.21194,1.13146 -0.28633,1.70235 -0.0707,0.50944 -0.10902,1.02294 -0.1004,1.53717 0.0199,0.74067 0.083,1.47897 0.11913,2.21891 0.06,0.87128 0.1007,1.74359 0.15267,2.61533 0.0573,0.96087 0.11773,1.92116 0.1499,2.8833 0.0225,0.98716 0.0706,1.97354 0.1265,2.95931 0.0695,1.02417 0.16416,2.04633 0.24703,3.06944 0.0949,1.2492 0.0644,2.5039 0.056,3.75555 2.6e-4,1.60898 0.0739,3.21642 0.14223,4.82354 0.0943,1.81948 0.17014,3.64003 0.29607,5.45766 0.18149,2.36809 0.38284,4.73459 0.54161,7.10435 0.14966,2.34644 0.20436,4.69704 0.19415,7.04776 -0.0117,1.22579 -0.0739,2.45003 -0.18846,3.67036 -0.0187,0.17921 -0.0346,0.3589 -0.0667,0.53631 -0.19634,0.98284 -1.58628,0.70518 -1.38995,-0.27766 v 0 c 0.0113,-0.0766 0.0375,-0.28969 0.0455,-0.39134 0.11095,-1.17826 0.17066,-2.36033 0.18224,-3.54388 0.0102,-2.31706 -0.0437,-4.634 -0.191,-6.94684 -0.15856,-2.36873 -0.36028,-4.73416 -0.54139,-7.10123 -0.12645,-1.83017 -0.20367,-3.6632 -0.29817,-5.49524 -0.0694,-1.63038 -0.14363,-3.26111 -0.14348,-4.89338 0.008,-1.21028 0.0388,-2.42359 -0.0514,-3.63158 -0.0837,-1.03448 -0.17959,-2.06799 -0.24937,-3.10357 -0.0565,-0.99677 -0.1051,-1.99416 -0.128,-2.99233 -0.0316,-0.94977 -0.0917,-1.89766 -0.14817,-2.84618 -0.0523,-0.87686 -0.0934,-1.75428 -0.1535,-2.63068 -0.0368,-0.75679 -0.10224,-1.51189 -0.12069,-2.26951 -0.006,-0.5817 0.0302,-1.16259 0.11218,-1.73888 0.0816,-0.62489 0.15668,-1.25159 0.31675,-1.86281 0.24309,-0.97234 1.61818,-0.62857 1.37509,0.34377 z"
       id="path4560"
       style="fill:#f2f2f2;fill-opacity:0.94117647;stroke:none;stroke-width:4;stroke-miterlimit:4;stroke-dasharray:none;stroke-opacity:1" />
    <path
       d="m 70.527523,133.58832 c -0.05367,0.947 -0.0047,1.89475 0.07539,2.83854 0.170055,1.22504 0.358399,2.44681 0.512537,3.67418 0.161973,1.49687 0.248976,3.0008 0.341993,4.5032 0.04641,1.16198 0.151079,2.31996 0.266477,3.47669 0.102511,0.7174 0.154171,1.43971 0.218766,2.1609 0.06041,0.60672 0.08596,1.21584 0.100335,1.82513 -2.64e-4,0.62245 -0.08096,1.24033 -0.126381,1.86023 -0.02817,0.4232 -0.0433,0.84717 -0.05304,1.27116 0.01042,0.33942 -0.100528,0.59203 -0.397406,0.78597 -0.0642,0.0419 -0.144667,0.0509 -0.216999,0.0763 -0.0492,0.005 -0.09841,0.009 -0.147613,0.0138 -1.002234,0.007 -1.012415,-1.41017 -0.01019,-1.41737 v 0 c -0.03992,0.005 -0.07983,0.009 -0.11975,0.0136 -0.18597,0.0702 -0.302398,0.0869 -0.421471,0.29284 -0.161578,0.27946 -0.0997,0.54446 -0.103613,0.20217 0.01035,-0.44776 0.02646,-0.8955 0.05648,-1.34241 0.04234,-0.57435 0.115453,-1.14673 0.122957,-1.7231 -0.01349,-0.57839 -0.03749,-1.15664 -0.09513,-1.73257 -0.06352,-0.71629 -0.115922,-1.43347 -0.217361,-2.14599 -0.11716,-1.17441 -0.223263,-2.35011 -0.270769,-3.52982 -0.09114,-1.47267 -0.17635,-2.94682 -0.333658,-4.4142 -0.156461,-1.24648 -0.350729,-2.48682 -0.518559,-3.73157 -0.08466,-1.00826 -0.135978,-2.02064 -0.07845,-3.03223 0.05268,-1.00087 1.46813,-0.92637 1.415452,0.0745 z"
       id="path4562"
       style="fill:#f2f2f2;fill-opacity:0.94117647;stroke:none;stroke-width:4;stroke-miterlimit:4;stroke-dasharray:none;stroke-opacity:1" />
    <path
       d="m 76.33092,154.57904 c 0.522121,0.0617 1.040146,0.15469 1.549765,0.28365 0.291677,0.0693 0.582369,0.14442 0.875999,0.20519 0.256667,0.0458 0.51136,0.10242 0.764918,0.16304 0.284374,0.0545 0.561509,0.13966 0.845762,0.19469 0.285369,0.0763 0.575119,0.12336 0.869074,0.14723 0.285589,0.002 0.567243,0.0479 0.850305,0.0798 0.294632,0.0531 0.590849,0.0939 0.885698,0.14559 0.266059,0.0505 0.537204,0.0559 0.805561,0.0862 0.235778,0.0349 0.472363,0.0624 0.710416,0.0746 0.254458,0.01 0.509188,0.009 0.763797,0.009 0.259919,-1e-5 0.519835,-2.6e-4 0.779751,-5.2e-4 0.269698,-1.7e-4 0.539393,-1.9e-4 0.809088,-2e-4 0.295476,-0.006 0.589489,-0.0471 0.884679,-0.0669 0.375515,-0.0262 0.750128,-0.0306 1.125067,0.002 0.357931,0.0243 0.713652,0.0674 1.070319,0.10476 0.382616,0.0218 0.762246,0.0736 1.143288,0.11242 0.275603,0.0175 0.55408,0.0488 0.830127,0.0259 0.371587,-0.0418 0.743556,-0.0671 1.11741,-0.0613 0.512913,0.0294 1.026065,0.0498 1.539692,0.0607 0.665721,0.0107 1.331556,0.0109 1.997345,0.0115 0.621276,0.005 1.241401,-0.0427 1.861897,-0.0681 0.498766,-0.0333 0.995145,-0.0967 1.490107,-0.16553 0.528585,-0.077 1.061895,-0.10925 1.593495,-0.15765 0.56635,-0.0736 1.13603,-0.0264 1.70424,-0.0313 0.52124,-0.0159 1.04237,-0.0329 1.56379,-0.0417 0.50626,-0.004 1.01163,-0.003 1.51702,-0.0344 0.53186,-0.0371 1.06473,-0.0532 1.59769,-0.0626 0.4864,-0.005 0.97112,-0.0516 1.45693,-0.0745 0.54693,-0.0367 1.09363,0.005 1.63982,0.0317 0.56196,0.0264 1.1246,0.0312 1.68706,0.035 0.61635,-0.0112 1.2313,0.0321 1.84662,0.0598 0.61478,0.0266 1.23018,0.0317 1.84543,0.0352 0.62645,0.006 1.25216,0.007 1.8779,-0.0243 0.57865,-0.0339 1.15793,-0.0526 1.73744,-0.0627 0.52646,-0.008 1.05152,-0.0525 1.57758,-0.0748 0.57966,-0.0211 1.1598,-0.0238 1.73978,-0.0259 0.51679,-0.001 1.03358,-7.9e-4 1.55037,-5.2e-4 0.49451,-0.003 0.98736,0.0465 1.48107,0.0696 0.52677,0.0211 1.05404,0.0231 1.58115,0.0251 0.56494,0.001 1.1299,7.9e-4 1.69484,5.2e-4 0.51839,0.016 1.03496,-0.0276 1.55201,-0.0562 0.51297,-0.0277 1.02673,-0.0336 1.54033,-0.0374 0.50007,-0.009 1.00071,0.011 1.50038,-0.0124 0.45781,-0.0397 0.91836,-0.0418 1.37596,-0.0816 0.40588,-0.0323 0.80965,-0.0828 1.21449,-0.12519 0.47793,-0.0763 0.9596,-0.11652 1.44265,-0.1398 0.5683,-0.0342 1.13583,-0.01 1.70335,0.0225 0.44628,0.0264 0.89313,0.0406 1.34009,0.0484 0.19304,0.003 0.38609,0.004 0.57915,0.004 0.12887,1.8e-4 0.0823,0.0114 0.14482,-0.007 0.16192,-0.039 0.32587,-0.0619 0.49171,-0.0754 0.30184,-0.0157 0.60417,-0.018 0.90584,-5.3e-4 0.40485,0.0366 0.81022,0.061 1.21468,0.10196 0.44657,0.0438 0.89186,0.10187 1.33475,0.17393 0.19381,0.003 0.48516,0.11748 0.67538,0.074 0.26246,-0.0373 0.52667,-0.0548 0.79133,-0.0662 0.40167,-0.0235 0.80338,0.01 1.20153,0.0615 0.3756,0.0578 0.75428,0.0876 1.13114,0.13543 0.35649,0.03 0.70886,0.0923 1.06443,0.13004 0.4094,0.0344 0.82064,0.0352 1.23118,0.0382 0.44718,-0.006 0.8923,0.0441 1.33813,0.0707 0.24178,0.0134 0.48381,0.0211 0.72593,0.024 0.16393,0.001 0.32787,7.9e-4 0.49181,5.3e-4 0.12368,2.6e-4 0.29056,0.001 0.38681,-0.006 0.22027,-0.0436 0.44419,-0.0634 0.66798,-0.0774 0.18096,-0.0407 0.36488,-0.0657 0.54912,-0.0859 0.65063,-0.0597 0.25367,-0.0811 -0.12646,1.27489 0.0268,0.0166 0.0536,0.0332 0.0804,0.0497 -0.98333,-0.19387 -0.70916,-1.58451 0.27417,-1.39064 v 0 c 0.10916,0.0328 0.21831,0.0656 0.32747,0.0984 -0.25295,1.4501 0.20465,1.31992 -0.40326,1.37681 -0.2063,0.022 -0.40882,0.0645 -0.61447,0.0914 -0.19076,0.0114 -0.38092,0.0305 -0.56859,0.0678 -0.19043,0.0187 -0.38009,0.021 -0.57144,0.0178 -0.17034,2.1e-4 -0.34068,7.9e-4 -0.51102,-5.3e-4 -0.26464,-0.003 -0.52919,-0.0116 -0.79345,-0.0265 -0.42103,-0.0254 -0.84143,-0.0728 -1.26367,-0.0682 -0.45757,-0.003 -0.91596,-0.005 -1.37207,-0.0463 -0.3646,-0.0396 -0.72607,-0.10153 -1.09158,-0.13321 -0.37994,-0.0483 -0.7618,-0.0779 -1.14045,-0.13665 -0.3157,-0.0442 -0.6351,-0.0684 -0.95381,-0.0503 -0.26177,0.0109 -0.5219,0.0341 -0.78197,0.0657 -0.32722,0.007 -0.65035,-0.0331 -0.9725,-0.0908 -0.41466,-0.0676 -0.83159,-0.12198 -1.24975,-0.16272 -0.38793,-0.0393 -0.77676,-0.0622 -1.16504,-0.0978 -0.23516,-0.0189 -0.4718,-0.007 -0.70739,-2.6e-4 -0.14943,0.009 -0.29276,0.05 -0.44079,0.0707 -0.30093,0.0261 -0.60283,0.0134 -0.90469,0.0114 -0.46578,-0.008 -0.93145,-0.0229 -1.39654,-0.0505 -0.51811,-0.0297 -1.03597,-0.0541 -1.55486,-0.0218 -0.45664,0.0215 -0.91136,0.0623 -1.36319,0.13377 -0.41452,0.043 -0.82796,0.0949 -1.24352,0.12792 -0.47652,0.0384 -0.9551,0.0471 -1.43179,0.0852 -0.51706,0.0214 -1.03462,0.008 -1.55203,0.0137 -0.49098,0.004 -0.98214,0.009 -1.47253,0.0353 -0.54288,0.03 -1.08538,0.0743 -1.62965,0.0584 -0.56697,2.3e-4 -1.13394,8e-4 -1.7009,-5.3e-4 -0.54751,-0.002 -1.09519,-0.004 -1.64232,-0.0267 -0.47173,-0.0223 -0.94268,-0.0687 -1.41507,-0.0681 -0.51485,-2.4e-4 -1.02969,-7.9e-4 -1.54454,5.3e-4 -0.56177,0.002 -1.12369,0.004 -1.68517,0.0247 -0.53776,0.0226 -1.07448,0.0691 -1.61272,0.0758 -0.56434,0.01 -1.12847,0.0281 -1.69197,0.0612 -0.65182,0.0321 -1.30361,0.0329 -1.95615,0.0261 -0.6338,-0.004 -1.26775,-0.009 -1.90106,-0.0366 -0.59729,-0.0269 -1.19417,-0.0697 -1.79246,-0.0583 -0.58275,-0.004 -1.16568,-0.009 -1.74789,-0.0368 -0.50069,-0.0249 -1.00176,-0.0655 -1.50315,-0.0315 -0.49959,0.0233 -0.99803,0.0719 -1.4983,0.0758 -0.51219,0.009 -1.0243,0.0243 -1.53543,0.0601 -0.52644,0.0323 -1.05281,0.0339 -1.58015,0.0368 -0.5264,0.009 -1.0525,0.0268 -1.57875,0.0419 -0.52849,0.002 -1.05801,-0.0404 -1.58475,0.0255 -0.50961,0.0464 -1.0209,0.0769 -1.52769,0.15011 -0.5403,0.0744 -1.081982,0.14417 -1.626587,0.17773 -0.640204,0.0261 -1.280017,0.0751 -1.921063,0.0693 -0.675439,-5.3e-4 -1.350922,-7.9e-4 -2.02629,-0.0118 -0.514075,-0.011 -1.027779,-0.0302 -1.541089,-0.0608 -0.334428,-0.0111 -0.666877,0.0288 -0.999554,0.059 -0.353666,0.0179 -0.707623,0.002 -1.060214,-0.0306 -0.382548,-0.0391 -0.763617,-0.0909 -1.147763,-0.11288 -0.349498,-0.037 -0.697941,-0.0794 -1.048779,-0.10265 -0.301265,-0.0278 -0.602078,-0.0196 -0.904031,2.1e-4 -0.326475,0.0215 -0.651433,0.069 -0.978794,0.0701 -0.269391,1e-5 -0.538782,3e-5 -0.808173,2e-4 -0.260741,1.8e-4 -0.521483,5.3e-4 -0.782227,5.3e-4 -0.279244,-2.7e-4 -0.558633,5.3e-4 -0.837684,-0.0114 -0.27014,-0.0148 -0.539081,-0.0427 -0.806667,-0.083 -0.291322,-0.0409 -0.589807,-0.0321 -0.878613,-0.0971 -0.266559,-0.0467 -0.534617,-0.0819 -0.800393,-0.1333 -0.269431,-0.0306 -0.536808,-0.0747 -0.808805,-0.0757 -0.346467,-0.0295 -0.690017,-0.0797 -1.026626,-0.16933 -0.302016,-0.0608 -0.597974,-0.14571 -0.899919,-0.20652 -0.240654,-0.0575 -0.482296,-0.11131 -0.726017,-0.15432 -0.313846,-0.0664 -0.625255,-0.1443 -0.937096,-0.2194 -0.454649,-0.11842 -0.919231,-0.19478 -1.385326,-0.25174 -0.993471,-0.13246 -0.806141,-1.53744 0.18733,-1.40498 z"
       id="path4588"
       style="fill:#f2f2f2;fill-opacity:0.94117647;stroke:none;stroke-width:4;stroke-miterlimit:4;stroke-dasharray:none;stroke-opacity:1" />
    <path
       d="m 153.92032,149.76903 c 0.76382,0.32905 1.50238,0.71304 2.23449,1.10662 0.7245,0.37221 1.36961,0.87 1.99772,1.38331 0.46085,0.38078 0.90003,0.78774 1.36977,1.15762 0.34333,0.27268 0.70621,0.51919 1.03427,0.81064 0.13683,0.10372 0.24962,0.23468 0.37853,0.34655 0.12656,0.12267 0.21658,0.27111 0.27767,0.43495 0.0528,0.19015 0.14718,0.43107 -0.22866,-0.31213 -0.0162,-0.032 0.0559,0.0451 0.0825,0.0691 0.0339,0.0304 0.056,0.0567 0.0856,0.0897 0.1924,0.22182 0.12117,0.33211 0.15895,0.72581 -0.10105,0.31487 -0.2814,0.60086 -0.45382,0.88094 -0.35689,0.51485 -0.74068,1.01172 -1.15331,1.48302 -0.43912,0.53522 -0.97247,0.97439 -1.51058,1.40444 -0.47823,0.38024 -0.98043,0.72805 -1.48762,1.06809 -0.33914,0.23396 -0.68024,0.46514 -1.00386,0.72044 -0.0813,0.0664 -0.16329,0.13213 -0.24026,0.20352 -0.73032,0.68641 -1.70106,-0.34642 -0.97073,-1.03283 v 0 c 0.10713,-0.1 0.22082,-0.19268 0.33471,-0.28478 0.35256,-0.27663 0.72143,-0.53065 1.09105,-0.7838 0.47447,-0.31783 0.94445,-0.64259 1.39191,-0.99796 0.4735,-0.37829 0.94673,-0.76001 1.33104,-1.23319 0.36294,-0.41035 0.69409,-0.84817 1.01279,-1.29353 0.1052,-0.1683 0.21376,-0.3415 0.29483,-0.52029 0.0346,0.22915 -0.008,0.42843 0.13389,0.58856 0.2759,0.28624 -0.33967,-0.6529 -0.20641,-0.30719 0.0232,0.0589 0.0553,0.10552 0.1065,0.14562 -0.13046,-0.1203 -0.21022,-0.21103 -0.37395,-0.34241 -0.2991,-0.27703 -0.65243,-0.48852 -0.96374,-0.75108 -0.47503,-0.37631 -0.92346,-0.78459 -1.3887,-1.17284 -0.55717,-0.45649 -1.1275,-0.9023 -1.7715,-1.23198 -0.6892,-0.37083 -1.38438,-0.73278 -2.1028,-1.04429 -0.92676,-0.38161 -0.38708,-1.69226 0.53968,-1.31065 z"
       id="path4590"
       style="fill:#f2f2f2;fill-opacity:0.94117647;stroke:none;stroke-width:4;stroke-miterlimit:4;stroke-dasharray:none;stroke-opacity:1" />
    <path
       d="m 81.925503,148.70872 c -0.529728,0.20948 -1.038368,0.46669 -1.524656,0.76243 -0.319413,0.19929 -0.614606,0.43598 -0.89244,0.68943 -0.286189,0.24784 -0.541742,0.52858 -0.803891,0.80115 -0.260909,0.25731 -0.52672,0.50983 -0.781839,0.77292 -0.182822,0.20794 -0.377335,0.40789 -0.547259,0.62684 -0.171304,0.21253 -0.320799,0.44075 -0.486968,0.65716 -0.178951,0.22682 -0.379979,0.43468 -0.581729,0.641 -0.152627,0.18587 -0.308308,0.36894 -0.469902,0.54708 -0.172987,0.18844 -0.324872,0.39333 -0.502637,0.57774 -0.129974,0.11955 -0.265496,0.23307 -0.399537,0.34812 -0.129926,0.11151 -0.08974,0.0524 -0.132024,0.1204 -0.151186,0.1902 -0.309139,0.37458 -0.472279,0.55457 -0.13512,0.15889 -0.317122,0.27566 -0.453184,0.43269 -0.107881,0.14629 -0.226702,0.28181 -0.36318,0.40603 -0.112133,0.1027 -0.241556,0.18459 -0.374499,0.25743 -0.141798,0.0714 -0.293521,0.10137 -0.450376,0.1053 -0.567148,-0.007 -0.172559,-0.27539 0.14511,-1.40386 0.01206,-0.0429 0.08823,0.0128 0.131591,0.023 0.05541,0.013 0.109556,0.0308 0.164333,0.0462 0.38759,0.13516 0.73312,0.36306 1.071541,0.59062 0.495273,0.33743 0.958239,0.7186 1.431806,1.08507 0.526595,0.40071 1.01872,0.84337 1.50056,1.29611 0.412332,0.36769 0.797515,0.76425 1.184834,1.15778 0.288009,0.29231 0.561295,0.59999 0.821936,0.91694 0.249735,0.31379 0.490545,0.63483 0.730533,0.95629 0.121793,0.16635 0.245808,0.33114 0.361365,0.50193 0.558369,0.83231 -0.618704,1.62197 -1.177073,0.78965 v 0 c -0.10056,-0.15231 -0.214598,-0.29537 -0.320368,-0.44401 -0.227121,-0.30465 -0.455086,-0.6089 -0.691449,-0.90627 -0.231444,-0.2848 -0.478687,-0.55797 -0.735161,-0.82029 -0.374425,-0.38044 -0.746439,-0.76417 -1.145407,-1.11925 -0.448686,-0.42194 -0.906614,-0.83492 -1.39735,-1.20801 -0.449405,-0.34792 -0.88864,-0.70991 -1.357762,-1.03148 -0.222869,-0.15152 -0.449209,-0.30441 -0.697518,-0.41118 -0.0099,-0.008 -0.03547,-0.002 -0.03498,-0.0146 0.03555,-0.92793 0.546142,-1.42175 -0.0029,-1.42198 -0.07465,0.003 -0.142187,0.0293 -0.208111,0.0656 0.05596,-0.0286 0.105244,-0.0594 0.149329,-0.10598 -0.009,0.0115 -0.01932,0.0221 -0.02696,0.0345 -0.0024,0.004 0.0078,-0.004 0.01048,-0.008 0.02527,-0.032 0.0481,-0.0658 0.0731,-0.098 0.06304,-0.0811 0.125561,-0.16371 0.198684,-0.23639 0.134577,-0.13229 0.275262,-0.25805 0.411456,-0.38865 0.170952,-0.18805 0.331219,-0.38479 0.495006,-0.57902 0.174498,-0.17366 0.362334,-0.33183 0.551503,-0.48907 0.171929,-0.15997 0.288563,-0.37221 0.460327,-0.53313 0.173638,-0.19088 0.33577,-0.39128 0.505868,-0.58523 0.163002,-0.16658 0.326366,-0.33352 0.472517,-0.51538 0.170865,-0.22032 0.320955,-0.4559 0.498181,-0.67151 0.203163,-0.25361 0.423936,-0.4933 0.641583,-0.73435 0.25387,-0.26119 0.517072,-0.5132 0.777187,-0.76811 0.285361,-0.29669 0.564626,-0.60103 0.876006,-0.87099 0.346686,-0.31039 0.708972,-0.60561 1.106765,-0.8489 0.553498,-0.33504 1.131126,-0.62857 1.733389,-0.86659 0.930577,-0.37223 1.456989,0.9438 0.526412,1.31603 z"
       id="path4594"
       style="fill:#f2f2f2;fill-opacity:0.94117647;stroke:none;stroke-width:4;stroke-miterlimit:4;stroke-dasharray:none;stroke-opacity:1" />
    <path
       d="m 124.6622,138.03451 c -0.19863,-0.47149 -0.45941,-0.92162 -0.76372,-1.33322 -0.22507,-0.30443 -0.39184,-0.46735 -0.65149,-0.74669 -0.48444,-0.47695 -1.01142,-0.91522 -1.59005,-1.27414 -0.32656,-0.20257 -0.4283,-0.24233 -0.76769,-0.40875 -0.41437,-0.17504 -0.85227,-0.31452 -1.30681,-0.31479 -0.23614,-1.4e-4 -0.31577,0.0269 -0.54516,0.0718 -0.55727,0.15552 -0.94962,0.55686 -1.29951,0.99586 -0.35204,0.47919 -0.41936,0.98271 -0.42936,1.55964 0.0334,0.83911 0.3474,1.618 0.67087,2.38046 0.42336,0.99907 0.94092,1.95385 1.44964,2.91104 0.48656,0.87622 0.89905,1.78599 1.24648,2.72521 0.2672,0.71001 0.44612,1.44533 0.59418,2.18774 0.164,0.74069 0.15892,1.40265 0.0481,2.14816 -0.11525,0.73051 -0.35426,1.31316 -0.74305,1.93691 -0.40743,0.61266 -0.96316,1.09502 -1.59624,1.4645 -0.1461,0.0853 -0.29885,0.15859 -0.44828,0.23788 -0.65345,0.31307 -1.35278,0.50859 -2.07526,0.56851 -0.42824,0.0355 -0.57527,0.0171 -0.99715,1.8e-4 -0.45502,-0.0402 -0.90225,-0.12962 -1.35862,-0.15249 -1.00066,-0.0566 -0.92062,-1.47175 0.08,-1.41515 v 0 c 0.45041,0.0276 0.8941,0.0952 1.34158,0.15163 0.84835,0.0425 1.57274,-0.0355 2.35096,-0.40786 0.58231,-0.30091 1.13832,-0.64576 1.50566,-1.20581 0.27687,-0.42637 0.4632,-0.88682 0.53925,-1.39265 0.0882,-0.55539 0.0936,-1.10536 -0.0371,-1.6569 -0.13323,-0.66966 -0.29201,-1.33329 -0.53371,-1.97359 -0.32441,-0.87993 -0.71235,-1.73079 -1.1685,-2.55111 -0.52825,-0.9941 -1.06455,-1.9862 -1.50345,-3.02409 -0.4007,-0.95011 -0.76694,-1.92465 -0.78232,-2.9705 0.005,-0.14735 0.003,-0.29507 0.0148,-0.44203 0.0568,-0.71911 0.29997,-1.3942 0.73175,-1.9739 0.61158,-0.74178 1.19652,-1.25726 2.15513,-1.49787 0.14795,-0.024 0.29468,-0.0574 0.44386,-0.072 0.7896,-0.0772 1.563,0.12428 2.28073,0.4408 0.41408,0.20634 0.5302,0.25186 0.92802,0.50157 0.67072,0.42102 1.2828,0.93131 1.84246,1.49008 0.13787,0.15008 0.28104,0.29545 0.4136,0.45024 0.53457,0.62421 0.97334,1.33444 1.28753,2.09367 0.35192,0.93845 -0.97525,1.43613 -1.32717,0.49769 z"
       id="path4598"
       style="fill:#f2f2f2;fill-opacity:0.94117647;stroke:none;stroke-width:4;stroke-miterlimit:4;stroke-dasharray:none;stroke-opacity:1" />
    <path
       d="m 122.86429,145.65559 c -1.03207,-0.0809 -2.06022,-0.0142 -3.08464,0.11488 -1.0828,0.16215 -2.16051,0.35615 -3.24378,0.5154 -0.19872,0.0369 -0.40103,0.049 -0.60043,0.0811 -0.0354,0.006 -0.13232,0.0477 -0.10488,0.0245 0.14385,-0.12136 0.30763,-0.2169 0.46145,-0.32535 -0.44546,0.89782 -1.71518,0.26784 -1.26972,-0.62998 v 0 c 0.17132,-0.14373 0.32653,-0.30921 0.51396,-0.43119 0.1147,-0.0746 0.66484,-0.0692 0.79363,-0.12144 1.09339,-0.16046 2.18089,-0.3578 3.27406,-0.51951 1.10625,-0.1371 2.21686,-0.20982 3.33113,-0.12404 1.00101,0.05 0.93023,1.46569 -0.0708,1.41564 z"
       id="path4600"
       style="fill:#f2f2f2;fill-opacity:0.94117647;stroke:none;stroke-width:4;stroke-miterlimit:4;stroke-dasharray:none;stroke-opacity:1" />
  </g>
</svg>
