<?xml version="1.0" encoding="UTF-8" standalone="no"?>
<svg
   id="svg8545"
   version="1.1"
   viewBox="0 0 743.53052 417.23734"
   height="417.23734mm"
   width="743.53052mm"
   sodipodi:docname="iso_detail.svg"
   inkscape:version="1.2.2 (b0a8486541, 2022-12-01)"
   xmlns:inkscape="http://www.inkscape.org/namespaces/inkscape"
   xmlns:sodipodi="http://sodipodi.sourceforge.net/DTD/sodipodi-0.dtd"
   xmlns:xlink="http://www.w3.org/1999/xlink"
   xmlns="http://www.w3.org/2000/svg"
   xmlns:svg="http://www.w3.org/2000/svg"
   xmlns:rdf="http://www.w3.org/1999/02/22-rdf-syntax-ns#"
   xmlns:cc="http://creativecommons.org/ns#"
   xmlns:dc="http://purl.org/dc/elements/1.1/">
  <sodipodi:namedview
     id="namedview346"
     pagecolor="#ffffff"
     bordercolor="#666666"
     borderopacity="1.0"
     inkscape:showpageshadow="2"
     inkscape:pageopacity="0.0"
     inkscape:pagecheckerboard="0"
     inkscape:deskcolor="#d1d1d1"
     inkscape:document-units="mm"
     showgrid="false"
     inkscape:zoom="0.65125304"
     inkscape:cx="1405.7516"
     inkscape:cy="1157.0004"
     inkscape:window-width="3840"
     inkscape:window-height="2083"
     inkscape:window-x="0"
     inkscape:window-y="40"
     inkscape:window-maximized="1"
     inkscape:current-layer="svg8545" />
  <defs
     id="defs8539" />
  <metadata
     id="metadata8542">
    <rdf:RDF>
      <cc:Work
         rdf:about="">
        <dc:format>image/svg+xml</dc:format>
        <dc:type
           rdf:resource="http://purl.org/dc/dcmitype/StillImage" />
        <dc:title />
      </cc:Work>
    </rdf:RDF>
  </metadata>
  <path
     d="m 308.87484,74.52933 c 0.99079,2.664814 1.53596,5.471009 2.12852,8.244131 0.80444,3.700393 1.55837,7.411331 2.22422,11.139191 0.0832,0.540758 0.19611,1.175692 0.23641,1.73405 0.0103,0.143624 0.14838,0.434533 0.004,0.431966 -0.93533,-0.01667 -1.84327,-0.320757 -2.76492,-0.481134 -0.36661,-1.834618 2.22795,-2.353074 2.59453,-0.518456 v 0 c -2.97334,1.163389 -2.32228,1.775444 -2.52654,0.26825 -0.0439,-0.323985 -0.099,-0.646353 -0.14851,-0.969531 -0.6604,-3.69861 -1.40903,-7.380271 -2.20704,-11.051611 -0.56267,-2.634803 -1.07524,-5.302885 -2.007,-7.837882 -0.6781,-1.743675 1.78784,-2.702647 2.46594,-0.958974 z"
     id="path9147"
     style="fill:#f2f2f2;fill-opacity:0.941176;stroke:none;stroke-width:1;stroke-miterlimit:4;stroke-dasharray:none;stroke-opacity:1" />
  <path
     d="m 321.70782,90.206413 c -3.63979,1.601542 -7.23447,3.302538 -10.85167,4.953979 -3.83514,1.725293 -7.63146,3.574365 -11.61642,4.939278 -0.54206,0.18566 -1.09295,0.34451 -1.63939,0.51676 -0.47858,0.0493 -0.95713,0.0985 -1.43568,0.14775 -1.865,0.14842 -2.07489,-2.489078 -0.2099,-2.637499 v 0 c 0.28406,-0.01143 0.56812,-0.02289 0.85217,-0.03432 0.5084,-0.15933 1.02103,-0.305755 1.52522,-0.477989 3.92084,-1.339384 7.6517,-3.166869 11.42516,-4.860837 3.61855,-1.651979 7.2145,-3.353753 10.85567,-4.955797 1.70317,-0.774176 2.79805,1.634501 1.09484,2.408679 z"
     id="path9149"
     style="fill:#f2f2f2;fill-opacity:0.941176;stroke:none;stroke-width:1;stroke-miterlimit:4;stroke-dasharray:none;stroke-opacity:1" />
  <path
     d="m 314.84784,71.956072 c -2.9967,0.213262 -5.93669,0.921988 -8.85039,1.619745 -3.30618,0.832717 -6.59781,1.782209 -9.69886,3.21433 -0.14412,0.09559 -0.28824,0.191182 -0.43238,0.286771 -1.58179,0.999096 -2.99471,-1.237879 -1.41293,-2.236973 v 0 c 0.24659,-0.15119 0.49316,-0.302381 0.73975,-0.453572 3.26276,-1.495192 6.7107,-2.518439 10.18881,-3.38378 3.11436,-0.744297 6.25962,-1.501505 9.466,-1.692354 1.87087,0 1.87087,2.645833 0,2.645833 z"
     id="path9151"
     style="fill:#f2f2f2;fill-opacity:0.941176;stroke:none;stroke-width:1;stroke-miterlimit:4;stroke-dasharray:none;stroke-opacity:1" />
  <path
     d="m 327.09114,73.758003 c -1.54434,-0.219133 -3.08009,0.08646 -4.5594,0.514451 -0.19894,0.06594 -1.75607,0.611015 -1.65458,0.9588 0.0238,0.082 0.16656,-0.05249 0.23358,-0.105455 1.23526,1.420746 2.85234,2.418484 4.42888,3.414077 1.67037,1.016593 3.42469,1.883392 5.12628,2.844438 0.32004,0.180755 0.64516,0.353901 0.95284,0.554942 0.27456,0.17939 0.52758,0.389776 0.79135,0.584663 0.21468,0.266949 0.50326,0.488548 0.64405,0.800846 0.41275,0.915652 0.35033,1.579571 -0.11346,2.458252 -0.59907,1.134922 -1.91783,1.928976 -2.94568,2.602796 -1.63103,0.937665 -3.3714,1.774865 -5.23325,2.135526 -0.39733,0.07697 -0.80105,0.171291 -1.20512,0.148029 -0.4417,-0.02543 -0.86318,-0.194633 -1.29477,-0.291946 -1.78239,-0.568558 -0.97835,-3.089257 0.80407,-2.520702 v 0 c 0.3801,0.356881 0.176,0.257347 1.04198,0.100852 1.58491,-0.28642 3.06258,-1.010219 4.45185,-1.794484 0.30607,-0.193781 0.62212,-0.372671 0.91824,-0.581348 0.23865,-0.168164 0.46006,-0.35973 0.68363,-0.54746 0.12586,-0.105674 0.22453,-0.245668 0.36415,-0.33233 0.12009,-0.07453 0.31435,0.114292 0.36938,0.152292 0.0675,-0.03663 -0.0514,-0.144703 -0.0771,-0.217056 -0.17724,-0.137359 -0.34414,-0.289243 -0.53176,-0.412078 -0.38526,-0.252251 -1.68709,-0.960202 -2.02398,-1.143476 -1.38697,-0.754526 -2.78908,-1.483048 -4.13766,-2.30604 -1.63282,-1.035428 -4.09951,-2.519863 -5.15292,-4.183353 -0.18923,-0.29881 -0.30496,-0.638263 -0.45741,-0.957393 -0.0254,-0.375311 -0.12869,-0.753472 -0.076,-1.125937 0.23,-1.627513 2.04391,-2.315411 3.3683,-2.780987 1.89111,-0.532207 3.77701,-0.874845 5.74435,-0.57549 1.8424,0.32513 1.3826,2.930705 -0.45982,2.605571 z"
     id="path9153"
     style="fill:#f2f2f2;fill-opacity:0.941176;stroke:none;stroke-width:1;stroke-miterlimit:4;stroke-dasharray:none;stroke-opacity:1" />
  <path
     d="m 342.99636,74.638362 c -1.55274,-0.275029 -3.20982,-0.27885 -4.71845,0.236043 -0.30303,0.103415 -0.58677,0.2564 -0.88016,0.384598 -0.8454,0.540001 -1.51059,1.190445 -1.51919,2.26473 -0.004,0.53675 0.14428,0.712502 0.36563,1.188474 0.15608,0.188802 0.2902,0.398145 0.46823,0.566402 1.02735,0.970986 2.49865,1.326295 3.87996,1.282163 0.43368,-0.01387 0.86169,-0.102908 1.29254,-0.154364 1.2631,-0.286954 2.48285,-0.764138 3.45805,-1.645015 0.41709,-0.376729 0.83794,-0.89009 0.95189,-1.466379 0.0328,-0.165735 -0.0369,-0.335872 -0.0553,-0.503809 -0.40581,-0.399005 -0.14456,-0.278114 -0.83767,-0.210124 -1.66227,-0.858536 -0.44812,-3.209338 1.21415,-2.350802 v 0 c 2.22089,1.578531 1.57663,0.574816 2.26081,2.773344 -0.0715,0.490913 -0.0578,1.002051 -0.21452,1.472737 -0.67498,2.027164 -2.87195,3.442467 -4.77941,4.112729 -0.56147,0.197291 -1.15194,0.299555 -1.72791,0.449333 -0.59026,0.05333 -1.17811,0.159504 -1.77078,0.159983 -2.13945,0.0019 -4.37608,-0.728564 -5.81927,-2.374212 -0.31838,-0.363032 -0.53721,-0.802507 -0.80582,-1.203761 -0.14332,-0.445688 -0.35168,-0.875491 -0.42997,-1.337064 -0.30724,-1.811115 0.51437,-3.602924 1.91301,-4.737497 0.34923,-0.283268 0.75703,-0.485447 1.13554,-0.728173 0.42178,-0.170609 0.83183,-0.37361 1.26532,-0.511828 1.92984,-0.615366 4.02288,-0.61249 5.99504,-0.234342 1.81501,0.453755 1.17332,3.020592 -0.64173,2.566834 z"
     id="path9155"
     style="fill:#f2f2f2;fill-opacity:0.941176;stroke:none;stroke-width:1;stroke-miterlimit:4;stroke-dasharray:none;stroke-opacity:1" />
  <path
     d="m 358.38214,79.602625 c 1.14237,-1.877258 1.6387,-4.053911 2.09159,-6.179256 0.24362,-1.206659 0.37391,-2.430235 0.51757,-3.651181 0.0306,-0.259673 0.13452,-1.203172 0.2245,-1.513226 0.0629,-0.216726 0.1692,-0.418431 0.25382,-0.627645 0.53864,-0.227602 1.03256,-0.722855 1.61597,-0.682807 0.76274,0.05236 1.30577,1.169286 1.5861,1.731002 0.53887,1.07987 0.94861,2.227572 1.39197,3.348132 0.46556,1.177478 0.89995,2.366907 1.32463,3.559612 0.38156,1.071573 0.15344,0.64067 0.53542,1.273786 0.89725,1.641689 -1.42444,2.910604 -2.3217,1.268915 v 0 c -0.12745,-0.24516 -0.27384,-0.481364 -0.38232,-0.735475 -0.12668,-0.296646 -0.21328,-0.608849 -0.32144,-0.912728 -0.41516,-1.166265 -0.8396,-2.329402 -1.29487,-3.480731 -0.4096,-1.035355 -0.80545,-2.074858 -1.27162,-3.086508 -0.0756,-0.164023 -0.35393,-0.350491 -0.23632,-0.48755 0.40259,-0.469173 1.91312,2.02715 1.74648,-0.624118 -0.0803,-0.218712 -0.0346,-0.128648 -0.11811,0.434287 -0.16203,1.092033 -0.24391,2.193094 -0.41346,3.284786 -0.0756,0.486577 -0.16637,0.970661 -0.24955,1.455992 -0.53126,2.465141 -1.13589,4.975984 -2.50328,7.130748 -1.06492,1.538229 -3.24033,0.0322 -2.17538,-1.506035 z"
     id="path9157"
     style="fill:#f2f2f2;fill-opacity:0.941176;stroke:none;stroke-width:1;stroke-miterlimit:4;stroke-dasharray:none;stroke-opacity:1" />
  <path
     d="m 373.36769,70.163395 c -0.0975,-0.05613 -0.18698,-0.129381 -0.2925,-0.168396 -0.62298,-0.230347 -1.36366,0.0069 -1.87798,0.376743 -0.18103,0.130196 -0.32967,0.300378 -0.49451,0.450569 -0.67056,0.787686 -1.15726,1.759829 -1.09024,2.822866 0.0399,0.632651 0.16349,0.764111 0.42304,1.323771 0.1501,0.186211 0.27911,0.3916 0.4503,0.558634 0.79367,0.774403 1.92836,1.094636 3.01773,1.031864 0.3057,-0.01762 0.60515,-0.09391 0.90773,-0.140872 0.28953,-0.107135 0.59029,-0.187738 0.86855,-0.321403 1.03481,-0.497064 1.99935,-1.376968 2.31063,-2.517875 0.0591,-0.216495 0.049,-0.446133 0.0736,-0.669198 -0.0433,-0.187319 -0.0519,-0.386217 -0.12989,-0.561953 -0.10025,-0.225949 -0.48733,-0.648962 -0.73356,-0.716436 -0.18801,-0.05152 -0.38925,0.02223 -0.58388,0.03332 -1.8157,-0.451019 -1.17787,-3.018819 0.63783,-2.5678 v 0 c 0.5901,0.206034 1.23405,0.297035 1.7703,0.618099 0.73047,0.437316 1.33213,1.518197 1.53491,2.306137 0.11295,0.438872 0.0724,0.903449 0.10866,1.355172 -0.0949,0.443677 -0.13425,0.903002 -0.28477,1.331026 -0.62524,1.778056 -2.15114,3.16951 -3.85638,3.895976 -0.44495,0.189553 -0.92178,0.293132 -1.38269,0.439701 -1.24187,0.135366 -1.59311,0.2677 -2.83445,0.03092 -1.36965,-0.26125 -2.65227,-0.942758 -3.57241,-2.002012 -0.29694,-0.341858 -0.50713,-0.75034 -0.7607,-1.125509 -0.15169,-0.416269 -0.35404,-0.817425 -0.45503,-1.248801 -0.40058,-1.710918 0.0727,-3.533609 1.07153,-4.951929 0.2485,-0.352853 0.56349,-0.653835 0.84522,-0.980755 0.34721,-0.264011 0.66526,-0.571563 1.04161,-0.792032 1.37572,-0.805903 3.05429,-0.915274 4.47577,-0.170815 0.2481,0.129942 0.455,0.326736 0.68249,0.490103 1.32292,1.322917 -0.54795,3.193804 -1.87087,1.870887 z"
     id="path9159"
     style="fill:#f2f2f2;fill-opacity:0.941176;stroke:none;stroke-width:1;stroke-miterlimit:4;stroke-dasharray:none;stroke-opacity:1" />
  <path
     d="m 386.66308,69.461115 c -0.63563,-0.726745 -1.61983,-1.046221 -2.57394,-0.92913 -0.25469,0.03125 -0.50073,0.112348 -0.7511,0.168521 -0.23358,0.115486 -0.48244,0.204113 -0.7007,0.346454 -0.93459,0.609578 -1.50537,1.638916 -1.61033,2.740284 -0.0269,0.281863 0.006,0.566253 0.008,0.849379 0.0678,0.273319 0.10253,0.557014 0.20333,0.819956 0.39426,1.028576 1.33702,1.866443 2.39628,2.157222 0.2766,0.07593 0.56737,0.08491 0.85106,0.127368 0.30189,-0.02949 0.60857,-0.0274 0.90572,-0.08846 1.2681,-0.260604 2.53759,-1.005959 3.25091,-2.107178 0.14266,-0.220216 0.22379,-0.474644 0.3357,-0.711965 0.0324,-0.271772 0.19521,-0.791845 -0.0915,-1.046403 -0.10665,-0.09472 -0.27778,-0.06508 -0.41666,-0.09761 -1.30448,-1.341115 0.59216,-3.185906 1.89661,-1.844791 v 0 c 0.3756,0.496406 0.8754,0.919747 1.12681,1.489218 0.42227,0.956577 0.0483,1.823534 -0.17627,2.736283 -0.22865,0.406802 -0.41185,0.842762 -0.68598,1.220407 -1.17409,1.617279 -3.1277,2.729457 -5.09839,3.004103 -0.51343,0.07156 -1.0364,0.02872 -1.55462,0.04308 -0.48551,-0.107918 -0.98724,-0.158967 -1.45653,-0.323752 -1.82567,-0.641099 -3.30467,-2.177023 -3.87493,-4.025439 -0.14179,-0.459595 -0.17102,-0.946621 -0.25651,-1.419932 0.0578,-1.229463 -0.0243,-1.615165 0.43532,-2.785493 0.52358,-1.332913 1.49336,-2.462853 2.74815,-3.158898 0.40534,-0.22484 0.85807,-0.350845 1.28712,-0.526269 0.43857,-0.07016 0.87214,-0.187706 1.31572,-0.210468 1.57622,-0.08089 3.14706,0.487537 4.26357,1.607682 0.19648,0.197122 0.34679,0.435422 0.5202,0.653134 0.92821,1.624383 -1.36901,2.937084 -2.29725,1.312702 z"
     id="path9161"
     style="fill:#f2f2f2;fill-opacity:0.941176;stroke:none;stroke-width:1;stroke-miterlimit:4;stroke-dasharray:none;stroke-opacity:1" />
  <path
     d="m 333.57891,92.214233 c 1.36671,2.653583 2.10278,5.577142 2.86163,8.447307 1.07127,4.59945 1.97924,9.35544 1.5558,14.10325 -0.0974,1.09262 -0.33041,2.16889 -0.49562,3.25333 -0.32792,1.06301 -0.56279,2.15932 -0.98377,3.18902 -1.31673,3.22044 -3.47877,5.93574 -6.18829,8.09631 -2.35505,1.8779 -3.34142,2.20731 -6.00646,3.5584 -3.83908,1.65249 -7.91623,2.62368 -12.06865,3.03373 -1.83947,0.18165 -2.88502,0.17748 -4.69419,0.22293 -1.45632,0.054 -2.90671,-0.13178 -4.36144,-0.1328 -0.19085,-1.4e-4 -0.69742,0.1754 -0.57166,0.0318 0.27046,-0.30881 0.71538,-0.40288 1.07307,-0.60432 -0.70255,1.73397 -3.15473,0.74042 -2.45221,-0.99355 v 0 c 0.41719,-0.3483 0.77139,-0.79041 1.25158,-1.04489 0.23101,-0.1224 0.52216,-0.0337 0.78359,-0.0336 1.40499,7.9e-4 2.80557,0.17928 4.21199,0.13226 1.69484,-0.0408 2.70869,-0.0369 4.42729,-0.20282 3.85403,-0.37214 7.64138,-1.25792 11.21183,-2.77253 2.41554,-1.20411 3.2699,-1.47852 5.40903,-3.14656 2.35982,-1.84013 4.28276,-4.16334 5.44971,-6.9355 0.38073,-0.9045 0.59616,-1.87002 0.89424,-2.80503 0.15502,-0.97207 0.37332,-1.93613 0.46505,-2.91619 0.42082,-4.49583 -0.46214,-9.00159 -1.46896,-13.35755 -0.69453,-2.631398 -1.36353,-5.309294 -2.57234,-7.761799 -0.96255,-1.604272 1.30623,-2.96554 2.26878,-1.361268 z"
     id="path9163"
     style="fill:#f2f2f2;fill-opacity:0.941176;stroke:none;stroke-width:1;stroke-miterlimit:4;stroke-dasharray:none;stroke-opacity:1" />
  <path
     d="m 303.71248,126.53863 c 0.5275,-0.0523 1.05021,-0.14246 1.57282,-0.22923 0.26008,-0.0432 0.59102,-0.0709 0.84526,-0.16053 0.0204,0.8654 0.20031,1.74188 0.0608,2.5962 -0.0265,0.16149 -0.32671,0.019 -0.4899,0.031 -1.60618,0.1179 -3.20755,0.281 -4.80735,0.46468 -1.93826,0.27712 -3.90163,0.53159 -5.77297,1.13472 -0.95107,0.30652 -1.12967,0.4343 -1.9852,0.86383 -0.3978,0.28539 -1.01171,0.60285 -1.03089,1.1801 -0.013,0.39295 0.27503,0.82846 0.44267,1.15014 1.31422,1.99587 3.0661,3.66264 4.73657,5.3564 1.69024,1.75504 3.47668,3.41018 5.29019,5.03584 1.22854,1.08394 0.78465,0.436 0.0701,2.89824 -1.73088,0.71014 -2.73516,-1.73769 -1.00428,-2.44782 v 0 c -0.29832,2.50548 0.20338,2.40698 -0.83193,1.51967 -1.85383,-1.66197 -3.67951,-3.35467 -5.408,-5.14815 -1.02418,-1.03869 -2.0565,-2.07184 -3.03126,-3.15779 -0.52996,-0.59046 -1.16265,-1.32201 -1.61816,-1.97799 -0.22193,-0.3196 -0.41042,-0.66116 -0.61563,-0.99174 -0.3541,-0.84936 -0.6172,-1.24092 -0.61643,-2.18777 0,-1.19822 0.57309,-2.18865 1.47317,-2.94262 0.30017,-0.25142 0.64829,-0.43925 0.97243,-0.65888 1.08791,-0.53012 1.26984,-0.66525 2.46086,-1.04417 2.00126,-0.63671 4.09572,-0.91866 6.16741,-1.21063 1.34864,-0.15438 2.69666,-0.29258 4.04937,-0.40625 0.30223,-0.0254 0.60447,-0.0507 0.90704,-0.0713 0.22001,-0.0149 0.56177,-0.23244 0.66054,-0.0353 0.39928,0.79692 0.41634,1.73341 0.62454,2.60011 -0.91371,0.23595 -1.86126,0.33238 -2.79357,0.46463 -1.85645,0.23205 -2.18461,-2.39335 -0.32819,-2.6254 z"
     id="path9165"
     style="fill:#f2f2f2;fill-opacity:0.941176;stroke:none;stroke-width:1;stroke-miterlimit:4;stroke-dasharray:none;stroke-opacity:1" />
  <path
     d="m 330.57729,222.65142 c 0.29025,2.14418 0.56891,4.28867 0.8042,6.43966 0.25779,2.3031 0.38616,4.61832 0.6081,6.92434 0.0671,0.55122 0.0565,0.68171 0.0662,0.38712 0.7308,1.72225 -1.70482,2.75576 -2.43563,1.03351 v 0 c -0.25558,-0.77622 -0.17028,-0.38609 -0.26434,-1.16851 -0.21855,-2.29444 -0.35047,-4.59726 -0.60444,-6.88879 -0.23503,-2.14951 -0.5152,-4.29226 -0.8037,-6.43515 -0.20661,-1.85945 2.42303,-2.15163 2.62964,-0.29218 z"
     id="path9167"
     style="fill:#f2f2f2;fill-opacity:0.941176;stroke:none;stroke-width:1;stroke-miterlimit:4;stroke-dasharray:none;stroke-opacity:1" />
  <path
     d="m 342.31341,235.86897 c -3.0749,1.06762 -6.14852,2.13542 -9.19178,3.29157 -4.09951,1.57362 -8.01121,3.5775 -11.82748,5.73803 -0.68321,0.39209 -1.81089,1.05117 -2.53963,1.42809 -0.29192,0.15099 -0.56891,0.35427 -0.89001,0.42434 -0.37642,0.0821 -0.77041,0.0147 -1.15562,0.022 -1.81676,-0.44679 -1.18488,-3.01607 0.63185,-2.56928 v 0 c -0.20312,0.0521 -0.73186,0.32655 -0.60936,0.15635 0.16172,-0.22463 0.50541,-0.22648 0.75131,-0.35352 0.71716,-0.37053 1.8451,-1.03005 2.50836,-1.41068 3.93374,-2.22518 7.96576,-4.28856 12.1912,-5.9088 3.06301,-1.16294 6.15585,-2.23897 9.25058,-3.31311 1.76424,-0.62267 2.64483,1.87233 0.88058,2.495 z"
     id="path9169"
     style="fill:#f2f2f2;fill-opacity:0.941176;stroke:none;stroke-width:1;stroke-miterlimit:4;stroke-dasharray:none;stroke-opacity:1" />
  <path
     d="m 338.99311,221.63464 c -2.79234,0.0339 -5.54488,0.5359 -8.26292,1.13419 -3.07811,0.72021 -6.00424,1.91553 -8.78443,3.40292 -0.65661,0.38499 -0.85185,0.46448 -1.40115,0.89275 -0.10089,0.0786 -0.30459,0.38323 -0.2852,0.25678 0.0684,-0.44589 0.2947,-0.85274 0.44204,-1.27911 0.6748,1.74495 -1.79292,2.69928 -2.46774,0.95433 v 0 c 0.0967,-0.55739 0.0914,-1.14248 0.29004,-1.67217 0.0761,-0.20292 0.3225,-0.29033 0.49509,-0.42141 0.67225,-0.51059 0.92024,-0.62121 1.68119,-1.06539 2.99672,-1.59569 6.14682,-2.88362 9.46308,-3.65304 0.62593,-0.13693 1.24913,-0.2868 1.87772,-0.41079 2.28934,-0.45159 4.6186,-0.73587 6.95228,-0.78489 1.87086,0 1.87086,2.64583 0,2.64583 z"
     id="path9171"
     style="fill:#f2f2f2;fill-opacity:0.941176;stroke:none;stroke-width:1;stroke-miterlimit:4;stroke-dasharray:none;stroke-opacity:1" />
  <path
     d="m 345.96273,223.86123 c -0.142,-0.0444 -0.28334,-0.091 -0.42598,-0.13321 -0.36131,-0.10696 -0.60722,-0.18062 -0.97409,-0.24034 -0.11594,-0.0189 -0.23296,-0.0359 -0.35044,-0.0373 -0.0434,-5.3e-4 -0.15427,-0.002 -0.12636,0.0314 0.0345,0.0411 0.1071,0.006 0.16065,0.009 0.47292,-0.29792 0.52896,-0.21777 0.6908,-0.80348 0.0295,-0.10682 -0.0378,-0.22742 -0.003,-0.33245 0.0116,-0.0343 0.0699,0.0217 0.10073,0.0406 0.10075,0.0617 0.1918,0.13829 0.2925,0.2 0.15822,0.097 0.32245,0.18376 0.48368,0.27563 1.98054,0.94802 4.07001,1.64443 6.13254,2.38926 1.07056,0.40932 2.16675,0.77135 3.19313,1.28819 0.49979,0.25169 1.17615,0.63407 1.57329,1.04629 0.23558,0.24453 0.406,0.54437 0.60901,0.81655 0.10084,0.3677 0.28149,0.72241 0.3025,1.10312 0.10179,1.84377 -1.47132,3.38513 -2.7654,4.45511 -0.41693,0.34472 -0.86833,0.64544 -1.30251,0.96815 -1.75324,1.11612 -3.66186,2.10788 -5.76017,2.3444 -0.43365,0.0489 -0.87826,0.0979 -1.30894,0.0275 -0.47379,-0.0775 -0.90887,-0.3097 -1.3633,-0.46455 -1.72018,-0.73567 -0.67979,-3.16837 1.0404,-2.43271 v 0 c 0.10364,0.0838 0.18116,0.22093 0.31091,0.25146 0.49861,0.11732 1.44767,-0.0525 1.88791,-0.16615 1.30281,-0.33628 2.49542,-0.97551 3.6245,-1.69059 0.94604,-0.68853 1.15673,-0.78487 1.96506,-1.58056 0.63981,-0.62979 0.47889,-0.53121 0.91972,-1.09519 0.0736,-0.0941 0.16388,-0.17414 0.23706,-0.26864 -0.0233,-0.0727 -0.022,-0.15875 -0.0698,-0.21822 -0.22611,-0.2806 -0.70175,-0.53825 -0.99118,-0.68553 -0.96253,-0.48978 -1.99607,-0.82281 -3.00082,-1.2101 -2.21729,-0.80072 -4.46799,-1.54476 -6.58069,-2.6004 -0.65942,-0.39926 -1.47577,-0.82908 -1.86174,-1.54311 -0.34812,-0.64402 -0.46511,-1.22806 -0.0759,-1.91027 0.15824,-0.27736 0.47027,-0.43214 0.7054,-0.64821 0.2263,-0.0685 0.4459,-0.1655 0.67895,-0.2056 0.99981,-0.17202 2.09434,0.29146 3.03371,0.56298 1.73707,0.69483 0.75443,3.15142 -0.98263,2.45659 z"
     id="path9173"
     style="fill:#f2f2f2;fill-opacity:0.941176;stroke:none;stroke-width:1;stroke-miterlimit:4;stroke-dasharray:none;stroke-opacity:1" />
  <path
     d="m 363.73183,224.43858 c -0.85958,-0.24767 -1.82729,-0.42694 -2.6811,-0.0509 -0.131,0.0577 -0.24855,0.14201 -0.37283,0.21301 -0.58507,0.65174 -0.64256,1.17697 -0.35663,1.9912 0.65898,1.17224 1.65534,1.15489 2.87258,1.10312 0.29425,-0.0632 0.59436,-0.10333 0.88271,-0.18946 1.08775,-0.3249 2.34616,-1.03956 2.98391,-2.01102 0.0973,-0.14816 0.13812,-0.32645 0.20717,-0.48967 -0.0317,-0.0617 -0.0257,-0.1886 -0.0951,-0.18515 -0.0861,0.004 -0.10056,0.14211 -0.16605,0.19815 -0.13036,0.1116 -0.27826,0.20089 -0.41738,0.30133 -1.81893,-0.43788 -1.19967,-3.01023 0.61926,-2.57234 v 0 c 0.68654,0.29921 1.49455,0.40614 2.05959,0.89763 0.85725,0.74563 0.48612,1.72118 0.34693,2.5814 -0.19595,0.34623 -0.35164,0.71858 -0.58786,1.03869 -1.02618,1.39057 -2.80421,2.40907 -4.45261,2.83956 -0.4389,0.1146 -0.8934,0.1576 -1.34009,0.2364 -1.05932,-0.002 -1.47424,0.079 -2.49444,-0.24031 -1.06,-0.33182 -1.9838,-1.01245 -2.56696,-1.96135 -0.1718,-0.27952 -0.27684,-0.59492 -0.41524,-0.89238 -0.0696,-0.31811 -0.17343,-0.63063 -0.20892,-0.95433 -0.13602,-1.24084 0.28634,-2.54094 1.16952,-3.43075 0.23516,-0.23694 0.51966,-0.4192 0.77951,-0.6288 0.28231,-0.13161 0.55317,-0.29124 0.84691,-0.39483 1.40866,-0.49676 2.92301,-0.32078 4.31612,0.12346 1.75178,0.65691 0.82275,3.13429 -0.92901,2.47737 z"
     id="path9175"
     style="fill:#f2f2f2;fill-opacity:0.941176;stroke:none;stroke-width:1;stroke-miterlimit:4;stroke-dasharray:none;stroke-opacity:1" />
  <path
     d="m 388.31768,217.35268 c -1.73606,0.49356 -3.41738,0.59959 -5.20904,0.49555 -1.19861,-0.18978 -2.65162,-0.37309 -3.50898,-1.35245 -0.17912,-0.20462 -0.29662,-0.4559 -0.44495,-0.68385 -0.0562,-0.28393 -0.17793,-0.56252 -0.16848,-0.85179 0.0419,-1.28383 1.11651,-2.13003 2.20138,-2.58458 0.28789,-0.12062 0.59227,-0.19733 0.88842,-0.296 1.52098,-0.32694 3.32123,-0.40049 4.62002,0.63185 0.28729,0.22835 0.50313,0.53439 0.75472,0.80159 0.16246,0.35875 0.37354,0.69923 0.48739,1.07624 0.47898,1.58611 0.0563,3.36387 -0.50733,4.86288 -0.15672,0.41671 -0.3523,0.81774 -0.52846,1.2266 -0.96356,2.03339 -2.36513,3.7918 -3.73687,5.55629 -0.0911,0.14407 -0.92577,1.20236 -0.79928,1.40869 0.032,0.0522 0.0821,-0.091 0.1256,-0.13413 0.74573,0.59488 1.62219,0.8884 2.53582,1.12302 1.06582,0.20467 2.17744,0.24032 3.18564,-0.20386 -0.0265,-0.0297 -0.0526,-0.0594 -0.0789,-0.0892 1.29757,-1.34778 3.20362,0.48728 1.90603,1.83505 v 0 c -0.28395,0.23788 -0.5679,0.47577 -0.85185,0.71365 -0.22204,0.0834 -0.43903,0.18182 -0.66612,0.25028 -1.35774,0.40932 -2.80191,0.32757 -4.17457,0.0511 -1.37078,-0.37358 -2.8394,-0.85083 -3.80897,-1.96193 -0.1806,-0.20697 -0.31813,-0.44789 -0.47723,-0.67183 -0.0874,-0.26309 -0.22,-0.51528 -0.26222,-0.78928 -0.18709,-1.21388 0.61584,-2.23875 1.27722,-3.15546 1.23653,-1.59055 2.51248,-3.16664 3.40029,-4.98952 0.61418,-1.38945 1.23735,-2.86559 0.93985,-4.41646 -0.039,-0.0821 -0.0587,-0.17668 -0.11707,-0.24636 -0.51629,-0.61598 -1.7458,-0.47864 -2.43012,-0.35517 -0.16918,0.0476 -0.342,0.0837 -0.50747,0.14285 -0.14111,0.0504 -0.27356,0.12238 -0.40966,0.18502 -0.0705,0.0324 -0.13454,0.0829 -0.21021,0.10025 -0.1551,0.0356 -0.0622,-0.39942 -0.2372,-0.43486 -0.0395,-0.0174 -0.0874,-0.0823 -0.11848,-0.0523 -0.0275,0.0266 0.0681,0.14727 0.3162,0.26642 0.4903,0.23547 1.03707,0.31174 1.56766,0.3964 1.46479,0.0955 2.9206,0.005 4.33914,-0.40396 1.80263,-0.50074 2.51076,2.04857 0.70813,2.5493 z"
     id="path9177"
     style="fill:#f2f2f2;fill-opacity:0.941176;stroke:none;stroke-width:1;stroke-miterlimit:4;stroke-dasharray:none;stroke-opacity:1" />
  <path
     d="m 395.33152,213.41464 c -1.30521,-0.22806 -2.6262,-0.368 -3.95152,-0.33356 -0.29131,0.0301 -0.59923,0.0443 -0.88308,0.13075 -0.056,0.017 -0.10729,0.0487 -0.15483,0.0828 -0.0199,0.0142 -0.0671,0.0631 -0.043,0.0592 0.15417,-0.0248 0.2209,-0.15971 0.30861,-0.26729 0.0193,-0.0339 0.0206,-0.0892 0.0577,-0.1018 0.0206,-0.007 0.06,0.14148 0.11256,0.26371 0.15515,0.36049 0.35909,0.70353 0.54258,1.0496 0.6201,1.17158 1.06222,2.42715 1.44608,3.69271 0.26085,0.93784 0.49879,1.88224 0.73565,2.82652 0.13724,0.20224 -0.14558,-0.29587 -0.40902,-0.47215 -0.12049,-0.0806 -0.27432,-0.0941 -0.41238,-0.13834 -0.0251,-0.008 -0.0973,-0.002 -0.0768,-0.0184 0.0512,-0.0407 0.12295,-0.0448 0.18442,-0.0673 0.83838,-0.31587 1.68076,-0.63164 2.56738,-0.78559 0.25659,-0.0446 0.51644,-0.0677 0.77467,-0.10162 1.3638,-0.0971 2.77583,0.087 3.99114,0.75159 0.24333,0.13307 0.4649,0.3026 0.69736,0.45391 0.84614,0.69737 1.56046,1.59694 1.69272,2.72543 0.0943,0.80466 -0.0365,1.03334 -0.22894,1.79796 -0.14541,0.29153 -0.26305,0.59867 -0.43624,0.87461 -0.9729,1.54994 -2.46185,2.40142 -4.0544,3.17637 -0.55189,0.21251 -1.29339,0.53384 -1.88854,0.62397 -0.36386,0.0551 -0.73525,0.0336 -1.10289,0.0504 -1.87084,0.0131 -1.88934,-2.6327 -0.0185,-2.64577 v 0 c 0.14554,0.0132 0.29157,0.0574 0.43661,0.0397 0.4317,-0.0528 1.03198,-0.30563 1.42584,-0.45235 1.19407,-0.56674 2.4129,-1.21958 3.09724,-2.40477 0.0417,-0.10318 0.1656,-0.37858 0.18106,-0.51358 0.0508,-0.44379 -0.30298,-0.80251 -0.59074,-1.08337 -0.11181,-0.0826 -0.21664,-0.17551 -0.33541,-0.24768 -0.75602,-0.4593 -1.67516,-0.56404 -2.54032,-0.52073 -0.98221,0.11206 -1.91159,0.39213 -2.82477,0.76939 -0.27101,0.0876 -0.65648,0.2332 -0.94054,0.22363 -0.98446,-0.0332 -1.48611,-0.49722 -1.75535,-1.39165 -0.22675,-0.90412 -0.45469,-1.80827 -0.7026,-2.70672 -0.32967,-1.10231 -0.71459,-2.19593 -1.25037,-3.21677 -0.53486,-1.00882 -1.10787,-2.00292 -0.91554,-3.19049 0.10165,-0.23503 0.16425,-0.49116 0.30499,-0.7051 0.63801,-0.96986 1.90129,-1.12563 2.95021,-1.20603 1.51878,-0.0279 3.03302,0.11149 4.52789,0.38432 1.83457,0.36691 1.31567,2.96136 -0.51887,2.59445 z"
     id="path9179"
     style="fill:#f2f2f2;fill-opacity:0.941176;stroke:none;stroke-width:1;stroke-miterlimit:4;stroke-dasharray:none;stroke-opacity:1" />
  <path
     d="m 409.7941,210.83789 c -1.529,0.25323 -2.86885,1.18867 -3.87062,2.34608 -0.28702,0.33163 -0.52784,0.70062 -0.79177,1.05093 -0.21648,0.39676 -0.46685,0.77681 -0.64939,1.19028 -0.74221,1.68122 -0.98017,3.64037 -0.62449,5.44532 0.0823,0.41757 0.23706,0.81752 0.3556,1.22628 0.62576,1.48385 1.55773,3.05697 3.17661,3.61055 0.17068,0.0584 0.35465,0.0663 0.53194,0.0994 0.16439,0.18535 0.64501,-0.24717 0.20228,-0.16987 -0.1033,0.018 -0.18688,0.1425 -0.28977,0.12235 -0.0653,-0.0128 -0.11224,-0.0715 -0.16833,-0.10728 -0.68781,-0.42287 -1.53853,-0.61997 -2.34662,-0.57529 -0.28554,0.0158 -0.56353,0.098 -0.84529,0.14696 -1.85383,0.25214 -2.21041,-2.36955 -0.35658,-2.62169 v 0 c 0.47477,-0.0539 0.94658,-0.15439 1.42436,-0.16174 1.19044,-0.0183 2.54106,0.31287 3.52055,1.00953 0.31615,0.22486 0.56435,0.53252 0.8465,0.79878 0.42844,0.81797 0.75761,1.13179 0.61143,2.11725 -0.17084,1.15184 -1.11853,1.89204 -2.22239,2.0384 -0.33714,0.0447 -0.67985,-0.0207 -1.01976,-0.031 -0.36182,-0.10209 -0.73721,-0.1646 -1.08545,-0.30625 -1.71646,-0.69818 -3.03874,-2.16525 -3.88303,-3.77891 -0.25119,-0.4801 -0.43193,-0.99388 -0.64791,-1.49082 -0.14547,-0.5531 -0.33769,-1.09596 -0.43643,-1.65928 -0.41132,-2.3464 -0.056,-4.84688 0.94742,-7.00388 0.24476,-0.52619 0.57462,-1.00845 0.86193,-1.51267 0.34748,-0.44422 0.66453,-0.91403 1.04249,-1.33265 1.28026,-1.41803 2.96783,-2.56283 4.85293,-2.97771 0.32861,-0.0723 0.66858,-0.0768 1.00285,-0.11521 1.8683,0.0983 1.72924,2.74051 -0.13906,2.64218 z"
     id="path9181"
     style="fill:#f2f2f2;fill-opacity:0.941176;stroke:none;stroke-width:1;stroke-miterlimit:4;stroke-dasharray:none;stroke-opacity:1" />
  <path
     d="m 418.01298,215.0357 c -0.31438,-0.51556 -0.87754,-0.69793 -1.45095,-0.49125 -0.16139,0.0582 -0.30747,0.15234 -0.46122,0.22851 -1.26061,0.86793 -2.0605,2.22843 -2.43054,3.70032 -0.083,0.32996 -0.11819,0.67011 -0.17727,1.00516 -0.10197,1.23556 0.11853,2.4669 0.89336,3.46748 0.498,0.64308 0.70152,0.71407 1.35763,1.17898 0.27903,0.11496 0.5461,0.26486 0.83709,0.34488 1.42582,0.39212 2.97469,-0.0398 4.17941,-0.83894 0.35084,-0.23271 0.65191,-0.53291 0.97788,-0.79937 0.25132,-0.32746 0.54393,-0.62703 0.75401,-0.98237 0.80819,-1.36709 1.00785,-3.1915 0.2876,-4.64015 -0.15031,-0.30228 -0.39156,-0.55002 -0.58732,-0.82504 -1.00513,-0.65764 -0.44911,-0.5071 -1.6746,-0.42679 -1.85455,-0.24676 -1.50559,-2.86948 0.34895,-2.62272 v 0 c 2.78871,0.60375 1.63825,-0.0112 3.55815,1.6295 0.29842,0.50196 0.66966,0.96724 0.89529,1.50586 0.95602,2.2822 0.56608,5.00429 -0.7734,7.04629 -0.33435,0.50972 -0.78528,0.93262 -1.17792,1.39893 -0.47596,0.3612 -0.91821,0.77175 -1.42788,1.08362 -1.91754,1.17339 -4.2939,1.6132 -6.45311,0.88072 -0.46744,-0.15857 -0.89011,-0.42694 -1.33517,-0.64041 -0.99152,-0.77493 -1.32431,-0.91518 -2.05316,-1.96182 -0.80309,-1.15321 -1.2205,-2.52401 -1.27445,-3.92261 -0.0177,-0.45672 0.0455,-0.91299 0.0682,-1.36948 0.0911,-0.45594 0.15005,-0.91948 0.27318,-1.36781 0.48319,-1.75903 1.4573,-3.48591 2.90844,-4.62627 0.34425,-0.27053 0.7407,-0.46713 1.11104,-0.70069 0.40253,-0.12875 0.79102,-0.31498 1.20761,-0.38626 1.42089,-0.24311 2.80297,0.34185 3.67395,1.46414 0.14925,0.1923 0.2514,0.4169 0.37711,0.62535 0.73697,1.71962 -1.69492,2.76186 -2.43192,1.04224 z"
     id="path9183"
     style="fill:#f2f2f2;fill-opacity:0.941176;stroke:none;stroke-width:1;stroke-miterlimit:4;stroke-dasharray:none;stroke-opacity:1" />
  <path
     d="m 429.34733,213.15491 c -0.24032,-0.86127 -0.53826,-1.05905 -1.40467,-0.95164 -1.15715,0.42739 -1.9935,1.379 -2.56336,2.44765 -0.15116,0.28346 -0.26533,0.58517 -0.39796,0.87775 -0.53607,1.56392 -0.61669,3.25407 0.0794,4.78838 0.13414,0.29563 0.32427,0.5625 0.48641,0.84375 0.21235,0.24619 0.39669,0.51965 0.63706,0.73856 1.12707,1.02649 2.74188,1.29114 4.20711,1.06072 0.47009,-0.0739 0.92242,-0.2345 1.38361,-0.35175 1.25286,-0.50262 2.43999,-1.19148 3.15363,-2.38658 0.30244,-0.50648 0.50995,-1.13133 0.34737,-1.72675 -0.0542,-0.19836 -0.21947,-0.34777 -0.32922,-0.52165 -0.90602,-0.46951 -0.35394,-0.30657 -1.7126,-0.22168 -1.85444,-0.24768 -1.50415,-2.87023 0.35026,-2.62255 v 0 c 3.15036,0.69909 1.94156,-0.0611 3.8364,1.9064 0.16471,0.55012 0.44408,1.0783 0.49411,1.65037 0.21498,2.45775 -1.77252,4.61786 -3.7569,5.72814 -0.56385,0.31548 -1.18581,0.51346 -1.77871,0.77019 -1.62285,0.35765 -2.12691,0.60359 -3.79674,0.4456 -1.67442,-0.15842 -3.24901,-0.86173 -4.4426,-2.05074 -0.3471,-0.3458 -0.61002,-0.76692 -0.91503,-1.15039 -0.2267,-0.4309 -0.49276,-0.84328 -0.68006,-1.2927 -0.90771,-2.17807 -0.76039,-4.5519 0.0402,-6.72907 0.18939,-0.39533 0.35258,-0.80431 0.56814,-1.186 0.82365,-1.45848 2.07343,-2.82239 3.6876,-3.4028 0.37621,-0.13527 0.7806,-0.17319 1.17089,-0.25979 0.37214,0.028 0.75189,0.004 1.11638,0.084 1.61452,0.35458 2.52339,1.62922 2.84189,3.16289 0.24726,1.85447 -2.37535,2.20416 -2.62263,0.34968 z"
     id="path9185"
     style="fill:#f2f2f2;fill-opacity:0.941176;stroke:none;stroke-width:1;stroke-miterlimit:4;stroke-dasharray:none;stroke-opacity:1" />
  <path
     d="m 401.88589,245.14195 c -1.17785,1.26411 -2.20711,2.6737 -3.00316,4.21007 -0.23392,0.45146 -0.43288,0.92019 -0.64931,1.38028 -1.23148,3.04968 -1.70297,6.34607 -1.75689,9.62128 -0.013,0.78839 0.0233,1.57683 0.035,2.36524 0.19431,3.11953 0.61007,6.31298 1.93405,9.1831 0.80065,1.73572 1.16586,2.02067 2.33249,3.49686 0.51879,0.45638 0.99792,0.96224 1.55638,1.36914 2.59231,1.88886 5.81993,2.6606 8.9472,3.04956 0.91514,0.11383 1.83735,0.16116 2.75601,0.24173 4.3289,0.2818 8.66365,-0.031 12.99453,0.0172 0.6898,0.008 1.37914,0.0389 2.0687,0.0583 0.63955,0.0441 1.2791,0.0882 1.91863,0.13235 1.86639,0.1298 1.6828,2.76926 -0.18357,2.63945 v 0 c -0.60349,-0.0424 -1.20698,-0.0847 -1.81049,-0.12705 -0.66072,-0.019 -1.32123,-0.0497 -1.98218,-0.0572 -4.41277,-0.0501 -8.82994,0.27249 -13.24041,-0.0275 -2.32786,-0.21037 -3.53542,-0.24342 -5.81689,-0.74912 -2.64494,-0.58629 -5.2409,-1.55919 -7.41911,-3.20878 -0.67553,-0.5116 -1.25171,-1.14261 -1.87758,-1.7139 -1.38592,-1.80694 -1.77621,-2.1019 -2.7245,-4.20102 -1.42541,-3.15527 -1.89706,-6.64552 -2.09883,-10.06684 -0.0106,-0.84491 -0.0479,-1.68991 -0.0319,-2.53474 0.0684,-3.62231 0.62074,-7.2588 2.00835,-10.62083 0.24915,-0.52254 0.47873,-1.05488 0.74744,-1.56764 0.91081,-1.73799 2.08312,-3.33295 3.42514,-4.76068 1.32292,-1.32292 3.19381,0.54797 1.8709,1.87089 z"
     id="path9187"
     style="fill:#f2f2f2;fill-opacity:0.941176;stroke:none;stroke-width:1;stroke-miterlimit:4;stroke-dasharray:none;stroke-opacity:1" />
  <path
     d="m 428.18266,269.64394 c 0.90012,1.01227 1.94887,1.89134 3.10814,2.59336 0.33968,0.20569 0.69165,0.39037 1.03749,0.58555 2.9414,1.45749 6.04041,2.569 9.12389,3.68316 2.47584,0.87574 5.00425,1.62444 7.3728,2.77138 0.24125,0.16317 0.50996,0.29165 0.72371,0.48945 0.9506,0.87974 1.12073,1.88177 0.63104,3.07777 -0.3292,0.80399 -0.92213,1.35461 -1.48503,1.9867 -2.48232,2.32926 -5.53813,3.87414 -8.53432,5.4242 -2.0456,1.0111 -4.04895,2.10873 -6.09812,3.11213 -0.79886,0.33912 -0.26815,0.19066 -1.65147,0.0761 -1.67119,-0.84101 -0.48181,-3.20445 1.18938,-2.36342 v 0 c -1.08032,0.0276 -1.28165,0.14894 -0.69948,-0.0899 2.03276,-0.99089 4.01502,-2.08629 6.04417,-3.08502 2.72042,-1.40668 5.50052,-2.79418 7.79597,-4.85817 0.20241,-0.2137 0.41283,-0.42013 0.60725,-0.64116 0.11858,-0.13481 0.20285,-0.29914 0.33075,-0.42516 0.16589,-0.16352 0.16137,0.0602 0.32234,0.055 0.16939,-0.006 -0.42169,-1.11646 -0.33679,-0.38082 -2.27509,-1.12141 -4.73501,-1.79437 -7.11147,-2.66075 -3.22371,-1.16523 -6.46453,-2.32794 -9.53098,-3.87065 -0.3969,-0.22653 -0.80131,-0.44034 -1.19067,-0.67955 -1.36845,-0.84077 -2.60607,-1.88762 -3.6684,-3.09115 -1.20848,-1.4282 0.81132,-3.13727 2.0198,-1.70905 z"
     id="path9189"
     style="fill:#f2f2f2;fill-opacity:0.941176;stroke:none;stroke-width:1;stroke-miterlimit:4;stroke-dasharray:none;stroke-opacity:1" />
  <image
     width="277.29788"
     height="418.61319"
     preserveAspectRatio="none"
     id="image9218"
     x="0.063502207"
     y="0.23285647"
     xlink:href="iso_low_detail.jpg" />
  <image
     width="276.54672"
     height="417.47925"
     preserveAspectRatio="none"
     id="image9229"
     x="467.42746"
     y="-0.145119"
     xlink:href="iso_high_detail.jpg" />
</svg>
