<?xml version="1.0" encoding="UTF-8" standalone="no"?>
<svg
   id="svg8545"
   version="1.1"
   viewBox="0 0 743.53052 417.23734"
   height="417.23734mm"
   width="743.53052mm"
   sodipodi:docname="sharpness.svg"
   inkscape:version="1.2.2 (b0a8486541, 2022-12-01)"
   xmlns:inkscape="http://www.inkscape.org/namespaces/inkscape"
   xmlns:sodipodi="http://sodipodi.sourceforge.net/DTD/sodipodi-0.dtd"
   xmlns:xlink="http://www.w3.org/1999/xlink"
   xmlns="http://www.w3.org/2000/svg"
   xmlns:svg="http://www.w3.org/2000/svg"
   xmlns:rdf="http://www.w3.org/1999/02/22-rdf-syntax-ns#"
   xmlns:cc="http://creativecommons.org/ns#"
   xmlns:dc="http://purl.org/dc/elements/1.1/">
  <sodipodi:namedview
     id="namedview38"
     pagecolor="#ffffff"
     bordercolor="#666666"
     borderopacity="1.0"
     inkscape:showpageshadow="2"
     inkscape:pageopacity="0.0"
     inkscape:pagecheckerboard="0"
     inkscape:deskcolor="#d1d1d1"
     inkscape:document-units="mm"
     showgrid="false"
     inkscape:zoom="0.65125304"
     inkscape:cx="1406.5193"
     inkscape:cy="791.55101"
     inkscape:window-width="1987"
     inkscape:window-height="1251"
     inkscape:window-x="1282"
     inkscape:window-y="251"
     inkscape:window-maximized="0"
     inkscape:current-layer="svg8545" />
  <defs
     id="defs8539" />
  <metadata
     id="metadata8542">
    <rdf:RDF>
      <cc:Work
         rdf:about="">
        <dc:format>image/svg+xml</dc:format>
        <dc:type
           rdf:resource="http://purl.org/dc/dcmitype/StillImage" />
      </cc:Work>
    </rdf:RDF>
  </metadata>
  <image
     width="305.26436"
     height="202.26866"
     preserveAspectRatio="none"
     id="image9552"
     x="-4.8730467e-06"
     y="-2.8320312e-07"
     xlink:href="sharpness_f5_6.jpg" />
  <image
     width="305.26434"
     height="202.26865"
     preserveAspectRatio="none"
     id="image9563"
     x="438.1445"
     y="-2.8320312e-07"
     xlink:href="sharpness_f8.jpg" />
  <image
     width="305.26434"
     height="202.26865"
     preserveAspectRatio="none"
     id="image9574"
     x="438.1445"
     y="214.96869"
     xlink:href="sharpness_f16.jpg" />
  <image
     width="305.26434"
     height="202.26865"
     preserveAspectRatio="none"
     id="image9585"
     x="-4.8730467e-06"
     y="214.96869"
     xlink:href="sharpness_f36.jpg" />
  <path
     d="m 329.62188,18.479421 c 0.0351,-0.744131 -0.0874,-1.484625 -0.29972,-2.196721 -0.0633,-0.212225 -0.14115,-0.419812 -0.21175,-0.629718 -0.3775,-0.957785 -0.86285,-1.876773 -1.52026,-2.673869 -0.42932,-0.520553 -0.57844,-0.623134 -1.0712,-1.067803 -0.57729,-0.411252 -1.23684,-0.828733 -1.9808,-0.747601 -0.35645,0.03887 -0.43222,0.115491 -0.74327,0.277939 -0.10893,0.0915 -0.22661,0.173473 -0.32676,0.274514 -0.55242,0.557385 -0.82476,1.326791 -0.92326,2.093107 -0.0343,0.266945 -0.0359,0.537087 -0.0538,0.80563 0.0124,0.318436 0.01,0.637864 0.0377,0.955307 0.0668,0.755313 0.24442,1.735795 0.38841,2.464106 0.34671,1.753567 0.78621,3.487819 1.20488,5.225027 0.84561,3.535166 1.71794,7.074992 2.2134,10.680686 0.0986,0.717139 0.166,1.438211 0.249,2.157317 0.0412,0.682178 0.10602,1.363337 0.12364,2.046531 0.0507,1.967388 -0.0637,4.210732 -0.9154,6.024988 -0.14947,0.31841 -0.35754,0.605867 -0.53631,0.908802 -0.20567,0.229626 -0.38984,0.48043 -0.61693,0.688882 -0.5292,0.485793 -1.25331,0.872178 -1.98483,0.906727 -0.21002,0.0099 -0.41828,-0.04354 -0.6274,-0.06531 -0.92393,-0.146439 -0.71681,-1.453047 0.20708,-1.306608 v 0 c 0.0683,0.02223 0.13325,0.06342 0.20503,0.06663 0.44082,0.01977 0.90368,-0.221464 1.22751,-0.498173 0.16724,-0.14292 0.30472,-0.317368 0.45709,-0.476051 0.14404,-0.23159 0.31282,-0.449509 0.43209,-0.694765 0.33547,-0.689768 0.52925,-1.440799 0.64844,-2.194999 0.27482,-1.738976 0.20963,-3.508671 0.0657,-5.255344 -0.0804,-0.700352 -0.14557,-1.402631 -0.24127,-2.101057 -0.48943,-3.571388 -1.3562,-7.076855 -2.19297,-10.578291 -0.42469,-1.762129 -0.87077,-3.521333 -1.22074,-5.300418 -0.15801,-0.80316 -0.34126,-1.825651 -0.40857,-2.651956 -0.0298,-0.36574 -0.0233,-0.733532 -0.0349,-1.100298 0.0651,-0.805809 0.0427,-1.095949 0.27509,-1.85981 0.2282,-0.749987 0.62492,-1.458035 1.21124,-1.986579 0.17931,-0.161633 0.38851,-0.286606 0.58277,-0.42991 0.5847,-0.250503 0.71607,-0.36992 1.36218,-0.397949 1.05796,-0.04589 1.9907,0.4738 2.80633,1.090516 0.57531,0.527345 0.74422,0.644388 1.24423,1.259298 0.73962,0.909595 1.28992,1.952701 1.71185,3.042448 0.0796,0.24074 0.16767,0.478865 0.23889,0.722221 0.25334,0.865424 0.38862,1.766567 0.33238,2.668646 -0.1033,0.929722 -1.41812,0.78363 -1.31483,-0.146092 z"
     id="path9588"
     style="fill:#f2f2f2;fill-opacity:0.941176;stroke:none;stroke-width:1;stroke-miterlimit:4;stroke-dasharray:none;stroke-opacity:1" />
  <path
     d="m 328.09568,31.529424 c -1.12582,0.168902 -2.26504,0.191487 -3.40111,0.201362 -0.76245,-0.0013 -1.52421,-0.03644 -2.28634,-0.05185 -0.22053,-0.0045 -0.44138,-0.01794 -0.6617,-0.0075 -0.17264,0.0082 -0.34308,0.04228 -0.51464,0.06342 -0.92951,0.105283 -1.07839,-1.209228 -0.14888,-1.314511 v 0 c 0.22619,-0.02392 0.45141,-0.06109 0.6786,-0.07174 0.22778,-0.01066 0.45607,0.0033 0.68403,0.0079 0.74589,0.01506 1.49143,0.04946 2.23761,0.05136 1.0814,-0.0091 2.16598,-0.02839 3.2376,-0.189805 0.92723,-0.123631 1.10209,1.187681 0.17483,1.311313 z"
     id="path9590"
     style="fill:#f2f2f2;fill-opacity:0.941176;stroke:none;stroke-width:1;stroke-miterlimit:4;stroke-dasharray:none;stroke-opacity:1" />
  <path
     d="m 337.03066,15.986325 c -0.48167,1.247603 -0.96014,2.496567 -1.35731,3.774467 -0.14832,0.477287 -0.28241,0.958883 -0.42362,1.438324 -1.21417,4.396677 -1.81309,8.926405 -2.39231,13.440626 -0.54346,4.681709 -1.03201,9.369689 -1.64751,14.042726 -0.15216,1.176803 -0.34401,2.347661 -0.54359,3.517122 -0.11252,0.659444 -0.10094,0.393483 -0.10207,0.791162 -0.0315,0.934913 -1.35364,0.890397 -1.32215,-0.04452 v 0 c 0.0287,-0.575379 -0.003,-0.251447 0.12017,-0.969203 0.19683,-1.152901 0.38614,-2.307169 0.53605,-3.467343 0.6155,-4.671552 1.10307,-9.358165 1.64695,-14.038339 0.58838,-4.583737 1.19928,-9.18278 2.43552,-13.646306 0.14554,-0.493262 0.28381,-0.988725 0.43661,-1.479787 0.40431,-1.299395 0.89051,-2.56967 1.38031,-3.838416 0.33903,-0.871838 1.57199,-0.392352 1.23295,0.479487 z"
     id="path9592"
     style="fill:#f2f2f2;fill-opacity:0.941176;stroke:none;stroke-width:1;stroke-miterlimit:4;stroke-dasharray:none;stroke-opacity:1" />
  <path
     d="m 341.71368,31.749417 c -0.87386,-0.345363 -1.66674,-0.2824 -2.57524,-0.149674 -0.67429,0.151749 -1.4201,0.366942 -1.87936,0.925605 -0.0558,0.06784 -0.0942,0.148256 -0.14129,0.222385 -0.26043,0.537609 -0.0843,0.978342 0.19865,1.46105 0.28086,0.373388 0.51771,0.608878 1.00185,0.567216 0.50511,-0.134381 0.96088,-0.410337 1.43949,-0.616915 0.64,-0.239893 1.33262,-0.278662 1.96535,0.01529 0.14449,0.06712 0.27562,0.159914 0.41341,0.239871 0.12663,0.105111 0.26294,0.199538 0.37986,0.315338 0.57722,0.57168 0.94584,1.343573 1.19653,2.105771 0.0756,0.229942 0.13118,0.466014 0.19674,0.699019 0.24286,1.045638 0.26623,2.131817 -0.0417,3.168295 -0.20187,0.679464 -0.34663,0.868204 -0.68241,1.483672 -0.56724,0.865045 -1.33408,1.551782 -2.21567,2.084269 -0.36984,0.223385 -0.75415,0.406387 -1.13986,0.598972 -0.41171,0.205007 -0.84066,0.371049 -1.26674,0.542798 -0.86762,0.349684 -1.36216,-0.877324 -0.49453,-1.227008 v 0 c 0.39372,-0.158663 0.79062,-0.310653 1.1712,-0.499822 0.33028,-0.164261 0.69107,-0.336513 1.00886,-0.524063 0.69998,-0.413133 1.31783,-0.944189 1.78009,-1.617218 0.26381,-0.464965 0.38542,-0.62284 0.54898,-1.134515 0.2626,-0.821428 0.24564,-1.687576 0.0571,-2.521481 -0.23178,-0.848707 -0.50072,-1.75291 -1.19176,-2.347344 -0.42498,-0.295161 -0.66834,-0.326062 -1.16377,-0.166124 -0.64535,0.274971 -1.25378,0.673378 -1.97141,0.72408 -0.37177,-0.01529 -0.46969,0.009 -0.8245,-0.117991 -0.57224,-0.204806 -0.99425,-0.634598 -1.32403,-1.130517 -0.0754,-0.140679 -0.1616,-0.276077 -0.22616,-0.422034 -0.28059,-0.634132 -0.35391,-1.338038 -0.11383,-1.99829 0.0565,-0.155313 0.1451,-0.29697 0.21765,-0.445457 0.10409,-0.139925 0.19532,-0.290375 0.31224,-0.419775 0.67005,-0.74168 1.65261,-1.080177 2.60318,-1.274868 0.21534,-0.0298 0.4296,-0.0688 0.64603,-0.0894 0.90839,-0.08649 1.82692,-0.0018 2.67449,0.350072 0.84767,0.395584 0.28824,1.59439 -0.55944,1.198804 z"
     id="path9594"
     style="fill:#f2f2f2;fill-opacity:0.941176;stroke:none;stroke-width:1;stroke-miterlimit:4;stroke-dasharray:none;stroke-opacity:1" />
  <path
     d="m 346.43806,41.528102 c 0.24527,1.098797 0.23508,2.232346 0.22873,3.351851 0.003,0.489172 -0.0249,0.97755 -0.0473,1.465955 -0.043,0.934456 -1.36448,0.873718 -1.32154,-0.06074 v 0 c 0.0217,-0.470749 0.0491,-0.94144 0.0459,-1.412949 0.006,-1.002263 0.0209,-2.016956 -0.1841,-3.003251 -0.24104,-0.903857 1.03722,-1.244724 1.27826,-0.340866 z"
     id="path9596"
     style="fill:#f2f2f2;fill-opacity:0.941176;stroke:none;stroke-width:1;stroke-miterlimit:4;stroke-dasharray:none;stroke-opacity:1" />
  <path
     d="m 351.78994,30.872911 c -0.65619,0.761548 -1.26111,1.583531 -1.68113,2.501932 -0.12272,0.268274 -0.21916,0.547801 -0.32872,0.821703 -0.56137,1.713278 -0.69903,3.54538 -0.42421,5.328071 0.0538,0.348752 0.14452,0.690795 0.21675,1.036193 0.23331,0.7674 0.49763,1.584348 1.11127,2.145172 0.22831,0.208632 0.48459,0.335672 0.79547,0.317072 0.10846,-0.0065 0.20836,-0.06176 0.31256,-0.09264 0.0843,-0.07002 0.18184,-0.126642 0.25291,-0.210071 0.41418,-0.486169 0.48173,-1.242975 0.2998,-1.834425 -0.0492,-0.159892 -0.14168,-0.303084 -0.21254,-0.45463 -0.10025,-0.09931 -0.18187,-0.221877 -0.30072,-0.297929 -0.18384,-0.117625 -0.48861,-0.151828 -0.6899,-0.0582 -0.17825,0.0829 -0.32116,0.226796 -0.4817,0.340191 -0.83209,0.42741 -1.43656,-0.749345 -0.60447,-1.176753 v 0 c 0.37544,-0.161915 0.72504,-0.407162 1.12628,-0.485746 0.57385,-0.112395 1.2265,0.153045 1.6519,0.516853 0.21206,0.181366 0.34721,0.436901 0.52083,0.655349 0.10059,0.262363 0.23609,0.513892 0.30178,0.78709 0.26207,1.089978 -0.0159,2.427949 -0.93684,3.146306 -0.22063,0.172077 -0.49813,0.255037 -0.74718,0.382559 -0.274,0.02111 -0.54898,0.09481 -0.82198,0.06333 -1.28233,-0.147878 -2.08666,-1.331423 -2.53177,-2.42434 -0.13914,-0.341622 -0.22765,-0.70173 -0.34147,-1.052597 -0.0791,-0.390146 -0.1786,-0.776703 -0.23725,-1.17044 -0.2412,-1.619088 -0.18294,-3.304455 0.19978,-4.897212 0.086,-0.358098 0.20953,-0.706152 0.3143,-1.059228 0.12835,-0.314325 0.24194,-0.63509 0.38505,-0.942978 0.46707,-1.004937 1.12654,-1.909265 1.84676,-2.745573 0.60879,-0.710242 1.61322,0.150702 1.00444,0.860941 z"
     id="path9598"
     style="fill:#f2f2f2;fill-opacity:0.941176;stroke:none;stroke-width:1;stroke-miterlimit:4;stroke-dasharray:none;stroke-opacity:1" />
  <path
     d="m 333.57328,53.392162 c 0.45664,0.927351 0.71979,1.928688 0.96509,2.927726 0.33856,1.537589 0.6514,3.084094 0.87085,4.643858 0.0556,0.395377 0.0994,0.792329 0.14914,1.188492 0.23514,2.296721 0.34669,4.632849 -0.0225,6.923127 -0.0742,0.4605 -0.18835,0.913675 -0.28254,1.370513 -0.14293,0.430466 -0.2543,0.872725 -0.42876,1.291397 -0.52245,1.253654 -1.33705,2.32247 -2.3921,3.176677 -0.89781,0.726906 -1.43158,0.949222 -2.44941,1.493999 -2.41702,1.122437 -5.01933,1.76472 -7.63341,2.231649 -0.49882,0.0891 -1.00028,0.162862 -1.50043,0.244293 -2.05372,0.31465 -4.12514,0.47476 -6.20164,0.493305 -0.31801,-0.0089 -0.63588,-0.003 -0.95364,0.0074 -0.0262,7.94e-4 0.052,-0.0021 0.0781,-0.0034 -0.90295,0.244387 -1.24857,-1.032584 -0.34563,-1.276972 v 0 c 0.39921,-0.07576 0.80434,-0.05251 1.20963,-0.04995 2.00929,-0.01717 4.01351,-0.17262 6.00088,-0.476203 0.48715,-0.07912 0.97554,-0.150836 1.46145,-0.237355 2.4851,-0.442499 4.96112,-1.045477 7.26374,-2.100947 0.88598,-0.467382 1.38507,-0.676604 2.16715,-1.292471 0.89275,-0.703014 1.59461,-1.584138 2.04123,-2.631247 0.15743,-0.369083 0.25845,-0.759754 0.38767,-1.139632 0.0881,-0.419238 0.19479,-0.83498 0.26413,-1.257716 0.35809,-2.18341 0.24514,-4.412072 0.0236,-6.602163 -0.0478,-0.382553 -0.0898,-0.765876 -0.14338,-1.147662 -0.21375,-1.522913 -0.51935,-3.032781 -0.84886,-4.534196 -0.22095,-0.90356 -0.45341,-1.810909 -0.86341,-2.650951 -0.41836,-0.836686 0.76491,-1.428311 1.18324,-0.591627 z"
     id="path9600"
     style="fill:#f2f2f2;fill-opacity:0.941176;stroke:none;stroke-width:1;stroke-miterlimit:4;stroke-dasharray:none;stroke-opacity:1" />
  <path
     d="m 318.04054,73.689349 c -0.91559,0.231831 -1.85118,0.379542 -2.76156,0.633339 -0.21413,0.05969 -0.42498,0.13058 -0.63744,0.195868 -0.95816,0.345914 -1.93553,0.759293 -2.68216,1.476028 -0.11453,0.109945 -0.21137,0.236937 -0.31705,0.355405 -0.0644,0.112461 -0.14348,0.217728 -0.19327,0.33738 -0.28184,0.676855 0.25032,1.316324 0.61867,1.827864 1.2772,1.463341 2.87449,2.597084 4.39782,3.78555 1.35091,1.030901 2.67177,2.099849 3.99871,3.161096 0.11964,0.09571 0.23929,0.191426 0.35893,0.287139 0.73046,0.584364 -0.096,1.61739 -0.82643,1.033023 v 0 c -0.11959,-0.09568 -0.23918,-0.191357 -0.3588,-0.287036 -1.32273,-1.057955 -2.63945,-2.123546 -3.98613,-3.151187 -1.3951,-1.088401 -2.85954,-2.131584 -4.08945,-3.412451 -0.20175,-0.210103 -0.38489,-0.437308 -0.57735,-0.655962 -0.33748,-0.48999 -0.57563,-0.761709 -0.77081,-1.328323 -0.22551,-0.654666 -0.19521,-1.328761 0.10776,-1.95241 0.0931,-0.191717 0.22998,-0.358929 0.34497,-0.538396 0.14991,-0.160506 0.28921,-0.331665 0.44979,-0.48152 0.884,-0.824952 2.01253,-1.323779 3.13788,-1.721276 0.23431,-0.07135 0.46693,-0.148524 0.70294,-0.214064 0.89977,-0.249878 1.82306,-0.400513 2.72891,-0.624721 0.90131,-0.250367 1.2554,1.024287 0.35407,1.274654 z"
     id="path9602"
     style="fill:#f2f2f2;fill-opacity:0.941176;stroke:none;stroke-width:1;stroke-miterlimit:4;stroke-dasharray:none;stroke-opacity:1" />
  <path
     d="m 397.32256,60.427578 c -0.22868,-0.997204 -0.63055,-1.951551 -1.12384,-2.846136 -0.13565,-0.246044 -0.28808,-0.48247 -0.43214,-0.723704 -0.6613,-0.938879 -1.44682,-1.958621 -2.59419,-2.319303 -0.15057,-0.04734 -0.31036,-0.0578 -0.46553,-0.0867 -0.12584,0.01712 -0.25633,0.01336 -0.37751,0.05137 -0.55378,0.173644 -0.81698,0.855938 -0.93904,1.35798 -0.0572,0.235548 -0.0819,0.477848 -0.12287,0.716772 -0.0138,0.286409 -0.0443,0.57251 -0.041,0.859226 0.0246,2.158524 0.792,4.361656 1.42383,6.400821 1.056,3.282249 2.20742,6.540095 3.02225,9.894335 0.16576,0.682326 0.3029,1.371287 0.45435,2.056931 0.49511,2.518143 0.74467,5.097214 0.47577,7.658923 -0.15772,1.502667 -0.26853,1.705906 -0.6463,3.124166 -0.17158,0.426198 -0.313,0.865819 -0.51477,1.278601 -0.61079,1.249664 -1.62499,2.539214 -3.06695,2.838281 -0.29808,0.06182 -0.60827,0.02667 -0.91244,0.04001 -0.29189,-0.08467 -0.59804,-0.130336 -0.87566,-0.254008 -0.76184,-0.339384 -1.38991,-0.992441 -1.84963,-1.672119 -0.1153,-0.170487 -0.20124,-0.359098 -0.30186,-0.538649 -0.44696,-0.821756 0.71517,-1.453846 1.16213,-0.63209 v 0 c 0.0638,0.12268 0.11626,0.251905 0.19129,0.368033 0.30671,0.474721 0.71779,0.937215 1.21502,1.219332 0.14153,0.0803 0.30073,0.124405 0.45109,0.186606 0.16322,0.01064 0.3274,0.05232 0.48969,0.03193 1.0591,-0.133035 1.83616,-1.213368 2.27195,-2.08589 0.18101,-0.362416 0.30845,-0.749202 0.46268,-1.123802 0.35303,-1.297305 0.45397,-1.476176 0.60333,-2.861455 0.26294,-2.438869 0.0225,-4.89494 -0.4472,-7.292891 -0.14713,-0.667845 -0.28017,-1.338953 -0.4414,-2.003536 -0.80942,-3.336663 -1.95811,-6.576189 -3.00707,-9.841373 -0.68488,-2.21276 -1.47963,-4.518683 -1.48109,-6.863611 -2.1e-4,-0.343345 0.0407,-0.68548 0.0611,-1.028221 0.14025,-0.718643 0.15687,-1.096309 0.49815,-1.746338 0.37145,-0.70753 0.97454,-1.253738 1.7762,-1.407924 0.2448,-0.04709 0.49835,-0.01601 0.7475,-0.024 0.2425,0.05773 0.49224,0.09078 0.72748,0.173188 1.39369,0.488244 2.38294,1.671548 3.18778,2.849296 0.15867,0.267898 0.32639,0.530645 0.47603,0.803695 0.55502,1.012688 1.00127,2.094826 1.24775,3.224779 0.1538,0.922716 -1.15112,1.140201 -1.3049,0.217485 z"
     id="path9606"
     style="fill:#f2f2f2;fill-opacity:0.941176;stroke:none;stroke-width:1;stroke-miterlimit:4;stroke-dasharray:none;stroke-opacity:1" />
  <path
     d="m 398.01675,73.954782 c -1.11194,0.442322 -2.18794,0.964602 -3.24956,1.515139 -0.61526,0.322884 -1.21676,0.671214 -1.83136,0.995246 -0.19402,0.102288 -0.69917,0.365427 -0.92478,0.446109 -0.13208,0.04723 -0.27141,0.07092 -0.40711,0.106386 -0.91165,0.209714 -1.20822,-1.079529 -0.2966,-1.289243 v 0 c 0.0547,-0.0083 0.11197,-0.0066 0.16415,-0.02503 0.20952,-0.07414 0.66297,-0.311181 0.83463,-0.401661 0.62161,-0.327673 1.22983,-0.680257 1.85232,-1.006345 1.09053,-0.564907 2.19535,-1.101929 3.33719,-1.556555 0.85981,-0.36849 1.38094,0.847463 0.52112,1.215951 z"
     id="path9608"
     style="fill:#f2f2f2;fill-opacity:0.941176;stroke:none;stroke-width:1;stroke-miterlimit:4;stroke-dasharray:none;stroke-opacity:1" />
  <path
     d="m 403.54207,62.163131 c -0.27109,1.720802 -0.48972,3.447053 -0.6649,5.180118 -0.36425,4.025006 -0.30599,8.07057 -0.31506,12.107286 -0.01,4.003228 -0.0916,8.006008 -0.24662,12.00617 -0.008,0.177665 -0.0634,1.364191 -0.0664,1.663088 0,0.114827 0.1184,0.388684 0.0124,0.344274 -0.30003,-0.125828 -0.48783,-0.43061 -0.73175,-0.645912 0.90074,-0.252447 1.25775,1.021384 0.35703,1.273831 v 0 c -0.31584,-0.195148 -0.69268,-0.315444 -0.9475,-0.585446 -0.0988,-0.10469 -0.0138,-0.287729 -0.0124,-0.431673 0.003,-0.296301 0.0586,-1.486503 0.0667,-1.66941 0.15446,-3.984074 0.23608,-7.970765 0.24561,-11.957899 0.009,-4.080184 -0.0484,-8.169283 0.32178,-12.237489 0.17802,-1.757487 0.39942,-3.508182 0.67437,-5.253265 0.1459,-0.923994 1.45262,-0.717669 1.30673,0.206327 z"
     id="path9610"
     style="fill:#f2f2f2;fill-opacity:0.941176;stroke:none;stroke-width:1;stroke-miterlimit:4;stroke-dasharray:none;stroke-opacity:1" />
  <path
     d="m 409.47117,74.283974 c -0.48614,-0.177321 -1.04365,-0.286324 -1.55106,-0.125487 -0.0823,0.02612 -0.15881,0.068 -0.23824,0.101997 -0.4926,0.284459 -0.54207,0.568145 -0.51191,1.101574 0.0236,0.10463 0.0394,0.211305 0.0707,0.313889 0.29752,0.975262 1.06016,1.961017 1.64362,2.779553 1.06227,1.478273 2.17508,2.922874 3.13843,4.469726 0.19249,0.309105 0.37246,0.625845 0.5587,0.938768 0.66013,1.243737 1.50338,2.798119 1.40993,4.258267 -0.0164,0.257133 -0.0922,0.507006 -0.13829,0.760508 -0.11737,0.236731 -0.20222,0.492609 -0.35216,0.710189 -0.62344,0.90468 -1.73429,1.380866 -2.79922,1.474219 -0.26466,0.0232 -0.53136,-0.0035 -0.79705,-0.0052 -0.25226,-0.05402 -0.51253,-0.07893 -0.75674,-0.162073 -0.77666,-0.264451 -1.37628,-0.803868 -1.62491,-1.601756 -0.22156,-0.71102 -0.10591,-1.090943 -0.0333,-1.818102 0.0887,-0.334788 0.15698,-0.675662 0.26609,-1.004361 0.6508,-1.960441 1.92646,-3.766244 3.03985,-5.488864 0.61159,-0.989499 1.24976,-1.976077 1.69077,-3.058162 0.19883,-0.487876 0.38425,-1.05051 0.40333,-1.587249 0.006,-0.181237 -0.0442,-0.360005 -0.0662,-0.540007 -0.0692,-0.08679 -0.11409,-0.200744 -0.20775,-0.260376 -0.14769,-0.09404 -0.6408,-0.02008 -0.732,-0.0019 -0.97779,0.1964 -0.95247,0.294561 -2.00702,0.832247 -0.83884,0.413996 -1.42431,-0.772314 -0.58547,-1.186307 v 0 c 0.50959,-0.244748 0.99727,-0.541565 1.52874,-0.734243 0.97644,-0.354002 2.2135,-0.419364 2.95544,0.453488 0.18709,0.220078 0.24419,0.523542 0.36627,0.78531 0.0177,0.289504 0.071,0.579022 0.0531,0.868511 -0.0404,0.651068 -0.26686,1.340154 -0.51195,1.934924 -0.46744,1.134546 -1.13207,2.173277 -1.77612,3.211766 -0.32853,0.508223 -1.07429,1.654541 -1.39284,2.176357 -0.57224,0.937353 -1.12012,1.900232 -1.48164,2.942069 -0.0922,0.265718 -0.15248,0.541459 -0.22874,0.812189 -0.0677,0.464936 -0.20362,1.029051 0.0367,1.478936 0.2194,0.410802 0.674,0.535053 1.09213,0.62484 0.18375,0.0077 0.36761,0.03309 0.55125,0.02302 0.66173,-0.03634 1.41084,-0.276013 1.85346,-0.798258 0.0893,-0.105283 0.14719,-0.2335 0.22077,-0.350253 0.0372,-0.147624 0.0961,-0.291425 0.11155,-0.442873 0.0413,-0.404362 -0.0391,-0.822237 -0.14785,-1.207815 -0.24101,-0.854479 -0.65087,-1.649711 -1.0772,-2.423157 -0.1769,-0.297939 -0.34774,-0.599583 -0.53075,-0.893815 -0.95258,-1.531509 -2.05655,-2.959516 -3.10684,-4.423331 -0.70425,-0.989878 -1.55692,-2.099487 -1.86511,-3.297126 -0.0459,-0.178364 -0.0629,-0.362942 -0.0944,-0.544415 0.003,-0.420801 -0.0283,-0.587301 0.10261,-0.992407 0.20468,-0.633576 0.67342,-1.081262 1.26132,-1.36475 0.15518,-0.05534 0.30602,-0.12491 0.46559,-0.166013 0.76364,-0.196712 1.57202,-0.07175 2.29817,0.202542 0.865,0.356171 0.36129,1.579443 -0.50369,1.223274 z"
     id="path9612"
     style="fill:#f2f2f2;fill-opacity:0.941176;stroke:none;stroke-width:1;stroke-miterlimit:4;stroke-dasharray:none;stroke-opacity:1" />
  <path
     d="m 406.82044,97.211432 c -0.41611,0.907518 -0.76771,1.848884 -0.98332,2.825478 -0.0554,0.2507 -0.0957,0.50449 -0.14351,0.75673 -0.21545,1.42207 -0.1755,2.87745 0.13536,4.2831 0.0661,0.299 0.15526,0.59245 0.23289,0.88868 0.35049,1.09939 0.83891,2.18797 1.71913,2.97007 0.58528,0.52005 0.78388,0.55268 1.49323,0.89377 0.32977,0.0963 0.65402,0.21404 0.98927,0.28896 0.86098,0.19241 1.67728,0.26161 2.56043,0.28652 1.67881,0.0473 3.34743,-0.1069 5.01713,-0.25324 2.25724,-0.21754 4.50406,-0.53413 6.76291,-0.73534 1.2182,-0.10851 1.33758,-0.10356 2.49963,-0.16037 1.17927,-0.0175 0.6173,-0.0464 1.6868,0.0677 0.92942,0.10581 0.77978,1.42023 -0.14965,1.31442 v 0 c -0.88522,-0.10886 -0.39497,-0.0759 -1.47286,-0.0608 -1.129,0.0547 -1.24545,0.0498 -2.43284,0.15543 -2.26417,0.20143 -4.51615,0.51979 -6.77876,0.73682 -1.73768,0.15154 -3.4749,0.31135 -5.222,0.25523 -0.96713,-0.0311 -1.91021,-0.11528 -2.85314,-0.33994 -0.40589,-0.0967 -0.79705,-0.24714 -1.19559,-0.3707 -0.89946,-0.4584 -1.1429,-0.50177 -1.8799,-1.1847 -1.02229,-0.94731 -1.61602,-2.22278 -2.02422,-3.53131 -0.085,-0.3298 -0.18282,-0.65654 -0.2549,-0.98939 -0.33885,-1.56475 -0.37758,-3.18281 -0.13226,-4.76354 0.0537,-0.27871 0.0992,-0.559156 0.16124,-0.836135 0.23722,-1.058415 0.61714,-2.07977 1.06939,-3.063795 0.40044,-0.845397 1.59602,-0.279072 1.19554,0.566322 z"
     id="path9614"
     style="fill:#f2f2f2;fill-opacity:0.941176;stroke:none;stroke-width:1;stroke-miterlimit:4;stroke-dasharray:none;stroke-opacity:1" />
  <path
     d="m 424.39785,103.0792 c 0.51152,0.5716 1.09366,1.06856 1.69799,1.53796 1.0631,0.78534 2.19813,1.46245 3.35984,2.08958 1.35493,0.70191 2.77646,1.25895 4.20002,1.80277 0.64104,0.24351 1.4096,0.53763 1.4618,1.35465 0.0339,0.53054 -0.24088,0.88998 -0.47585,1.32364 -0.15664,0.21682 -0.30465,0.44013 -0.4699,0.65048 -0.37891,0.48232 -0.86112,1.00661 -1.28334,1.44646 -0.78777,0.8207 -1.62121,1.58868 -2.46279,2.35315 -1.20267,1.03298 -0.58576,0.51241 -1.85174,1.5605 -0.72062,0.59648 -1.56417,-0.42262 -0.84355,-1.01909 v 0 c 1.23838,-1.02487 0.63678,-0.51748 1.80594,-1.52079 1.40983,-1.27975 2.83401,-2.57856 3.95645,-4.12651 0.0225,-0.0363 0.20616,-0.42046 0.32366,-0.42869 0.0433,-0.003 0.0773,0.0673 0.11851,0.0538 0.0279,-0.009 -0.007,-0.0646 -0.0308,-0.0824 -0.16693,-0.12776 -0.56002,-0.26496 -0.72049,-0.32945 -1.4773,-0.56441 -2.95182,-1.14429 -4.35687,-1.87474 -1.22539,-0.66292 -2.42332,-1.37772 -3.54327,-2.20932 -0.64662,-0.50395 -1.27196,-1.03523 -1.82102,-1.64661 -0.66146,-0.66145 0.27397,-1.5969 0.93543,-0.93544 z"
     id="path9616"
     style="fill:#f2f2f2;fill-opacity:0.941176;stroke:none;stroke-width:1;stroke-miterlimit:4;stroke-dasharray:none;stroke-opacity:1" />
  <path
     d="m 404.80921,248.54639 c -0.563,-0.97073 -1.34331,-1.77834 -2.14757,-2.54961 -0.91228,-0.78086 -1.95341,-1.50547 -3.15446,-1.7461 -0.19982,-0.04 -0.40503,-0.0458 -0.60757,-0.0687 -0.18883,0.014 -0.3802,0.008 -0.5665,0.0422 -0.56398,0.10274 -1.05182,0.41808 -1.44462,0.82658 -0.43889,0.4564 -0.53697,0.69211 -0.87233,1.24455 -0.8781,1.72433 -1.15615,3.6427 -1.16676,5.56014 -0.003,0.53251 0.0277,1.06467 0.0416,1.597 0.19357,3.52319 0.82185,7.00089 1.32254,10.48809 0.12079,0.84123 0.23215,1.68377 0.34822,2.52564 0.5243,4.31422 0.9842,8.66744 0.77261,13.02023 -0.0347,0.71329 -0.11446,1.42367 -0.17169,2.1355 -0.20362,1.54853 -0.45744,3.1259 -1.15154,4.54457 -0.26818,0.54811 -0.66445,1.15048 -1.15978,1.53244 -0.20383,0.15716 -0.4532,0.2441 -0.67982,0.36613 -1.03973,0.10879 -0.51744,0.20886 -1.52551,-0.46678 -0.63817,-0.68392 0.32907,-1.58647 0.96724,-0.90252 v 0 c -0.2408,0.15497 -0.26085,0.0996 -0.0135,0.17629 0.10697,-0.0378 0.22698,-0.0497 0.32088,-0.11337 0.37817,-0.25636 0.66612,-0.69377 0.86339,-1.08678 0.64863,-1.29228 0.86778,-2.74211 1.05995,-4.15674 0.0559,-0.68532 0.13377,-1.36919 0.16767,-2.05594 0.21121,-4.28323 -0.24623,-8.56702 -0.76052,-12.81237 -0.11533,-0.83685 -0.22598,-1.67436 -0.34605,-2.51054 -0.50842,-3.54101 -1.14591,-7.07259 -1.33668,-10.65066 -0.0135,-0.56232 -0.0455,-1.1245 -0.0408,-1.68697 0.018,-2.1616 0.35547,-4.26763 1.36366,-6.19974 0.43537,-0.69219 0.5683,-0.99889 1.15237,-1.56625 0.61317,-0.59563 1.36594,-1.00528 2.21636,-1.1294 0.26601,-0.0388 0.53721,-0.0225 0.80579,-0.0337 0.27069,0.0371 0.54509,0.0531 0.81206,0.11118 1.40573,0.30587 2.63226,1.13416 3.70062,2.0624 0.19791,0.19076 0.40092,0.3764 0.59375,0.57229 0.67778,0.68847 1.29159,1.44297 1.78551,2.27458 0.46414,0.81219 -0.6845,1.46854 -1.14861,0.65635 z"
     id="path9618"
     style="fill:#f2f2f2;fill-opacity:0.941176;stroke:none;stroke-width:1;stroke-miterlimit:4;stroke-dasharray:none;stroke-opacity:1" />
  <path
     d="m 399.66069,267.03525 c -1.22637,0.57139 -2.44867,1.15152 -3.67221,1.729 -0.63791,0.32155 -1.28815,0.62415 -1.89381,1.00555 -0.16107,0.10144 -0.32522,0.20055 -0.47077,0.32324 -0.108,0.091 -0.18989,0.20915 -0.28485,0.31372 -0.65072,0.67204 -1.60113,-0.24818 -0.95044,-0.92022 v 0 c 0.16328,-0.16211 0.31242,-0.33981 0.4898,-0.48636 0.17135,-0.14158 0.36343,-0.25636 0.55182,-0.37431 0.63846,-0.39978 1.32154,-0.72062 1.99358,-1.05799 1.23079,-0.58089 2.46025,-1.16453 3.694,-1.73902 0.85307,-0.38389 1.39595,0.82251 0.54288,1.20639 z"
     id="path9620"
     style="fill:#f2f2f2;fill-opacity:0.941176;stroke:none;stroke-width:1;stroke-miterlimit:4;stroke-dasharray:none;stroke-opacity:1" />
  <path
     d="m 409.01537,261.63668 c -0.86423,2.18897 -1.48703,4.45962 -2.09012,6.73093 -0.7696,3.06663 -1.40275,6.16733 -1.93638,9.28344 -0.34473,2.01292 -0.51451,3.25152 -0.81116,5.27068 -0.32907,2.28748 -0.60571,4.5819 -0.88019,6.87639 -0.15836,1.32374 -0.3224,2.64568 -0.44733,3.97296 -0.0143,0.68434 0.004,0.78705 -0.035,0.31086 0.59282,0.72358 -0.43048,1.56199 -1.02333,0.83841 v 0 c -0.37333,-0.79616 -0.28218,-0.37269 -0.25876,-1.27349 0.12647,-1.33842 0.2912,-2.67148 0.4509,-4.00635 0.27588,-2.30608 0.55404,-4.61209 0.88482,-6.9111 0.30025,-2.0429 0.46937,-3.27769 0.81846,-5.31519 0.53983,-3.15069 1.18057,-6.28571 1.95937,-9.38623 0.61471,-2.31343 1.25019,-4.62598 2.13003,-6.85582 0.32846,-0.87588 1.56713,-0.41137 1.23867,0.46451 z"
     id="path9622"
     style="fill:#f2f2f2;fill-opacity:0.941176;stroke:none;stroke-width:1;stroke-miterlimit:4;stroke-dasharray:none;stroke-opacity:1" />
  <path
     d="m 407.75718,284.70161 c 0.67177,-1.3757 0.96054,-2.89499 1.23118,-4.38946 0.34999,-2.26708 0.46993,-4.56115 0.50197,-6.85234 1.8e-4,-0.22757 0,-0.45516 0,-0.68273 -0.003,-0.14716 -0.005,-0.2943 -0.005,-0.44146 -1.9e-4,-0.0685 -0.064,-0.19389 0.003,-0.2055 0.43656,-0.0751 0.90551,-0.15465 1.32871,-0.0238 0.14364,0.0444 0.031,0.29916 0.0456,0.44881 0.0214,0.21937 0.0415,0.43886 0.0622,0.65828 0.22199,2.45544 0.62931,4.88821 1.03458,7.31843 0.21105,1.23481 0.42597,2.46893 0.64076,3.70311 0.11909,0.68445 0.22852,1.36533 0.39823,2.03904 0.22923,0.328 -0.0712,-0.12862 -0.65577,-0.28763 -0.0943,-0.0257 -0.22429,0.18309 -0.27564,0.0999 -0.0715,-0.11575 0.0654,-0.26421 0.0918,-0.39767 0.0494,-0.24947 0.0903,-0.50051 0.13549,-0.75078 0.16764,-0.9203 1.46915,-0.68318 1.30149,0.23712 v 0 c -0.0146,0.0789 -0.20349,1.21827 -0.3002,1.40195 -0.127,0.2413 -0.23135,0.58364 -0.49562,0.65082 -0.81544,0.20728 -0.8914,-0.19756 -1.08513,-0.63368 -0.17434,-0.7053 -0.29316,-1.41517 -0.41775,-2.131 -0.21537,-1.23767 -0.4309,-2.47529 -0.64254,-3.71362 -0.4104,-2.46112 -0.82201,-4.92495 -1.04675,-7.41158 -0.0209,-0.2199 -0.0424,-0.43969 -0.0623,-0.65964 -0.01,-0.1039 -0.12189,-0.27204 -0.0254,-0.31189 0.40299,-0.16666 0.85527,-0.19566 1.29109,-0.21148 0.0549,-0.003 -0.004,0.1098 -0.003,0.1647 0,0.15291 0.004,0.30581 0.006,0.45869 -2.1e-4,0.23339 0,0.4668 0,0.70019 -0.0336,2.36418 -0.15865,4.73136 -0.52316,7.07022 -0.30015,1.64616 -0.6268,3.31952 -1.39251,4.82367 -0.47429,0.80629 -1.61456,0.13555 -1.14027,-0.67074 z"
     id="path9624"
     style="fill:#f2f2f2;fill-opacity:0.941176;stroke:none;stroke-width:1;stroke-miterlimit:4;stroke-dasharray:none;stroke-opacity:1" />
  <path
     d="m 419.26279,270.16231 c -0.64839,1.24592 -1.09564,2.59186 -1.40493,3.95991 -0.0955,0.4222 -0.16727,0.84937 -0.25091,1.27405 -0.33909,2.18077 -0.47411,4.42277 -0.0979,6.60953 0.0614,0.35716 0.15665,0.70768 0.23497,1.06153 0.22715,0.68014 0.71504,2.29084 1.6946,2.23547 0.088,-0.005 0.16984,-0.0469 0.25477,-0.0703 0.074,-0.0489 0.15709,-0.0864 0.22212,-0.14676 0.1487,-0.13814 0.29271,-0.39907 0.17806,-0.60309 -0.0551,-0.0981 -0.19714,-0.11989 -0.28675,-0.14846 -0.67313,-0.11666 -1.33456,0.11671 -1.90685,0.46506 -0.22622,0.13771 -0.45088,0.28313 -0.64702,0.46109 -0.22926,0.20804 -0.41444,0.46003 -0.62166,0.69003 -0.63725,0.68479 -1.6057,-0.21643 -0.96845,-0.90122 v 0 c 0.27813,-0.29155 0.52974,-0.61087 0.83439,-0.87461 0.85206,-0.73766 2.27009,-1.36911 3.42021,-1.13845 0.2622,0.0526 0.49837,0.1942 0.74758,0.29131 0.17778,0.18232 0.40119,0.32932 0.53338,0.547 0.51384,0.84603 0.0695,1.91979 -0.71525,2.40627 -0.199,0.12338 -0.43305,0.1782 -0.64958,0.26731 -0.24331,0.0116 -0.48853,0.0669 -0.72999,0.0346 -1.16729,-0.15627 -1.8888,-1.21031 -2.30547,-2.21054 -0.13832,-0.33203 -0.23096,-0.68128 -0.34642,-1.0219 -0.085,-0.39251 -0.18825,-0.78153 -0.255,-1.17753 -0.39249,-2.32807 -0.25374,-4.71268 0.1125,-7.0331 0.0893,-0.44982 0.1661,-0.90229 0.2681,-1.3494 0.33679,-1.47641 0.82521,-2.92717 1.52905,-4.27027 0.45432,-0.81772 1.61073,-0.17526 1.15644,0.64246 z"
     id="path9626"
     style="fill:#f2f2f2;fill-opacity:0.941176;stroke:none;stroke-width:1;stroke-miterlimit:4;stroke-dasharray:none;stroke-opacity:1" />
  <path
     d="m 354.97719,328.34265 c -0.64839,1.24592 -1.09564,2.59186 -1.40493,3.95991 -0.0955,0.4222 -0.16727,0.84937 -0.25091,1.27405 -0.33909,2.18077 -0.47411,4.42277 -0.0979,6.60953 0.0614,0.35716 0.15665,0.70768 0.23497,1.06153 0.22715,0.68014 0.71504,2.29084 1.6946,2.23547 0.088,-0.005 0.16984,-0.0469 0.25477,-0.0703 0.074,-0.0489 0.15709,-0.0864 0.22212,-0.14676 0.1487,-0.13814 0.29271,-0.39907 0.17806,-0.60309 -0.0551,-0.0981 -0.19714,-0.11989 -0.28675,-0.14846 -0.67313,-0.11666 -1.33456,0.11671 -1.90685,0.46506 -0.22622,0.13771 -0.45088,0.28313 -0.64702,0.46109 -0.22926,0.20804 -0.41444,0.46003 -0.62166,0.69003 -0.63725,0.68479 -1.6057,-0.21643 -0.96845,-0.90122 v 0 c 0.27813,-0.29155 0.52974,-0.61087 0.83439,-0.87461 0.85206,-0.73766 2.27009,-1.36911 3.42021,-1.13845 0.2622,0.0526 0.49837,0.1942 0.74758,0.29131 0.17778,0.18232 0.40119,0.32932 0.53338,0.547 0.51384,0.84603 0.0695,1.91979 -0.71525,2.40627 -0.199,0.12338 -0.43305,0.1782 -0.64958,0.26731 -0.24331,0.0116 -0.48853,0.0669 -0.72999,0.0346 -1.16729,-0.15627 -1.8888,-1.21031 -2.30547,-2.21054 -0.13832,-0.33203 -0.23096,-0.68128 -0.34642,-1.0219 -0.085,-0.39251 -0.18825,-0.78153 -0.255,-1.17753 -0.39249,-2.32807 -0.25374,-4.71268 0.1125,-7.0331 0.0893,-0.44982 0.1661,-0.90229 0.2681,-1.3494 0.33679,-1.47641 0.82521,-2.92717 1.52905,-4.27027 0.45432,-0.81772 1.61073,-0.17526 1.15644,0.64246 z"
     id="path9626-3"
     style="fill:#f2f2f2;fill-opacity:0.941176;stroke:none;stroke-width:1;stroke-miterlimit:4;stroke-dasharray:none;stroke-opacity:1" />
  <path
     d="m 415.53706,295.43346 c -0.49879,1.12371 -0.86778,2.30121 -1.14718,3.49758 -0.085,0.36388 -0.15483,0.73109 -0.23228,1.09664 -0.33885,1.96943 -0.56308,3.99534 -0.32361,5.99173 0.0409,0.34134 0.11703,0.67757 0.17555,1.01634 0.29671,1.09366 0.72734,2.07973 1.78613,2.62628 0.64868,0.33486 1.08413,0.36105 1.80721,0.50313 0.40584,0.0243 0.81097,0.0688 1.21753,0.0733 0.98954,0.0109 1.92246,-0.0779 2.90547,-0.19032 1.46161,-0.16721 2.91245,-0.41685 4.36449,-0.64987 1.00388,-0.14991 2.01255,-0.31321 3.03027,-0.32737 0.2159,-0.003 0.43381,-0.0101 0.64735,0.022 0.18288,0.0272 0.35526,0.10256 0.5329,0.15386 0.88419,0.30541 0.45228,1.55583 -0.4319,1.25042 v 0 c -0.28832,-0.15737 -0.14973,-0.11054 -0.68234,-0.10485 -0.96964,0.0103 -1.93032,0.17102 -2.88665,0.31228 -1.47979,0.23747 -2.9585,0.49226 -4.44831,0.66059 -1.03939,0.11742 -2.07008,0.21341 -3.11769,0.19352 -0.46773,-0.009 -0.93337,-0.0654 -1.40005,-0.0981 -0.96811,-0.20976 -1.45364,-0.23315 -2.31653,-0.72863 -0.95171,-0.5465 -1.59324,-1.41243 -1.99014,-2.41893 -0.13502,-0.34232 -0.21468,-0.70395 -0.32203,-1.05592 -0.0636,-0.3813 -0.14607,-0.75991 -0.19087,-1.14388 -0.2472,-2.11994 -0.0148,-4.26968 0.34917,-6.36026 0.0818,-0.38418 0.15571,-0.77015 0.24543,-1.15255 0.29536,-1.25865 0.68548,-2.49714 1.20883,-3.6802 0.36301,-0.86212 1.58223,-0.34875 1.21925,0.51337 z"
     id="path9628"
     style="fill:#f2f2f2;fill-opacity:0.941176;stroke:none;stroke-width:1;stroke-miterlimit:4;stroke-dasharray:none;stroke-opacity:1" />
  <path
     d="m 427.65646,303.09976 c 0.59455,0.72548 1.29368,1.34797 2.02581,1.92976 1.09133,0.80598 2.354,1.32078 3.60783,1.8138 0.81849,0.33184 1.98395,0.62873 2.12005,1.6819 0.0293,0.22686 -0.043,0.45546 -0.0645,0.68318 -0.09,0.21286 -0.16171,0.43437 -0.26987,0.6386 -0.24191,0.45681 -0.58603,0.8858 -0.9185,1.27643 -0.57423,0.67456 -1.21179,1.29035 -1.8423,1.91109 -0.58933,0.58385 -1.18708,1.15932 -1.76636,1.75331 -0.16753,0.1718 -0.34125,0.33814 -0.49805,0.51983 -0.14716,0.1705 -0.275,0.35679 -0.41248,0.5352 -0.57484,0.73797 -1.61851,-0.0749 -1.04368,-0.81293 v 0 c 0.16701,-0.21254 0.32425,-0.43318 0.50107,-0.63765 0.16185,-0.18719 0.34094,-0.35875 0.51372,-0.53589 0.58314,-0.59777 1.18456,-1.17716 1.77781,-1.76474 0.87058,-0.85659 1.84446,-1.74718 2.48624,-2.79599 0.0634,-0.10355 0.11364,-0.21457 0.17047,-0.32186 0.0274,-0.0437 0.0473,-0.0931 0.0822,-0.1311 0.0183,-0.0198 0.0734,-0.01 0.0721,-0.0367 -0.007,-0.14325 -0.32697,-0.28964 -0.3674,-0.31009 -0.22447,-0.11359 -0.81592,-0.33925 -1.02492,-0.42156 -1.37599,-0.54184 -2.75653,-1.11615 -3.94779,-2.01017 -0.79595,-0.63564 -1.5576,-1.31379 -2.20589,-2.10347 -0.60878,-0.71025 0.39566,-1.5712 1.00444,-0.86095 z"
     id="path9630"
     style="fill:#f2f2f2;fill-opacity:0.941176;stroke:none;stroke-width:1;stroke-miterlimit:4;stroke-dasharray:none;stroke-opacity:1" />
  <path
     d="m 332.69674,312.36129 c -0.12645,-0.75706 -0.41281,-1.48908 -0.78034,-2.16115 -0.10176,-0.18605 -0.2163,-0.36483 -0.32446,-0.54724 -0.43669,-0.64288 -0.96943,-1.24436 -1.69529,-1.56556 -0.41074,-0.18174 -0.52186,-0.15722 -0.95774,-0.19802 -0.16203,0.0188 -0.32723,0.0193 -0.48612,0.0562 -0.49987,0.11636 -0.94493,0.42304 -1.27582,0.80938 -0.34004,0.39701 -0.40542,0.61352 -0.63701,1.08887 -0.0737,0.23784 -0.16637,0.47056 -0.22098,0.71348 -0.30303,1.3481 -0.12835,2.78598 0.1501,4.12048 0.097,0.46469 0.22434,0.92253 0.3365,1.38378 0.70268,2.48668 1.60515,4.91019 2.37992,7.37428 0.69938,2.22432 0.7193,2.3863 1.33919,4.66352 0.19201,0.82274 0.40373,1.64113 0.57603,2.46824 0.64968,3.11846 1.0769,6.34013 0.87868,9.53159 -0.0403,0.64878 -0.14558,1.29185 -0.21836,1.93778 -0.12653,0.55068 -0.21664,1.11099 -0.3796,1.65198 -0.36745,1.22002 -0.96639,2.3921 -1.90958,3.26827 -0.60976,0.56644 -0.82846,0.60377 -1.54905,0.93937 -0.37362,0.0856 -1.02283,0.29819 -1.42881,0.15349 -0.28837,-0.10279 -0.51202,-0.33579 -0.76803,-0.50366 -0.68688,-0.635 0.21116,-1.60642 0.89805,-0.97139 v 0 c -0.0188,0.0514 -0.10181,0.1235 -0.0565,0.15417 0.17539,0.11864 0.68273,-0.0175 0.81695,-0.0411 0.5102,-0.2123 0.66882,-0.23357 1.11028,-0.62277 0.79507,-0.70094 1.29039,-1.67587 1.5981,-2.67594 0.15132,-0.49181 0.23585,-1.00174 0.35378,-1.50263 0.07,-0.60388 0.17108,-1.20499 0.21003,-1.81168 0.19785,-3.08181 -0.21821,-6.19561 -0.84432,-9.20707 -0.1687,-0.8114 -0.37613,-1.61425 -0.56419,-2.42136 -0.60966,-2.24153 -0.63114,-2.40835 -1.32014,-4.59984 -0.78507,-2.49714 -1.70141,-4.95263 -2.40829,-7.47421 -0.11846,-0.49197 -0.25376,-0.98015 -0.35534,-1.47588 -0.31649,-1.54471 -0.4844,-3.19317 -0.10483,-4.74448 0.0755,-0.3085 0.19958,-0.60304 0.29938,-0.90453 0.34062,-0.65749 0.42323,-0.92903 0.92967,-1.47309 0.54517,-0.58566 1.26007,-1.00455 2.05105,-1.14716 0.25074,-0.0452 0.50842,-0.0339 0.76263,-0.0509 0.68654,0.099 0.82823,0.0663 1.46159,0.36849 0.91987,0.43883 1.61218,1.20216 2.16781,2.03628 0.12329,0.2104 0.25421,0.41651 0.36991,0.63119 0.43217,0.80188 0.76248,1.67272 0.90641,2.57395 0.12364,0.92723 -1.18766,1.10209 -1.3113,0.17484 z"
     id="path9632"
     style="fill:#f2f2f2;fill-opacity:0.941176;stroke:none;stroke-width:1;stroke-miterlimit:4;stroke-dasharray:none;stroke-opacity:1" />
  <path
     d="m 333.64011,328.81141 c -1.03926,0.44101 -2.0669,0.90842 -3.11005,1.34075 -1.10754,0.45064 -2.23308,0.85855 -3.27578,1.44928 -0.0145,0.0303 -0.0293,0.0606 -0.0439,0.0908 -0.64055,0.68173 -1.60464,-0.22415 -0.96411,-0.90588 v 0 c 0.11948,-0.11245 0.23897,-0.22492 0.35843,-0.33739 0.41804,-0.23461 0.46188,-0.26845 0.91818,-0.4826 0.81738,-0.38357 1.66989,-0.6848 2.50087,-1.0364 1.04825,-0.43413 2.08021,-0.9052 3.12507,-1.34689 0.86855,-0.34743 1.35986,0.88088 0.49133,1.2283 z"
     id="path9634"
     style="fill:#f2f2f2;fill-opacity:0.941176;stroke:none;stroke-width:1;stroke-miterlimit:4;stroke-dasharray:none;stroke-opacity:1" />
  <path
     d="m 340.90713,320.48712 c -0.58283,1.76593 -1.10451,3.55234 -1.55051,5.35789 -0.14812,0.59965 -0.28237,1.20263 -0.42358,1.80395 -1.04285,4.59854 -1.61107,9.28362 -2.16373,13.96061 -0.2118,1.87785 -0.41865,3.75624 -0.60717,5.63655 -0.054,0.53795 -0.16007,1.53014 -0.18214,2.11849 -0.007,0.1769 0.006,0.35399 0.008,0.53097 -0.003,-0.0788 -0.005,-0.15767 -0.007,-0.23649 0.59262,0.7238 -0.43098,1.56187 -1.02359,0.83807 v 0 c -0.0975,-0.19526 -0.19505,-0.39052 -0.2926,-0.58579 -0.003,-0.21301 -0.0135,-0.42619 -0.005,-0.63904 0.0227,-0.59778 0.13046,-1.60931 0.18576,-2.1608 0.18926,-1.88722 0.39682,-3.77248 0.60947,-5.65719 0.55859,-4.72654 1.13445,-9.46097 2.18964,-14.10793 0.14383,-0.61187 0.28059,-1.22544 0.43143,-1.83562 0.45204,-1.8287 0.98046,-3.63813 1.57051,-5.42687 0.28512,-0.89093 1.54509,-0.48774 1.26,0.4032 z"
     id="path9636"
     style="fill:#f2f2f2;fill-opacity:0.941176;stroke:none;stroke-width:1;stroke-miterlimit:4;stroke-dasharray:none;stroke-opacity:1" />
  <path
     d="m 341.20963,332.31698 c 0.61491,-0.58364 1.26179,-1.14319 1.99691,-1.57173 0.17243,-0.10054 0.3524,-0.18751 0.52861,-0.28128 0.89877,-0.38142 1.99925,-0.69202 2.90611,-0.13523 0.18806,0.11549 0.3357,0.28655 0.50358,0.42982 0.122,0.19907 0.27387,0.38266 0.36602,0.59716 0.55158,1.28368 0.12928,2.89198 -0.20481,4.17169 -0.3274,1.05529 -0.77822,2.07444 -1.41764,2.97955 -0.28284,0.40037 -0.37629,0.47903 -0.69368,0.81762 -0.22381,0.19563 -0.27774,0.26061 -0.51253,0.40864 -0.51054,0.3219 -0.49186,0.005 -0.74835,-1.10707 -0.0227,-0.0984 0.17754,-0.0967 0.26935,-0.13877 0.10605,-0.0486 0.21582,-0.0888 0.32372,-0.13316 0.88569,-0.30846 1.83652,-0.34206 2.75995,-0.20598 0.22129,0.0326 0.43894,0.0864 0.65841,0.12959 0.87847,0.24903 1.73641,0.6599 2.22142,1.47775 0.33446,0.56404 0.28818,0.7356 0.3684,1.37483 -0.0339,0.2509 -0.0386,0.5075 -0.10154,0.75274 -0.282,1.09871 -1.07083,2.0274 -1.90516,2.75794 -0.21953,0.19224 -0.45813,0.36155 -0.68718,0.54234 -0.66714,0.46458 -1.37657,0.88127 -2.16151,1.11379 -0.22908,0.0678 -0.46191,0.14803 -0.7008,0.15018 -0.27774,0.003 -0.54798,-0.0911 -0.82196,-0.13661 -0.90844,-0.22307 -0.59301,-1.50783 0.31546,-1.28476 v 0 c 0.081,0.0416 0.15211,0.12128 0.24318,0.12491 0.17174,0.007 0.34121,-0.0489 0.50679,-0.0951 0.65624,-0.1828 1.24565,-0.53266 1.80329,-0.91406 0.19545,-0.15161 0.3987,-0.29369 0.5864,-0.45484 0.62812,-0.53936 1.24999,-1.21402 1.51574,-2.01634 0.0452,-0.1365 0.0598,-0.28131 0.0897,-0.42196 -0.006,-0.3117 0.0262,-0.41518 -0.11165,-0.70271 -0.26943,-0.56163 -0.86612,-0.79793 -1.4224,-0.97136 -0.17582,-0.0366 -0.35002,-0.0824 -0.5275,-0.10991 -0.70925,-0.11012 -1.44489,-0.10874 -2.13154,0.11536 -0.0794,0.0316 -0.15915,0.0624 -0.23823,0.0949 -0.0392,0.0161 -0.0895,0.0832 -0.11655,0.0507 -1.01513,-1.2197 -1.01187,-0.82576 -0.43492,-1.31122 0.0835,-0.0867 0.17171,-0.16928 0.25059,-0.26032 0.73781,-0.8517 1.19544,-1.90233 1.54143,-2.96341 0.25326,-0.95338 0.60973,-2.20724 0.32719,-3.19342 -0.0279,-0.0974 -0.0799,-0.18616 -0.11991,-0.27924 -0.11679,-0.14915 -0.15804,-0.24601 -0.34796,-0.31324 -0.51133,-0.181 -1.06164,0.0501 -1.53334,0.22918 -0.38057,0.19897 -0.50771,0.25106 -0.86325,0.49451 -0.49604,0.33959 -0.94261,0.74731 -1.37962,1.15795 -0.68548,0.63653 -1.58567,-0.3329 -0.90019,-0.96941 z"
     id="path9638"
     style="fill:#f2f2f2;fill-opacity:0.941176;stroke:none;stroke-width:1;stroke-miterlimit:4;stroke-dasharray:none;stroke-opacity:1" />
  <path
     d="m 339.92169,352.73133 c 0.23669,1.79168 0.47974,3.5823 0.74612,5.3698 0.32375,2.35849 0.7601,4.7177 0.82193,7.10385 0.0116,0.45445 -0.008,0.90916 -0.0127,1.36371 -0.052,0.43363 -0.0684,0.87297 -0.15589,1.30083 -0.26919,1.31672 -0.83818,2.42004 -1.88984,3.28393 -0.89075,0.7317 -1.42634,0.85809 -2.48179,1.29254 -0.47739,0.12332 -0.94909,0.27125 -1.43217,0.36991 -1.4859,0.30353 -3.00998,0.35899 -4.52035,0.41085 -4.64666,0.15957 1.6048,-0.0836 -2.90888,0.0965 -1.7113,0.0843 -3.42151,0.27588 -5.09066,0.67207 -0.89186,0.21166 -1.10009,0.29847 -1.94303,0.57523 -0.67643,0.19637 -1.29235,0.5475 -1.94852,0.79282 -0.88003,0.31716 -1.32855,-0.92742 -0.44852,-1.24457 v 0 c 0.25522,-0.0841 -0.0464,0.0185 0.53837,-0.23593 0.67932,-0.29557 0.70504,-0.29287 1.44735,-0.56968 0.90623,-0.29548 1.12737,-0.38732 2.08389,-0.61285 1.74098,-0.4105 3.52396,-0.61145 5.30844,-0.69895 4.32221,-0.17208 -1.45389,0.0515 2.90663,-0.0964 1.41944,-0.0481 2.85144,-0.0965 4.24961,-0.37126 0.42579,-0.0837 0.84211,-0.20977 1.26317,-0.31467 0.85405,-0.33573 1.30882,-0.44167 2.03618,-0.99619 0.83106,-0.63354 1.30165,-1.50423 1.5171,-2.51489 0.0808,-0.37899 0.0974,-0.76885 0.14605,-1.15326 0.005,-0.42368 0.0257,-0.84746 0.0151,-1.27103 -0.0583,-2.3472 -0.49335,-4.66754 -0.80984,-6.98757 -0.26622,-1.7871 -0.50972,-3.57722 -0.74594,-5.36853 -0.13877,-0.92509 1.16951,-1.12133 1.30828,-0.19624 z"
     id="path9642"
     style="fill:#f2f2f2;fill-opacity:0.941176;stroke:none;stroke-width:1;stroke-miterlimit:4;stroke-dasharray:none;stroke-opacity:1" />
  <path
     d="m 320.8233,369.45435 c -0.93692,0.20957 -1.88275,0.41021 -2.78366,0.74948 -0.20852,0.0785 -0.41082,0.17264 -0.61624,0.25895 -0.79433,0.40619 -1.65267,0.91234 -2.05163,1.75522 -0.0571,0.12062 -0.0867,0.25249 -0.12997,0.37872 -0.01,0.12594 -0.034,0.25162 -0.029,0.37785 0.0296,0.75647 0.44837,1.47275 0.89181,2.05918 0.16393,0.2168 0.3492,0.41664 0.52379,0.62494 1.47402,1.57869 3.41207,2.54995 5.33435,3.46536 0.81917,0.40611 1.67494,0.73556 2.49864,1.13157 0.19582,0.0941 0.38511,0.20124 0.57767,0.30186 0.8282,0.43495 0.21309,1.60618 -0.61508,1.17123 v 0 c -0.16743,-0.0884 -0.33163,-0.1833 -0.50228,-0.26527 -0.8336,-0.40045 -1.69932,-0.73425 -2.5282,-1.14522 -2.10445,-1.00407 -4.18381,-2.07005 -5.78313,-3.81471 -0.20349,-0.24731 -0.42059,-0.48398 -0.61045,-0.74189 -0.62383,-0.84752 -1.13668,-1.87241 -1.09955,-2.95305 0.008,-0.23002 0.07,-0.45497 0.10509,-0.68246 0.0828,-0.20524 0.14602,-0.41958 0.24855,-0.61571 0.55893,-1.06921 1.61007,-1.75329 2.66014,-2.26859 0.23548,-0.0976 0.46768,-0.20355 0.70644,-0.29277 0.94925,-0.35459 1.94355,-0.5697 2.93018,-0.78922 0.91538,-0.19272 1.18793,1.10183 0.27255,1.29453 z"
     id="path9644"
     style="fill:#f2f2f2;fill-opacity:0.941176;stroke:none;stroke-width:1;stroke-miterlimit:4;stroke-dasharray:none;stroke-opacity:1" />
</svg>
