<?xml version="1.0" encoding="UTF-8" standalone="no"?>
<svg
   xmlns:dc="http://purl.org/dc/elements/1.1/"
   xmlns:cc="http://creativecommons.org/ns#"
   xmlns:rdf="http://www.w3.org/1999/02/22-rdf-syntax-ns#"
   xmlns:svg="http://www.w3.org/2000/svg"
   xmlns="http://www.w3.org/2000/svg"
   id="svg8"
   version="1.1"
   viewBox="0 0 310.27848 177.65542"
   height="177.65541mm"
   width="310.27847mm">
  <defs
     id="defs2" />
  <metadata
     id="metadata5">
    <rdf:RDF>
      <cc:Work
         rdf:about="">
        <dc:format>image/svg+xml</dc:format>
        <dc:type
           rdf:resource="http://purl.org/dc/dcmitype/StillImage" />
        <dc:title></dc:title>
      </cc:Work>
    </rdf:RDF>
  </metadata>
  <g
     transform="translate(168.24714,210.12061)"
     id="layer1">
    <path
       id="path1010"
       d="m -11.972048,-173.20412 -44.991256,100.4022 94.1991,6.369146 z"
       style="fill:#b49600;fill-opacity:1;stroke:none;stroke-width:0.26458332px;stroke-linecap:butt;stroke-linejoin:miter;stroke-opacity:1" />
    <path
       id="rect855"
       d="m -14.243742,-193.53311 0.02297,97.132318 1.144198,0.986144 1.127496,-0.986144 -0.02297,-6.377658 h 5.078243 v -2.2717 h -5.078243 v -6.53138 h 5.078243 v -2.27221 h -5.078243 v -6.53139 h 5.078243 v -2.27169 h -5.078243 v -6.53138 h 5.078243 v -2.2717 h -5.078243 v -6.53139 h 5.078243 v -2.27169 h -5.078243 v -6.53139 h 5.078243 v -2.27169 h -5.078243 v -6.5319 h 5.078243 v -2.2717 h -5.078243 v -6.53138 h 5.078243 v -2.2717 h -5.078243 v -6.53138 h 5.078243 v -2.2717 h -5.078243 v -6.53138 h 5.078243 v -2.2717 h -5.078243 v -9.25421 l -1.135848,-1.5875 z"
       style="fill:#f2f2f2;fill-opacity:0.94117647;stroke:none;stroke-width:0.26458332;stroke-opacity:1" />
    <path
       id="rect855-6"
       d="m 71.224442,-49.432544 -83.985317,-48.374312 -1.458313,0.45719 0.322466,1.51015 5.3894794,2.996982 -2.5391214,4.39789 1.9673494,1.13585 2.539122,-4.39789 5.65634102,3.26569 -2.53912202,4.39789 1.967791,1.13611 2.539122,-4.39789 5.656351,3.26569 -2.539121,4.39789 1.967341,1.13585 2.539122,-4.39789 5.6563406,3.26569 -2.539122,4.39789 1.96735,1.13585 2.539122,-4.39789 5.656349,3.26569 -2.539121,4.39789 1.967341,1.13585 2.539122,-4.39789 5.656349,3.26569 -2.539121,4.39789 1.967341,1.13585 2.539122,-4.39789 5.656791,3.26595 -2.539122,4.39789 1.96735,1.13585 2.539122,-4.39789 5.656341,3.26569 -2.539122,4.39789 1.96735,1.13585 2.539122,-4.39789 5.656341,3.26569 -2.539122,4.39789 1.96735,1.13585 2.539122,-4.39789 5.656341,3.26569 -2.539122,4.39789 1.96735,1.13585 2.539121,-4.39789 8.014381,4.6271 1.942743,-0.18992 z"
       style="fill:#f2f2f2;fill-opacity:0.94117647;stroke:none;stroke-width:0.26458332;stroke-opacity:1" />
    <path
       id="rect855-6-0"
       d="m -96.304396,-47.46521 84.031257,-48.374305 0.314116,-1.493447 -1.449959,-0.473895 -5.435421,2.996976 -2.53912,-4.397888 -1.96735,1.13585 2.539124,4.397889 -5.656341,3.26569 -2.539124,-4.397889 -1.967796,1.136102 2.539123,4.397889 -5.656345,3.265699 -2.539124,-4.397888 -1.967345,1.135842 2.539123,4.397889 -5.65634,3.265689 -2.539124,-4.397889 -1.967351,1.135852 2.539124,4.397888 -5.656344,3.265696 -2.539124,-4.397886 -1.967347,1.135842 2.539124,4.397889 -5.656344,3.265695 -2.539125,-4.397887 -1.967345,1.135842 2.539123,4.397889 -5.65679,3.265952 -2.539124,-4.397893 -1.967351,1.135852 2.539124,4.397889 -5.656342,3.265691 -2.539121,-4.397892 -1.967352,1.135852 2.539124,4.397889 -5.656342,3.26569 -2.539125,-4.397889 -1.967347,1.13585 2.539124,4.39789 -5.656342,3.26569 -2.539125,-4.39789 -1.967348,1.13585 2.539122,4.397889 -8.014376,4.627106 -0.806894,1.777425 z"
       style="fill:#f2f2f2;fill-opacity:0.94117647;stroke:none;stroke-width:0.26458332;stroke-opacity:1" />
    <path
       d="m 2.8314649,-188.94339 c -0.038291,-0.51677 -0.2111137,-1.00729 -0.4671404,-1.45567 -0.065453,-0.11463 -0.1407319,-0.22336 -0.2110978,-0.33503 -0.3365051,-0.44933 -0.7560734,-0.92999 -1.32764479,-1.07124 -0.079465,-0.0196 -0.16274256,-0.0178 -0.24411252,-0.0266 -0.0790522,0.01 -0.15999354,0.009 -0.23715662,0.0291 -0.33478787,0.0856 -0.56430068,0.38866 -0.69002274,0.69419 -0.0437621,0.10635 -0.0696357,0.21922 -0.10445485,0.32883 -0.0480007,0.36202 -0.0798142,0.47021 -0.0514377,0.85107 0.0646509,0.86771 0.40120887,1.68917 0.71582756,2.489 0.52893382,1.29167 1.20232746,2.51903 1.73559246,3.80858 0.1021955,0.24713 0.1931036,0.49879 0.2896553,0.74818 0.3310758,0.93634 0.5416127,1.91995 0.4999303,2.91786 -0.025347,0.60651 -0.079375,0.72699 -0.2105131,1.30967 -0.1635363,0.54852 -0.4116123,1.06439 -0.7224766,1.544 -0.2139342,0.33006 -0.4653968,0.63289 -0.7185739,0.93279 -0.055803,0.0601 -0.11160389,0.12024 -0.16740451,0.18035 -0.48338846,0.51827 -1.21632661,-0.16534 -0.73294081,-0.68361 v 0 c 0.0450427,-0.048 0.0900853,-0.096 0.135128,-0.14401 0.5289841,-0.62397 0.98711272,-1.2603 1.22974892,-2.05521 0.114038,-0.47793 0.1589219,-0.57244 0.1848167,-1.0745 0.045252,-0.87742 -0.1437534,-1.74247 -0.432607,-2.56609 -0.090786,-0.23542 -0.176059,-0.47303 -0.2723568,-0.70625 -0.53772849,-1.30229 -1.22048577,-2.54037 -1.75114468,-3.84601 -0.43051942,-1.10207 -0.88385392,-2.25977 -0.77356232,-3.46821 0.017383,-0.19052 0.063579,-0.37731 0.095369,-0.56596 0.1526038,-0.41719 0.176686,-0.58376 0.4491011,-0.93871 0.30488995,-0.39725 0.72662255,-0.67366 1.22390163,-0.75588 0.15270427,-0.0252 0.30930056,-0.0126 0.46394951,-0.0189 0.15263019,0.0286 0.30909146,0.0413 0.45789046,0.0857 0.7672732,0.22889 1.3539233,0.84192 1.8061306,1.4718 0.084923,0.13753 0.1759743,0.27146 0.2547725,0.4126 0.3195639,0.57234 0.527193,1.2001 0.5737066,1.85547 0.037251,0.70773 -0.9636257,0.7604 -1.0008737,0.0527 z"
       id="path837"
       style="fill:#f2f2f2;fill-opacity:0.94117647;stroke:none;stroke-width:4;stroke-miterlimit:4;stroke-dasharray:none;stroke-opacity:1" />
    <path
       d="m 3.4949155,-183.21357 c -0.7412858,0.26144 -1.5115434,0.42216 -2.2830472,0.5635 -0.47800155,0.0805 -0.95854838,0.14365 -1.43829881,0.21229 -0.70156651,0.10035 -0.84347839,-0.89181 -0.14191192,-0.99216 v 0 c 0.46690491,-0.0668 0.93456124,-0.12835 1.39985223,-0.20603 0.7150523,-0.13062 1.4292712,-0.27766 2.116918,-0.51807 0.665009,-0.245 1.0114967,0.69547 0.3464877,0.94047 z"
       id="path839"
       style="fill:#f2f2f2;fill-opacity:0.94117647;stroke:none;stroke-width:4;stroke-miterlimit:4;stroke-dasharray:none;stroke-opacity:1" />
    <path
       d="m 10.348814,-190.475 c -0.300979,0.65105 -0.5787545,1.31404 -0.7956229,1.99838 -0.066455,0.2097 -0.1240313,0.42212 -0.1860444,0.63318 -0.4560464,1.66428 -0.5587947,3.39073 -0.6603788,5.10463 -0.048281,0.83678 -0.090826,1.67398 -0.1443725,2.51045 -0.029078,0.45423 -0.07158,0.90551 -0.075692,1.3607 -0.027107,-0.0973 -0.054216,-0.19467 -0.081325,-0.292 0.4903179,0.51172 -0.2333599,1.20513 -0.7236751,0.69341 v 0 c -0.06573,-0.13764 -0.1314635,-0.27528 -0.197194,-0.41292 0.00638,-0.47114 0.047241,-0.93758 0.07734,-1.40778 0.053557,-0.83673 0.09611,-1.67419 0.1444149,-2.51121 0.1062778,-1.78973 0.2189294,-3.59179 0.6994868,-5.32856 0.066564,-0.22531 0.1284447,-0.45206 0.199689,-0.67593 0.2264913,-0.7117 0.5145458,-1.40192 0.827495,-2.07941 0.2878322,-0.64762 1.203712,-0.24056 0.915879,0.40706 z"
       id="path841"
       style="fill:#f2f2f2;fill-opacity:0.94117647;stroke:none;stroke-width:4;stroke-miterlimit:4;stroke-dasharray:none;stroke-opacity:1" />
    <path
       d="m 10.939769,-182.30689 c 0.479994,-0.68523 0.716378,-1.49423 0.9359,-2.29106 0.197641,-0.83464 0.33188,-1.68277 0.45579,-2.531 0.04158,-0.26508 0.04569,-0.79994 0.463902,-0.81468 0.547492,-0.0193 0.575868,0.23977 0.680717,0.55149 0.193895,0.75507 0.36962,1.51461 0.55962,2.27068 0.114795,0.43103 0.208296,0.86978 0.344541,1.295 0.03449,0.10765 0.07791,0.21223 0.116866,0.31834 0.241631,0.66624 -0.700577,1.00796 -0.942207,0.34172 v 0 c -0.0464,-0.12924 -0.09738,-0.25693 -0.139208,-0.38772 -0.13897,-0.43453 -0.234913,-0.88264 -0.352034,-1.32309 -0.186626,-0.7428 -0.360352,-1.4887 -0.548785,-2.23102 -0.03211,-0.26888 0.01085,0.22707 0.528643,0.13566 0.335322,-0.0592 0.361915,-0.58791 0.307504,-0.20551 -0.0092,0.0647 -0.01855,0.12939 -0.02784,0.19409 -0.130088,0.88943 -0.27114,1.77879 -0.481539,2.65329 -0.260326,0.9373 -0.550765,1.88621 -1.140899,2.67607 -0.461219,0.53809 -1.222193,-0.11417 -0.760974,-0.65226 z"
       id="path843"
       style="fill:#f2f2f2;fill-opacity:0.94117647;stroke:none;stroke-width:4;stroke-miterlimit:4;stroke-dasharray:none;stroke-opacity:1" />
    <path
       d="m 16.543763,-183.35754 c 0.147728,0.35526 0.223869,0.73382 0.350888,1.09601 0.0019,7.9e-4 0.0035,0.001 0.0053,0.002 -0.310753,0.0205 -0.621503,0.0409 -0.932254,0.0614 0.104802,-0.70092 1.096042,-0.55271 0.99124,0.14821 v 0 c -0.999389,0.24358 -0.821581,0.53253 -1.011047,0.11719 -0.117453,-0.3407 -0.19608,-0.6933 -0.325318,-1.03 -0.279173,-0.65141 0.642051,-1.04622 0.921224,-0.39482 z"
       id="path845"
       style="fill:#f2f2f2;fill-opacity:0.94117647;stroke:none;stroke-width:4;stroke-miterlimit:4;stroke-dasharray:none;stroke-opacity:1" />
    <path
       d="m 18.0179,-188.22968 c 0.07197,0.75185 0.09823,1.50736 0.144327,2.26113 0.06957,0.65373 0.0568,1.3272 0.237268,1.96423 0.01222,0.007 0.148553,0.0963 -0.01172,-0.0662 -0.03557,-0.0361 -0.08462,-0.0557 -0.126233,-0.0846 -0.01199,-0.008 -0.04148,-0.0141 -0.03452,-0.0269 0.01566,-0.0288 0.05352,-0.038 0.08016,-0.0571 0.05021,-0.0361 0.100259,-0.0725 0.150389,-0.10871 0.292505,-0.20673 0.529498,-0.48676 0.827178,-0.68639 0.05473,-0.0367 0.113678,-0.0667 0.170518,-0.1 0.09212,-0.0237 0.18124,-0.0708 0.276352,-0.071 0.263195,-6.9e-4 0.427911,0.0836 0.602986,0.27175 0.191828,0.20619 0.260524,0.50384 0.336621,0.76423 0.185116,0.68831 0.338963,1.38436 0.484518,2.08194 0.109075,0.55091 0.251108,1.1012 0.261702,1.66542 -0.0582,0.25605 -0.06525,0.51961 -0.464468,0.56829 -0.193802,0.0236 -0.364495,-0.14005 -0.546743,-0.21007 -0.520255,-0.48125 0.160327,-1.217 0.680583,-0.73576 v 0 c -0.118047,-0.0106 -0.244473,-0.0769 -0.35414,-0.0319 -0.324855,0.13317 -0.304699,0.21037 -0.317471,0.41582 0.01019,-0.49617 -0.167724,-0.98158 -0.240599,-1.46709 -0.140514,-0.67369 -0.288885,-1.34591 -0.466944,-2.01082 -0.01754,-0.0631 -0.03413,-0.12644 -0.05259,-0.18926 -0.02088,-0.071 -0.05493,-0.14254 -0.03133,-0.14424 0.02753,-0.002 0.05231,0.02 0.07985,0.0219 0.155017,0.0105 0.129003,0.009 0.237001,-0.0522 -0.118716,0.053 -0.210519,0.14748 -0.307973,0.23137 -0.197633,0.17014 -0.392464,0.344 -0.60163,0.50012 -0.16433,0.11208 -0.335373,0.24538 -0.528529,0.30749 -0.383683,0.12338 -0.702527,0.0511 -0.949733,-0.27824 -0.05469,-0.0729 -0.08036,-0.16356 -0.120544,-0.24533 -0.186187,-0.70681 -0.210288,-1.44014 -0.270359,-2.16549 -0.04458,-0.72996 -0.07127,-1.46143 -0.137404,-2.1898 -0.09367,-0.70249 0.899806,-0.83495 0.993471,-0.13247 z"
       id="path847"
       style="fill:#f2f2f2;fill-opacity:0.94117647;stroke:none;stroke-width:4;stroke-miterlimit:4;stroke-dasharray:none;stroke-opacity:1" />
    <path
       d="m 1.9789959,-106.99825 c 0.04408,-0.38528 0.021405,-0.76491 -0.040756,-1.1459 -0.083317,-0.44642 -0.2422869,-0.87166 -0.5034412,-1.24573 -0.063794,-0.0914 -0.1379273,-0.17508 -0.206891,-0.26262 -0.37162314,-0.41008 -0.84060503,-0.74462 -1.40294515,-0.8161 -0.0945303,-0.012 -0.19046824,-0.007 -0.28570237,-0.01 -0.0814917,0.0161 -0.16559212,0.0222 -0.24447235,0.0483 -0.31511343,0.10401 -0.52799193,0.3802 -0.62296413,0.68903 -0.032126,0.10446 -0.045365,0.21381 -0.068048,0.32072 -0.00712,0.13871 -0.023548,0.27727 -0.021325,0.41615 0.01016,0.63952 0.1515719,1.277 0.3022891,1.8951 0.1131623,0.46408 0.36221461,1.34948 0.48518765,1.79402 0.42225118,1.61236 0.92049599,3.28181 0.97550286,4.95898 0.00926,0.28217 -0.0113506,0.564531 -0.0170127,0.846799 -0.0410527,0.258638 -0.061087,0.521502 -0.12315296,0.77592 -0.16627475,0.681572 -0.50122137,1.314291 -0.96518147,1.839288 -0.34248198,0.387538 -0.50220558,0.474633 -0.90579308,0.773261 -0.4008094,0.232074 -0.8342895,0.470318 -1.3153178,0.457766 -0.1417479,-0.0037 -0.2975901,-0.0024 -0.4184677,-0.0764 -0.1787154,-0.109585 -0.2930657,-0.299839 -0.4395972,-0.44976 -0.3641593,-0.607988 0.4956677,-1.122987 0.859827,-0.514998 v 0 c -0.05811,-0.0024 -0.1215152,-0.03122 -0.1743287,-0.0069 -0.028768,0.01326 0.049607,0.04464 0.080833,0.04997 0.063664,0.01087 0.1304078,0.0096 0.1937253,-0.0031 0.2501159,-0.05025 0.3955123,-0.148703 0.6233054,-0.266779 0.3100572,-0.221149 0.4386844,-0.289912 0.7038287,-0.577308 0.3608096,-0.391091 0.63387283,-0.871976 0.76830233,-1.38838 0.054192,-0.208166 0.0733504,-0.423912 0.11002698,-0.635867 0.006641,-0.247902 0.0270828,-0.495822 0.0199231,-0.743702 -0.0173831,-0.6024 -0.10228262,-1.17357 -0.21212968,-1.76589 -0.18812133,-1.0144 -0.45616013,-2.012 -0.73028963,-3.00574 -0.2424007,-0.87653 -0.5049256,-1.75224 -0.6733937,-2.64713 -0.084926,-0.45113 -0.1526672,-0.9176 -0.1479418,-1.37862 0.00212,-0.19668 0.032287,-0.39206 0.048429,-0.5881 0.1167553,-0.43185 0.1203907,-0.59386 0.3734329,-0.96526 0.270756,-0.3974 0.6738408,-0.67793 1.1402218,-0.79404 0.14851327,-0.037 0.30366494,-0.0385 0.45549873,-0.0577 0.41491428,0.032 0.5052642,0.0131 0.90434847,0.14809 0.6007682,0.20315 1.1040322,0.59205 1.5167107,1.06586 0.090517,0.11902 0.1876134,0.23331 0.2715498,0.35706 0.3279828,0.48355 0.5296747,1.03299 0.6350662,1.60506 0.071601,0.45278 0.1011766,0.90597 0.051676,1.36349 -0.041616,0.70748 -1.0421461,0.64863 -1.0005298,-0.0589 z"
       id="path849"
       style="fill:#f2f2f2;fill-opacity:0.94117647;stroke:none;stroke-width:4;stroke-miterlimit:4;stroke-dasharray:none;stroke-opacity:1" />
    <path
       d="m 1.4626695,-102.0385 c -0.68486869,0.18355 -1.38806239,0.28426 -2.09117142,0.36649 -0.10737057,0.0105 -0.47105098,0.0507 -0.59256348,0.046 -0.092533,-0.004 -0.1836288,-0.0241 -0.2754418,-0.0361 -0.6974867,-0.1256 -0.5198586,-1.11199 0.177628,-0.98639 v 0 c 0.1650709,0.0785 0.4044553,-0.0365 0.57425694,-0.019 0.66038677,-0.0768 1.32113072,-0.17032 1.96420846,-0.34331 0.6875436,-0.17188 0.9306295,0.80045 0.2430833,0.97234 z"
       id="path851"
       style="fill:#f2f2f2;fill-opacity:0.94117647;stroke:none;stroke-width:4;stroke-miterlimit:4;stroke-dasharray:none;stroke-opacity:1" />
    <path
       d="m 6.8645959,-109.62137 c -0.5325772,1.14635 -0.7089696,2.42308 -0.9269254,3.65678 -0.2956957,1.78944 -0.5654992,3.58312 -0.8914183,5.36747 -0.2043721,1.118895 -0.253365,1.333163 -0.4730432,2.411803 -0.2212419,1.033785 -0.4650925,2.06284 -0.7557505,3.079337 -0.289687,-0.15944 -0.579374,-0.318881 -0.8690584,-0.478319 0.3293084,-0.627549 1.2167976,-0.161835 0.8874866,0.465714 v 0 c -0.3273504,-0.08766 -0.6547035,-0.175323 -0.9820566,-0.262985 0.2836201,-0.991539 0.5212053,-1.995432 0.7372879,-3.003804 0.2173473,-1.066749 0.2658057,-1.278583 0.4680929,-2.385756 0.326046,-1.78452 0.5954501,-3.57846 0.8915188,-5.36803 0.2353178,-1.32888 0.433369,-2.69989 1.0174182,-3.93044 0.3169417,-0.63388 1.2133897,-0.18566 0.896448,0.44823 z"
       id="path853"
       style="fill:#f2f2f2;fill-opacity:0.94117647;stroke:none;stroke-width:4;stroke-miterlimit:4;stroke-dasharray:none;stroke-opacity:1" />
    <path
       d="m 8.2915361,-106.15211 c 0.5053251,-0.22155 1.0254324,-0.42792 1.5680954,-0.53899 0.1075532,-0.022 0.2169165,-0.034 0.3253745,-0.051 0.486515,-0.0322 0.944887,0.0401 1.218771,0.50162 0.178342,0.30054 0.139478,0.47179 0.149328,0.80687 -0.113059,0.85602 -0.581607,1.57912 -1.097529,2.24816 -0.154916,0.19721 -0.328295,0.37807 -0.4995673,0.56069 -0.024977,0.0266 -0.049559,0.0537 -0.073811,0.081 -0.010901,0.0123 -0.025374,0.053 -0.03166,0.0378 -0.1112811,-0.26859 -0.1953551,-0.54766 -0.293034,-0.82149 0.1290453,-0.0404 0.3242628,-0.0442 0.4533663,-0.0485 0.343876,-0.0114 0.662755,0.0168 1.003549,0.0601 0.500165,0.0853 0.996008,0.23194 1.405249,0.54419 0.213339,0.16277 0.298532,0.27637 0.468704,0.46961 0.05669,0.0902 0.12304,0.17501 0.170064,0.27061 0.201951,0.41053 0.236106,0.89792 0.101505,1.33472 -0.03725,0.12088 -0.09689,0.2337 -0.145325,0.35055 -0.07859,0.11489 -0.146135,0.23817 -0.235765,0.34467 -0.409893,0.487032 -1.000966,0.805302 -1.581817,1.040207 -0.149336,0.0604 -0.303297,0.108664 -0.454948,0.162994 -0.281964,0.07817 -0.564693,0.168309 -0.8565201,0.205533 -0.1336887,0.01707 -0.2691447,0.01466 -0.4037171,0.02199 -0.7081467,0.02818 -0.747993,-0.973291 -0.039846,-1.001466 v 0 c 0.083571,-0.0013 0.1677009,0.0057 0.2507192,-0.004 0.2384081,-0.02792 0.484669,-0.104513 0.714388,-0.166627 0.621123,-0.217546 1.280885,-0.469401 1.692092,-1.011351 0.02749,-0.0535 0.06076,-0.10433 0.08246,-0.1604 0.09355,-0.24165 0.08088,-0.50912 -0.05131,-0.73167 -0.07943,-0.0944 -0.17068,-0.21085 -0.265655,-0.29073 -0.277005,-0.23296 -0.633978,-0.32048 -0.98139,-0.38512 -0.09577,-0.0133 -0.191031,-0.0308 -0.287292,-0.0398 -0.365046,-0.034 -0.7286439,-0.005 -1.0914167,0.0354 -0.1393534,-0.27604 -0.3018314,-0.54156 -0.4180576,-0.8281 -0.010742,-0.0265 0.036727,-0.0438 0.055745,-0.0651 0.029226,-0.0328 0.058912,-0.0652 0.088963,-0.0972 0.147746,-0.15746 0.2980637,-0.31272 0.4321625,-0.48242 0.3866278,-0.49576 0.7531978,-1.02805 0.8876038,-1.65299 0.0077,-0.0469 0.01463,-0.0939 0.02315,-0.14071 0.0039,-0.0217 0.0029,-0.0456 0.01421,-0.0645 0.0074,-0.0124 0.03078,-0.009 0.03742,-0.0219 0.02045,-0.0395 -0.07016,-0.0636 -0.114332,-0.0688 -0.05903,-0.007 -0.11888,-0.002 -0.178321,-0.002 -0.5691984,0.0792 -1.112552,0.2785 -1.6345432,0.51462 -0.6476233,0.28783 -1.0546794,-0.62804 -0.4070562,-0.91588 z"
       id="path855"
       style="fill:#f2f2f2;fill-opacity:0.94117647;stroke:none;stroke-width:4;stroke-miterlimit:4;stroke-dasharray:none;stroke-opacity:1" />
    <path
       d="m 14.075886,-103.84533 c -0.283205,0.0584 -0.876117,0.1342 -1.107271,-0.0844 -0.105812,-0.10007 -0.165695,-0.23955 -0.248544,-0.35933 0.0092,-0.13323 -0.0092,-0.27136 0.0277,-0.39971 0.09947,-0.34587 0.585711,-0.64601 0.885788,-0.79662 0.09669,-0.0485 0.197903,-0.0874 0.296854,-0.13117 0.392179,-0.14047 0.999893,-0.35048 1.393196,-0.1005 0.108561,0.069 0.187071,0.17661 0.280604,0.26492 0.04223,0.1312 0.110005,0.25678 0.126679,0.3936 0.02881,0.2364 -0.06323,0.55776 -0.141327,0.77468 -0.159284,0.44244 -0.403365,0.84913 -0.633137,1.25683 -0.427882,0.75655 -0.952069,1.45544 -1.346621,2.23079 0.06584,-0.0182 -0.11793,0.21039 -0.04393,0.25416 0.05458,0.0323 0.01773,-0.10845 0.047,-0.12098 0.03436,-0.0147 0.07443,0.007 0.111395,0.0129 0.09017,0.0135 0.179943,0.0297 0.269915,0.0445 0.989232,0.0591 1.980287,-0.0301 2.968794,-0.0722 0.427951,-0.0163 0.854795,-0.0157 1.280258,0.0334 0.703548,0.0853 0.582859,1.080303 -0.12069,0.994964 v 0 c -0.370636,-0.0481 -0.743997,-0.03575 -1.11697,-0.02703 -0.445182,0.01894 -0.529762,0.02164 -0.988803,0.04506 -0.566037,0.02888 -1.135298,0.06742 -1.702501,0.04747 -0.170387,-0.006 -0.340064,-0.02508 -0.510096,-0.03762 -0.290952,-0.06127 -0.584412,-0.08995 -0.835197,-0.273349 -0.367046,-0.268425 -0.462767,-0.626375 -0.361537,-1.051065 0.02527,-0.10598 0.07371,-0.20505 0.110559,-0.30758 0.405265,-0.78505 0.922768,-1.50242 1.365567,-2.26598 0.19585,-0.34655 0.400317,-0.69005 0.54859,-1.06073 0.0289,-0.0722 0.04879,-0.14781 0.07535,-0.22095 0.01056,-0.0291 0.0071,-0.0742 0.03594,-0.0855 0.02492,-0.01 0.04409,0.0303 0.06614,0.0455 0.03609,0.0136 0.07028,0.0341 0.10826,0.0407 0.01188,0.002 0.04017,-0.007 0.03238,-0.0161 -0.06868,-0.081 -0.54397,0.0941 -0.621724,0.11993 -0.183033,0.0768 -0.224517,0.0863 -0.39216,0.1869 -0.05063,0.0304 -0.09777,0.0662 -0.146804,0.0991 -0.02408,0.0162 -0.04373,0.0448 -0.07255,0.048 -0.07849,0.009 0.26376,-0.57936 -0.04277,-0.2331 -0.05527,-0.0555 -0.150043,-0.23022 -0.274974,-0.20802 -0.0159,0.003 0.02944,0.0149 0.04549,0.0167 0.145304,0.0162 0.293328,-0.0116 0.434575,-0.041 0.694944,-0.13899 0.891503,0.8438 0.196562,0.98279 z"
       id="path857"
       style="fill:#f2f2f2;fill-opacity:0.94117647;stroke:none;stroke-width:4;stroke-miterlimit:4;stroke-dasharray:none;stroke-opacity:1" />
    <path
       d="m -45.067556,-201.08772 c -0.406273,-0.0235 -0.820208,-0.0265 -1.218369,0.0706 -0.07786,0.019 -0.153331,0.0467 -0.229997,0.0701 -0.528042,0.20924 -0.812231,0.50819 -1.132358,0.96196 -0.03457,0.0534 -0.336844,0.6284 -0.0885,0.57398 0.564055,0.23311 1.177097,0.31058 1.77609,0.40183 0.768384,0.12858 1.562423,0.095 2.321618,0.28303 0.125818,0.0312 0.247603,0.0768 0.371404,0.11518 0.110117,0.0583 0.231174,0.0995 0.330351,0.17494 0.400015,0.30425 0.532389,0.71267 0.420335,1.20157 -0.08102,0.35351 -0.261884,0.57112 -0.45529,0.86669 -0.592055,0.73471 -1.334537,1.33592 -2.152713,1.80295 -0.153101,0.0874 -0.312208,0.16381 -0.468313,0.24571 -0.32263,0.1371 -0.513654,0.2349 -0.851172,0.31715 -0.124973,0.0305 -0.252545,0.0743 -0.38069,0.0632 -0.169913,-0.0148 -0.328237,-0.0928 -0.492356,-0.13927 -0.63995,-0.30451 -0.209312,-1.20954 0.430641,-0.90503 v 0 c -0.02925,0.0178 -0.121501,0.0477 -0.08774,0.0532 0.0774,0.0127 0.156956,-0.012 0.233429,-0.0294 0.268073,-0.061 0.426259,-0.14114 0.68421,-0.24836 0.136138,-0.0706 0.274859,-0.13643 0.408418,-0.2118 0.695921,-0.3927 1.3301,-0.89726 1.845538,-1.50902 0.301191,-0.42615 0.09237,-0.11198 0.294489,-0.45213 0.01609,-0.0271 0.03202,-0.0545 0.05161,-0.0791 0.01132,-0.0143 0.03609,-0.019 0.04044,-0.0367 0.0055,-0.0224 0.0013,-0.051 -0.01479,-0.0675 -0.0394,-0.0403 -0.09439,-0.0616 -0.141594,-0.0924 -0.08618,-0.0287 -0.170546,-0.0636 -0.25853,-0.0862 -0.257223,-0.0661 -0.506085,-0.0923 -0.77044,-0.11993 -0.503285,-0.0526 -1.009301,-0.0807 -1.510165,-0.15596 -0.44486,-0.0681 -0.892001,-0.13176 -1.328783,-0.24311 -0.221842,-0.0565 -0.511236,-0.14221 -0.715184,-0.252 -0.108723,-0.0585 -0.204814,-0.13797 -0.307224,-0.20695 -0.07955,-0.1 -0.177019,-0.18804 -0.238641,-0.29997 -0.28231,-0.51279 -0.03017,-1.09694 0.238887,-1.54838 0.176049,-0.2428 0.239244,-0.34818 0.452438,-0.56596 0.341616,-0.34898 0.755274,-0.60741 1.213318,-0.77416 0.11049,-0.0314 0.219562,-0.0682 0.331465,-0.0941 0.477014,-0.11022 0.970941,-0.1136 1.457023,-0.0851 0.707483,0.0416 0.648626,1.04215 -0.05886,1.00053 z"
       id="path859"
       style="fill:#f2f2f2;fill-opacity:0.94117647;stroke:none;stroke-width:4;stroke-miterlimit:4;stroke-dasharray:none;stroke-opacity:1" />
    <path
       d="m -43.922666,-204.50453 c 0.457424,0.85111 0.812157,1.7516 1.15593,2.65297 0.444849,1.23567 0.781785,2.50656 1.051076,3.79097 0.02972,0.16732 0.06106,0.33437 0.08917,0.50197 0.05222,0.31141 0.09488,0.62432 0.151482,0.93502 0.02834,0.15554 0.02741,0.16718 0.02437,0.0994 -1.277914,-0.68774 -0.08543,-0.2522 -0.811546,-0.15109 -0.04364,0.006 0.03487,-0.081 0.05094,-0.12197 0.109178,-0.27863 0.201121,-0.56345 0.295836,-0.84719 0.220411,-0.57944 0.438537,-1.24768 0.911892,-1.67829 0.08828,-0.0803 0.193112,-0.14028 0.289669,-0.21042 0.120147,-0.0417 0.234897,-0.10478 0.360444,-0.12506 0.417737,-0.0675 0.790279,0.10396 1.093049,0.37893 0.222319,0.20191 0.312817,0.3704 0.477978,0.61746 0.344533,0.5774 0.564692,1.21487 0.828315,1.83026 0.08114,0.1802 0.02656,0.13304 0.103601,0.18997 0.414742,0.57468 -0.397971,1.16121 -0.812713,0.58654 v 0 c -0.165952,-0.25256 -0.09649,-0.12435 -0.212421,-0.38243 -0.240085,-0.5623 -0.442505,-1.14339 -0.745974,-1.67635 -0.124219,-0.19711 -0.24719,-0.38968 -0.425649,-0.54259 -0.01402,-0.012 -0.02609,-0.0278 -0.04322,-0.0346 -0.02061,-0.008 -0.04401,-0.006 -0.06601,-0.009 -0.03701,0.0192 -0.07825,0.0319 -0.111046,0.0577 -0.126727,0.0996 -0.205856,0.22558 -0.286345,0.36426 -0.173929,0.29968 -0.296624,0.62536 -0.410909,0.95119 -0.104192,0.31192 -0.202903,0.62743 -0.32839,0.93174 -0.07373,0.17881 -0.217278,0.52319 -0.443836,0.53432 -0.232111,0.0114 -0.42609,-0.18567 -0.639132,-0.2785 -0.06549,-0.18706 -0.09316,-0.34708 -0.12599,-0.54368 -0.06524,-0.39069 -0.118864,-0.78323 -0.19458,-1.17216 -0.257561,-1.23301 -0.581427,-2.45273 -1.00661,-3.63933 -0.323487,-0.84932 -0.657068,-1.69754 -1.08327,-2.50176 -0.359328,-0.61085 0.504555,-1.11902 0.863883,-0.50816 z"
       id="path861"
       style="fill:#f2f2f2;fill-opacity:0.94117647;stroke:none;stroke-width:4;stroke-miterlimit:4;stroke-dasharray:none;stroke-opacity:1" />
    <path
       d="m -34.661737,-199.51748 c -0.286099,-0.24045 -0.673904,-0.36448 -1.048689,-0.32185 -0.08394,0.01 -0.164875,0.0369 -0.247314,0.0554 -0.429665,0.17516 -0.725363,0.53637 -0.866891,0.97537 -0.02672,0.0829 -0.03635,0.17031 -0.05453,0.25547 -7.94e-4,0.0796 -0.01127,0.15974 -0.0024,0.23887 0.02809,0.25073 0.188248,0.46321 0.421505,0.55883 0.05686,0.0233 0.118634,0.0321 0.177948,0.0481 0.51366,0.0693 0.783119,-0.12377 1.125175,-0.47446 0.04053,-0.0594 0.08106,-0.11879 0.121587,-0.17818 0.417131,-0.57295 1.227394,0.017 0.810262,0.58991 v 0 c -0.07584,0.10044 -0.151675,0.20088 -0.227512,0.30132 -0.214964,0.20737 -0.308772,0.32077 -0.572897,0.47711 -0.358804,0.21238 -0.774896,0.32243 -1.192655,0.29601 -0.138562,-0.009 -0.273592,-0.0475 -0.410387,-0.0712 -0.350372,-0.14413 -0.470847,-0.15372 -0.746762,-0.42449 -0.318524,-0.3126 -0.488218,-0.72883 -0.507328,-1.17191 -0.0062,-0.14343 0.02019,-0.28641 0.03029,-0.42961 0.0378,-0.14211 0.06327,-0.28809 0.113393,-0.42633 0.208963,-0.57629 0.618122,-1.09392 1.166267,-1.37999 0.138367,-0.0722 0.290595,-0.11398 0.435894,-0.17097 0.150098,-0.0238 0.29859,-0.0623 0.450294,-0.0712 0.635315,-0.0373 1.262046,0.19599 1.733463,0.61511 0.501131,0.50113 -0.207574,1.20984 -0.708705,0.70871 z"
       id="path863"
       style="fill:#f2f2f2;fill-opacity:0.94117647;stroke:none;stroke-width:4;stroke-miterlimit:4;stroke-dasharray:none;stroke-opacity:1" />
    <path
       d="m -34.287005,-200.50996 c 0.187921,0.66239 0.35468,1.33034 0.542933,1.99271 0.02678,0.0834 0.129281,0.41922 0.177943,0.51347 0.01307,0.0253 0.04126,0.0393 0.06189,0.059 0.409488,0.57843 -0.40854,1.15753 -0.818028,0.5791 v 0 c -0.06072,-0.0953 -0.131008,-0.18505 -0.18216,-0.28577 -0.05493,-0.10815 -0.170823,-0.48872 -0.203743,-0.59184 -0.185531,-0.65307 -0.351141,-1.31128 -0.534577,-1.96485 -0.213416,-0.67581 0.742323,-0.97762 0.955738,-0.30181 z"
       id="path865"
       style="fill:#f2f2f2;fill-opacity:0.94117647;stroke:none;stroke-width:4;stroke-miterlimit:4;stroke-dasharray:none;stroke-opacity:1" />
    <path
       d="m -32.949017,-207.94269 c 0.276079,1.21297 0.520763,2.43285 0.784614,3.64855 0.395031,1.72791 0.773268,3.45967 1.108178,5.20029 0.01961,0.0999 0.151106,0.77643 0.185396,0.93005 0.01823,0.0817 0.140097,0.21284 0.06214,0.24343 -0.07767,0.0305 -0.07456,-0.14929 -0.111836,-0.22394 0.570209,0.42087 -0.02498,1.22726 -0.595191,0.8064 v 0 c -0.08821,-0.11224 -0.196937,-0.21104 -0.264639,-0.33672 -0.04716,-0.0875 -0.05094,-0.1923 -0.07261,-0.28935 -0.03442,-0.15413 -0.167542,-0.83899 -0.187473,-0.94054 -0.333272,-1.73289 -0.710319,-3.45681 -1.103423,-5.17705 -0.262411,-1.20917 -0.505966,-2.42244 -0.780159,-3.62898 -0.16415,-0.68943 0.810856,-0.92157 0.975006,-0.23214 z"
       id="path867"
       style="fill:#f2f2f2;fill-opacity:0.94117647;stroke:none;stroke-width:4;stroke-miterlimit:4;stroke-dasharray:none;stroke-opacity:1" />
    <path
       d="m -29.894736,-208.43238 c 0.07408,0.96014 0.265104,1.90675 0.454358,2.84939 0.363839,1.67641 0.779248,3.34089 1.147694,5.01624 0.19875,0.86011 0.313259,1.73487 0.442627,2.60682 -0.284737,-0.094 -0.569471,-0.18794 -0.854205,-0.2819 0.435697,-0.55896 1.22618,0.0572 0.79048,0.61617 v 0 c -0.309248,-0.0625 -0.618495,-0.12504 -0.92774,-0.18756 -0.125339,-0.84907 -0.236893,-1.70076 -0.430038,-2.53829 -0.369658,-1.68139 -0.787191,-3.35171 -1.151496,-5.03434 -0.197893,-0.98709 -0.396584,-1.97844 -0.471988,-2.98401 -0.04421,-0.70733 0.956101,-0.76985 1.000308,-0.0625 z"
       id="path869"
       style="fill:#f2f2f2;fill-opacity:0.94117647;stroke:none;stroke-width:4;stroke-miterlimit:4;stroke-dasharray:none;stroke-opacity:1" />
    <path
       d="m -24.709072,-199.69608 c -0.21799,-0.0108 -0.458933,0.0299 -0.601409,0.21276 -0.02384,0.0306 -0.04071,0.0661 -0.06107,0.0991 -0.11516,0.3132 -0.08029,0.43531 0.177276,0.63057 0.419209,0.25165 0.917768,0.2604 1.385245,0.15283 0.124978,-0.0288 0.245385,-0.0747 0.368078,-0.11199 0.110191,-0.0527 0.225483,-0.0959 0.330573,-0.1582 0.243752,-0.14446 0.615534,-0.46442 0.576744,-0.79061 -0.0051,-0.0425 -0.03467,-0.0783 -0.05201,-0.11748 -0.14823,-0.10431 -0.342061,-0.17082 -0.524655,-0.17154 -0.142846,-5.6e-4 -0.284025,0.0308 -0.426038,0.0463 -0.707876,0.0343 -0.756314,-0.96684 -0.04844,-1.00109 v 0 c 0.24819,-0.003 0.498517,-0.0431 0.744564,-0.0104 0.365958,0.0487 0.760965,0.24516 1.0023,0.53031 0.11248,0.13291 0.162695,0.30788 0.244041,0.46182 0.01214,0.16304 0.05226,0.3264 0.03644,0.48913 -0.0632,0.65004 -0.593641,1.17433 -1.134044,1.47408 -0.150209,0.0833 -0.313621,0.14021 -0.470432,0.21032 -0.169209,0.0473 -0.335486,0.1067 -0.507624,0.14186 -0.625248,0.12769 -1.303774,0.0995 -1.878915,-0.19955 -0.121597,-0.0632 -0.228931,-0.15074 -0.343395,-0.22612 -0.233018,-0.24594 -0.33524,-0.30286 -0.454591,-0.62748 -0.122946,-0.33439 -0.0997,-0.70469 0.02783,-1.0332 0.04101,-0.10563 0.102907,-0.20192 0.15436,-0.30288 0.07193,-0.0863 0.134721,-0.18102 0.215784,-0.25875 0.368588,-0.35341 0.875437,-0.47348 1.371848,-0.43324 0.702488,0.0937 0.570024,1.08714 -0.132463,0.99347 z"
       id="path871"
       style="fill:#f2f2f2;fill-opacity:0.94117647;stroke:none;stroke-width:4;stroke-miterlimit:4;stroke-dasharray:none;stroke-opacity:1" />
    <path
       d="m -20.662752,-202.36992 c 0.295958,0.75159 0.557607,1.51622 0.828458,2.2771 0.143045,0.39194 0.294995,0.78148 0.480283,1.15573 0.08433,0.17033 0.170439,0.3544 0.311814,0.48548 -0.114478,-0.21235 -0.25354,-0.0873 -0.400074,-0.0795 -0.01011,5.3e-4 -0.01373,-0.0187 -0.01077,-0.0284 0.01585,-0.0517 0.04511,-0.0984 0.065,-0.14878 0.02609,-0.066 0.04861,-0.13337 0.07292,-0.20006 0.180142,-0.57876 0.344393,-1.16216 0.52528,-1.74073 0.108874,-0.37768 0.2257,-0.75301 0.38272,-1.11362 0.196382,-0.43934 0.175461,-0.34299 1.020008,-0.12039 0.02861,0.008 0.09908,0.31062 0.101206,0.31895 0.07137,0.34923 0.153882,0.69548 0.281837,1.02849 0.146476,0.33566 0.32929,0.67041 0.599437,0.92412 0.04237,0.0398 0.09057,0.0729 0.135856,0.10932 0.04841,0.0194 0.215077,0.17325 0.2896,0.10835 0.0077,-0.007 -0.0058,-0.0202 -0.0043,-0.0303 0.0053,-0.037 0.02829,-0.0693 0.04359,-0.10345 0.242194,-0.51132 0.317169,-1.08154 0.393324,-1.63663 0.03136,-0.24136 0.04983,-0.48396 0.06602,-0.72668 0.04757,-0.70711 1.047573,-0.63983 0.999998,0.0673 v 0 c -0.01804,0.26602 -0.03839,0.53192 -0.07317,0.79642 -0.08314,0.59919 -0.174924,1.30832 -0.449511,1.85197 -0.05676,0.11237 -0.130646,0.21523 -0.195969,0.32284 -0.217747,0.21113 -0.274908,0.31903 -0.573921,0.40819 -0.420449,0.12537 -0.80981,-0.0463 -1.142384,-0.29231 -0.07629,-0.0662 -0.156805,-0.12793 -0.228867,-0.19876 -0.355206,-0.34911 -0.605329,-0.79242 -0.797666,-1.24719 -0.138797,-0.37426 -0.242493,-0.75823 -0.319018,-1.15018 -0.0039,-0.021 -0.0077,-0.0421 -0.01185,-0.063 -0.0021,-0.0107 -0.01791,-0.0312 -0.007,-0.032 0.876996,-0.069 0.942594,-0.25955 0.791474,0.0658 -0.14307,0.3272 -0.244654,0.66958 -0.344797,1.01202 -0.18624,0.59526 -0.353165,1.19618 -0.542292,1.7905 -0.08789,0.23339 -0.204759,0.60129 -0.395179,0.77229 -0.249619,0.22417 -0.432126,0.2714 -0.759336,0.17624 -0.09607,-0.0279 -0.167592,-0.10934 -0.251388,-0.16402 -0.05587,-0.0646 -0.116941,-0.12498 -0.167614,-0.1937 -0.111625,-0.15139 -0.233159,-0.38217 -0.313846,-0.54617 -0.19807,-0.40258 -0.362072,-0.82077 -0.515586,-1.24198 -0.265406,-0.74558 -0.521874,-1.49479 -0.811006,-2.2316 -0.26984,-0.65532 0.656929,-1.03693 0.926769,-0.38161 z"
       id="path873"
       style="fill:#f2f2f2;fill-opacity:0.94117647;stroke:none;stroke-width:4;stroke-miterlimit:4;stroke-dasharray:none;stroke-opacity:1" />
    <path
       d="m -3.7019019,-205.27364 c 0.2400327,0.70593 0.401537,1.43665 0.577633,2.16055 0.2118519,0.88751 0.4311703,1.77431 0.601472,2.67097 0.021114,0.16867 0.1435312,0.72366 -0.1162129,0.8017 -0.2605775,0.0783 -0.5557679,8e-4 -0.8108341,-0.0939 -0.067802,-0.0252 -0.2297615,-0.51079 -0.2440305,-0.54987 -0.2883588,-0.8529 -0.4603591,-1.73738 -0.621292,-2.62122 -0.1119187,-0.71995 -0.2154396,-1.45734 -0.1397926,-2.18738 0.010901,-0.10511 0.032425,-0.20883 0.048636,-0.31324 0.092816,-0.39255 0.2877291,-0.759 0.6663294,-0.9437 0.2657766,-0.12967 0.3811666,-0.11209 0.670552,-0.13675 0.1275424,0.0118 0.2561167,0.0154 0.3826298,0.0354 0.9389137,0.1487 1.81883051,0.5733 2.66327996,0.98689 1.07374264,0.57243 2.10623144,1.25424 2.95512594,2.13435 0.1477777,0.15322 0.2809451,0.31987 0.4214177,0.47981 0.4173644,0.5626 0.8217059,1.2366 0.621366,1.97021 -0.1247034,0.45664 -0.2836756,0.54444 -0.5951272,0.87741 -0.1564455,0.0991 -0.3042418,0.21331 -0.4693365,0.29716 -0.6841992,0.34751 -1.5024787,0.44053 -2.25953103,0.40457 -0.18828279,-0.009 -0.37512625,-0.0374 -0.56268937,-0.0562 -0.6873187,-0.1402 -0.35347804,-0.0373 -1.00142409,-0.309 -0.64758361,-0.28792 -0.24040041,-1.20375 0.40718316,-0.91582 v 0 c 0.41122599,0.20062 0.1812581,0.1165 0.69834389,0.22798 0.15361179,0.0169 0.30655418,0.0417 0.46083007,0.0507 0.69642567,0.0406 1.41596797,-0.0549 2.02341957,-0.41363 0.1132443,-0.093 0.2378868,-0.17113 0.3064377,-0.30704 0.2050336,-0.40648 -0.1817846,-0.85757 -0.384675,-1.16749 -0.1193774,-0.13787 -0.2321031,-0.2818 -0.3581294,-0.41363 -0.7744222,-0.81006 -1.7226968,-1.43302 -2.70503385,-1.95984 -0.80999805,-0.39898 -1.64702325,-0.79995 -2.55163105,-0.92105 -0.2538042,-0.008 -0.3178228,-0.04 -0.4002431,0.24148 -0.1261772,0.7161 -0.025082,1.44792 0.088135,2.15929 0.1510295,0.83079 0.3107082,1.66252 0.5795751,2.4649 0.1973659,0.5781 0.068273,-0.0166 -0.6233557,0.29692 -0.2319099,0.10514 -0.084894,0.50049 -0.108622,0.25781 -0.00624,-0.0638 -0.017383,-0.12697 -0.026061,-0.19046 -0.1660022,-0.87994 -0.3837755,-1.74954 -0.5905659,-2.62051 -0.1630415,-0.67026 -0.3159019,-1.34492 -0.5249941,-2.00263 -0.2791725,-0.6514 0.6420485,-1.04621 0.9212236,-0.39481 z"
       id="path875"
       style="fill:#f2f2f2;fill-opacity:0.94117647;stroke:none;stroke-width:4;stroke-miterlimit:4;stroke-dasharray:none;stroke-opacity:1" />
    <path
       d="m 6.7723674,-201.56824 c -0.3235245,-0.11688 -0.5854753,-0.1167 -0.9042003,0.004 -0.2253403,0.12318 -0.3036464,0.33763 -0.3461226,0.57713 -0.00717,0.25545 0.066987,0.51429 0.2418715,0.70664 0.035317,0.0388 0.077195,0.0712 0.1157922,0.10676 0.043939,0.0257 0.084958,0.0572 0.1318181,0.0771 0.3486653,0.14803 0.7170367,-0.0562 1.0220616,-0.20731 0.3268398,-0.2161 0.8553079,-0.6134 0.8887619,-1.04692 0.00265,-0.0326 -0.016404,-0.0633 -0.024606,-0.0949 -0.1239493,0.0879 0.03098,-0.0325 -0.075001,0.0888 -0.024606,0.0282 -0.056338,0.0492 -0.084505,0.0738 -0.7083875,-0.0213 -0.6782991,-1.02309 0.030086,-1.00181 v 0 c 0.2037794,0.0316 0.4214759,0.0142 0.611333,0.0947 0.3831749,0.16241 0.396359,0.40832 0.5203481,0.74538 -0.00836,0.13518 0.00238,0.27292 -0.02503,0.40555 -0.1167553,0.56478 -0.5628666,1.04668 -1.0096553,1.37925 -0.1283441,0.0955 -0.268224,0.1745 -0.402336,0.26175 -0.3318113,0.15259 -0.4892807,0.25138 -0.8523314,0.31474 -0.4002299,0.0698 -0.8038094,0.0151 -1.1606953,-0.1829 -0.1024572,-0.0568 -0.1902804,-0.13675 -0.2854192,-0.20512 -0.076084,-0.0812 -0.1596205,-0.15605 -0.2282508,-0.24365 -0.3327955,-0.42483 -0.4555543,-0.95792 -0.3930279,-1.48751 0.022622,-0.0938 0.038055,-0.1897 0.06786,-0.28151 0.1530932,-0.47155 0.4832509,-0.82846 0.9342966,-1.02889 0.088482,-0.0284 0.1751674,-0.0632 0.2654433,-0.0852 0.4545541,-0.11095 0.9225147,-0.0556 1.3563335,0.10868 0.6514015,0.27917 0.2565929,1.20039 -0.3948113,0.92122 z"
       id="path883"
       style="fill:#f2f2f2;fill-opacity:0.94117647;stroke:none;stroke-width:4;stroke-miterlimit:4;stroke-dasharray:none;stroke-opacity:1" />
    <path
       d="m 13.559549,-206.09493 c -0.377693,-0.37338 -0.868931,-0.60557 -1.390425,-0.69922 -0.128564,-0.0231 -0.259731,-0.0281 -0.389594,-0.0421 -0.487182,0.011 -1.084207,0.0723 -1.387877,0.51444 -0.03949,0.0575 -0.06116,0.12539 -0.09174,0.18808 -0.01699,0.0728 -0.04187,0.14429 -0.05098,0.21854 -0.07862,0.64055 0.269896,1.26 0.546,1.80819 0.09528,0.17281 0.188592,0.34673 0.28585,0.51843 0.228571,0.40353 0.429911,0.73205 0.661451,1.13497 0.313287,0.54518 0.609208,1.09745 0.89482,1.65747 0.219732,0.37983 0.349486,0.8072 0.572813,1.18428 0.35134,0.61549 -0.519089,1.11236 -0.870429,0.49687 v 0 c -0.221745,-0.39704 -0.381389,-0.82452 -0.595355,-1.22604 -0.276495,-0.54288 -0.563306,-1.07811 -0.866931,-1.60646 -0.233881,-0.40698 -0.443518,-0.74922 -0.674381,-1.15774 -0.103653,-0.18343 -0.2029694,-0.36926 -0.3044557,-0.55389 -0.089823,-0.18111 -0.1871292,-0.35869 -0.2694728,-0.54332 -0.2773124,-0.62177 -0.485984,-1.31735 -0.3393837,-2.00248 0.032255,-0.15074 0.098245,-0.29222 0.1473676,-0.43834 0.083471,-0.1305 0.1515296,-0.27226 0.2504096,-0.39152 0.411432,-0.49621 1.059016,-0.72831 1.683261,-0.78661 0.175532,-0.0164 0.352528,-0.007 0.528791,-0.01 0.175193,0.0227 0.3523,0.0337 0.525581,0.0681 0.706028,0.14003 1.361419,0.4759 1.869136,0.98631 0.48224,0.51934 -0.252212,1.20133 -0.734449,0.68199 z"
       id="path885"
       style="fill:#f2f2f2;fill-opacity:0.94117647;stroke:none;stroke-width:4;stroke-miterlimit:4;stroke-dasharray:none;stroke-opacity:1" />
    <path
       d="m 13.889887,-202.32764 c -0.654916,0.26089 -1.322653,0.50031 -2.010998,0.65777 -0.160464,0.0367 -0.32299,0.0637 -0.484486,0.0956 -0.162804,0.0129 -0.325607,0.0258 -0.488411,0.0387 -0.706895,0.0506 -0.778475,-0.94909 -0.07158,-0.9997 v 0 c 0.1226,-0.008 0.245197,-0.0151 0.367797,-0.0226 0.141751,-0.0274 0.284441,-0.0503 0.425255,-0.0822 0.635124,-0.14369 1.25055,-0.36524 1.855366,-0.60343 0.647624,-0.28783 1.05468,0.62804 0.407057,0.91588 z"
       id="path887"
       style="fill:#f2f2f2;fill-opacity:0.94117647;stroke:none;stroke-width:4;stroke-miterlimit:4;stroke-dasharray:none;stroke-opacity:1" />
    <path
       d="m -38.642515,-124.75476 c -0.780833,0.19811 -1.529016,0.50019 -2.270262,0.81114 -1.204852,0.53582 -2.371431,1.1516 -3.537519,1.76572 -0.435829,0.22881 -0.872122,0.45795 -1.296572,0.70746 -0.611299,0.35858 -1.118404,-0.50593 -0.507108,-0.86451 v 0 c 0.438084,-0.2565 0.886841,-0.49457 1.336643,-0.72974 1.192043,-0.6278 2.384811,-1.25693 3.617121,-1.80328 0.792496,-0.33191 1.59289,-0.65307 2.42814,-0.86241 0.689866,-0.16232 0.919424,0.81329 0.229557,0.97562 z"
       id="path889"
       style="fill:#f2f2f2;fill-opacity:0.94117647;stroke:none;stroke-width:4;stroke-miterlimit:4;stroke-dasharray:none;stroke-opacity:1" />
    <path
       d="m -35.077363,-120.92913 c 0.09481,-0.2496 0.240233,-0.58259 0.143967,-0.85164 -0.01392,-0.0389 -0.03749,-0.0737 -0.05624,-0.11054 -0.268697,-0.30152 -0.693912,-0.35402 -1.073925,-0.38843 -0.252277,-0.004 -0.53173,-0.0126 -0.748257,0.14119 -0.06169,0.0438 -0.09581,0.0995 -0.140081,0.15885 -0.108509,0.32038 -0.0033,0.66723 0.08308,0.97968 0.142843,0.4667 0.324348,0.92045 0.449906,1.39258 0.100438,0.37766 0.09532,0.40073 0.15994,0.78319 0.06929,0.58979 0.07721,1.21681 -0.228409,1.74946 -0.06205,0.10815 -0.144751,0.20305 -0.217128,0.30458 -0.09201,0.0851 -0.175114,0.18102 -0.27604,0.25536 -0.470389,0.34646 -1.077484,0.45288 -1.649756,0.40836 -0.158531,-0.0123 -0.314479,-0.0473 -0.471715,-0.071 -0.155091,-0.048 -0.314722,-0.0832 -0.465275,-0.14389 -0.554099,-0.22352 -1.160518,-0.69063 -1.445424,-1.22622 -0.07777,-0.14619 -0.119581,-0.30883 -0.179375,-0.46325 -0.231409,-0.66986 0.715913,-0.99713 0.947325,-0.32727 v 0 c 0.01908,0.0739 0.02487,0.15257 0.05725,0.22168 0.170069,0.36303 0.568016,0.68311 0.927606,0.84109 0.102528,0.045 0.211979,0.0723 0.317968,0.10847 0.109109,0.0194 0.217146,0.0463 0.327327,0.0583 0.388741,0.0421 0.806116,-0.007 1.111573,-0.26727 0.03605,-0.0414 0.07762,-0.0786 0.108166,-0.12429 0.227936,-0.34056 0.182111,-0.7755 0.147162,-1.16004 -0.05276,-0.32535 -0.04723,-0.33934 -0.133326,-0.66647 -0.126238,-0.47965 -0.316103,-0.93874 -0.45596,-1.41421 -0.139416,-0.534 -0.262355,-1.09838 -0.02676,-1.62882 0.04299,-0.0968 0.107358,-0.18258 0.161036,-0.27387 0.181976,-0.19367 0.220875,-0.26295 0.458298,-0.39904 0.390967,-0.22409 0.843601,-0.25616 1.283351,-0.23411 0.121775,0.0136 0.244539,0.0201 0.365321,0.0407 0.497745,0.0849 1.006973,0.28175 1.341845,0.67748 0.07961,0.0941 0.133903,0.20693 0.200853,0.31039 0.03764,0.11114 0.08779,0.2188 0.112932,0.33341 0.105265,0.47989 -0.04445,0.97056 -0.228994,1.40951 -0.299701,0.64221 -1.207934,0.21837 -0.908232,-0.42384 z"
       id="path891"
       style="fill:#f2f2f2;fill-opacity:0.94117647;stroke:none;stroke-width:4;stroke-miterlimit:4;stroke-dasharray:none;stroke-opacity:1" />
    <path
       d="m -33.780201,-115.40699 c -0.205433,-0.27033 -0.522589,-0.4242 -0.850681,-0.49024 -0.08814,-0.0177 -0.178321,-0.0231 -0.26748,-0.0346 -0.408737,-0.0166 -0.834737,0.0697 -1.150009,0.34899 -0.049,0.0434 -0.08838,0.0966 -0.13257,0.14489 -0.160726,0.24158 -0.17218,0.4903 -0.0267,0.74624 0.03073,0.0541 0.0727,0.10091 0.109051,0.15137 0.31591,0.34994 0.751443,0.56818 1.217036,0.63941 0.101796,0.0156 0.205457,0.0144 0.308186,0.0216 0.443045,-0.0309 0.926651,-0.17782 1.188755,-0.56732 0.03696,-0.0549 0.0572,-0.11942 0.08581,-0.17913 -0.0019,-0.23008 -0.0072,-0.21483 -0.22561,-0.25402 -0.517203,-0.48452 0.168023,-1.21595 0.685223,-0.73143 v 0 c 0.152757,0.18427 0.350514,0.33908 0.458271,0.5528 0.161653,0.32061 0.02832,0.62336 -0.04803,0.93053 -0.07664,0.12416 -0.139353,0.25807 -0.229907,0.37248 -0.371126,0.46888 -0.958339,0.75623 -1.541581,0.84389 -0.152779,0.023 -0.308319,0.0203 -0.462479,0.0305 -0.153776,-0.0158 -0.309158,-0.0202 -0.461327,-0.0474 -0.574876,-0.10285 -1.136719,-0.3706 -1.559238,-0.77689 -0.09698,-0.0933 -0.176863,-0.20279 -0.265295,-0.30419 -0.06839,-0.11733 -0.149711,-0.22802 -0.205184,-0.35198 -0.210926,-0.47134 -0.19934,-1.0209 0.04813,-1.4755 0.06019,-0.11056 0.144142,-0.20642 0.216212,-0.30963 0.09217,-0.0881 0.1768,-0.18478 0.276529,-0.26418 0.527913,-0.42033 1.202881,-0.55826 1.862741,-0.51224 0.136252,0.0221 0.274497,0.0343 0.40876,0.0663 0.597371,0.14264 1.131454,0.4753 1.457836,1.00162 0.316941,0.63388 -0.579507,1.08211 -0.896448,0.44822 z"
       id="path893"
       style="fill:#f2f2f2;fill-opacity:0.94117647;stroke:none;stroke-width:4;stroke-miterlimit:4;stroke-dasharray:none;stroke-opacity:1" />
    <path
       d="m -32.551453,-110.52145 c 0.619573,0.051 1.23779,-0.0361 1.848163,-0.13392 0.741997,-0.14258 1.47643,-0.32093 2.211403,-0.49529 0.489863,-0.11123 1.102087,-0.31958 1.263219,0.4342 0.03186,0.14906 -0.119573,0.28043 -0.179359,0.42065 -0.630216,0.59843 -1.309809,1.14276 -1.966264,1.71205 -0.803637,0.71106 -1.621502,1.40636 -2.41722,2.12632 -0.03658,0.0467 -0.07315,0.0934 -0.109733,0.14008 -0.452782,0.54521 -1.223823,-0.0951 -0.771041,-0.64033 v 0 c 0.06949,-0.081 0.138972,-0.16204 0.20846,-0.24306 0.80115,-0.72439 1.623793,-1.42482 2.432926,-2.14024 0.610205,-0.52907 1.231434,-1.04529 1.838139,-1.5783 -0.01246,0.0807 -0.07491,0.1695 -0.0374,0.24199 0.377352,0.72925 0.193921,0.36838 0.475025,0.40897 0.02897,0.004 -0.05866,0.001 -0.08764,0.005 -0.05706,0.008 -0.113644,0.0194 -0.170053,0.0312 -0.08288,0.0173 -0.165143,0.0374 -0.247714,0.0562 -0.759325,0.18012 -1.518094,0.36456 -2.285074,0.50987 -0.703665,0.11147 -1.41665,0.20645 -2.13015,0.13866 -0.70323,-0.0879 -0.578916,-1.08242 0.124317,-0.99452 z"
       id="path895"
       style="fill:#f2f2f2;fill-opacity:0.94117647;stroke:none;stroke-width:4;stroke-miterlimit:4;stroke-dasharray:none;stroke-opacity:1" />
    <path
       d="m -26.964948,-106.74576 c -0.413416,-0.12088 -0.844859,-0.23054 -1.279538,-0.21365 -0.08839,0.003 -0.17594,0.0186 -0.263911,0.0279 -0.396184,0.0811 -0.80691,0.25685 -1.05587,0.5927 -0.03662,0.0494 -0.06003,0.10733 -0.09005,0.161 -0.01421,0.0524 -0.0365,0.10334 -0.04258,0.15734 -0.03577,0.31778 0.289492,0.4903 0.517044,0.61948 0.540848,0.2196 1.163563,0.33755 1.732809,0.14376 0.08037,-0.0273 0.152273,-0.0751 0.228409,-0.1127 0.0013,0.0548 0.189529,-0.16767 0.121248,-0.21199 -0.03003,-0.0195 -0.07051,0.0125 -0.105759,0.0187 -0.132617,-0.69618 0.851937,-0.88373 0.984557,-0.18755 v 0 c 0.0036,0.21019 0.05845,0.42581 0.0108,0.63055 -0.07681,0.33 -0.367485,0.48551 -0.606414,0.66734 -0.142664,0.0589 -0.280064,0.1327 -0.427993,0.17677 -0.647404,0.19288 -1.376508,0.13395 -2.009825,-0.0814 -0.158851,-0.054 -0.309002,-0.13088 -0.4635,-0.19632 -0.325443,-0.21765 -0.479692,-0.27598 -0.707673,-0.60413 -0.243647,-0.35069 -0.319455,-0.78595 -0.217847,-1.19875 0.03081,-0.12517 0.09442,-0.2399 0.141631,-0.35986 0.07277,-0.10755 0.135509,-0.22261 0.21831,-0.32265 0.326488,-0.39444 0.811689,-0.67156 1.299446,-0.81038 0.125206,-0.0356 0.254841,-0.0533 0.382265,-0.08 0.129354,-0.0105 0.258318,-0.0286 0.388067,-0.0315 0.543591,-0.0122 1.082955,0.11749 1.598308,0.27691 0.66358,0.24884 0.311663,1.18729 -0.351917,0.93845 z"
       id="path897"
       style="fill:#f2f2f2;fill-opacity:0.94117647;stroke:none;stroke-width:4;stroke-miterlimit:4;stroke-dasharray:none;stroke-opacity:1" />
    <path
       d="m -25.351201,-103.58863 c -0.401201,-0.19232 -0.851106,-0.25822 -1.293347,-0.23158 -0.100359,0.006 -0.199869,0.022 -0.299804,0.0331 -0.199165,0.0487 -0.435637,0.0839 -0.585259,0.24266 -0.0016,0.002 -0.07313,0.10058 -0.02341,0.12392 0.01585,0.007 0.03392,-0.009 0.05089,-0.0132 0.02098,0.0102 0.0431,0.0184 0.06294,0.0307 0.04625,0.0287 0.08785,0.0646 0.134884,0.092 0.336648,0.19592 0.706948,0.31435 1.088197,0.39017 0.166714,0.0332 0.336307,0.0497 0.504457,0.0745 0.425818,0.0284 0.881018,0.0671 1.295869,-0.0697 0.05697,-0.0188 0.127119,-0.04 0.153527,-0.0939 0.01715,-0.035 -0.08414,-0.006 -0.115687,0.0167 -0.07811,0.0566 -0.132151,0.14059 -0.198228,0.21088 -0.415639,-0.57403 0.396158,-1.16184 0.811797,-0.58781 v 0 c 0.08923,0.28478 0.28176,0.55624 0.26769,0.85434 -0.0082,0.17394 -0.191241,0.29847 -0.327248,0.40722 -0.114644,0.0917 -0.262638,0.13483 -0.403267,0.1769 -0.527748,0.1579 -1.097084,0.11833 -1.636223,0.0761 -0.202224,-0.0319 -0.40636,-0.0534 -0.606668,-0.0957 -0.631058,-0.13319 -1.457585,-0.39848 -1.843379,-0.96166 -0.08499,-0.12406 -0.123298,-0.27434 -0.184949,-0.4115 0.0013,-0.14673 -0.02569,-0.2965 0.004,-0.44019 0.02569,-0.12417 0.08787,-0.24052 0.15857,-0.34578 0.28978,-0.43145 0.809795,-0.5832 1.289757,-0.67382 0.13309,-0.0128 0.265708,-0.0323 0.399275,-0.0382 0.617855,-0.0277 1.239594,0.0829 1.792848,0.36363 0.615328,0.35161 0.118068,1.22182 -0.497261,0.8702 z"
       id="path899"
       style="fill:#f2f2f2;fill-opacity:0.94117647;stroke:none;stroke-width:4;stroke-miterlimit:4;stroke-dasharray:none;stroke-opacity:1" />
    <path
       d="m -116.26591,-98.880376 c -1.30918,0.63763 -2.6065,1.296984 -3.88815,1.988284 -1.50183,0.83282 -2.96791,1.73107 -4.37058,2.72218 -0.15335,0.11327 -0.468,0.33694 -0.62868,0.48171 -0.0234,0.0211 -0.0467,0.10402 -0.058,0.0746 -0.10489,-0.27161 -0.15849,-0.56032 -0.23774,-0.84048 0.70826,-0.0252 0.74391,0.97641 0.0357,1.00163 v 0 c -0.18159,-0.27652 -0.43171,-0.51865 -0.54476,-0.82955 -0.0291,-0.0801 0.11215,-0.129 0.1754,-0.18617 0.16454,-0.14875 0.52247,-0.40423 0.68,-0.52049 1.43608,-1.01344 2.93537,-1.93429 4.47296,-2.7856 1.28031,-0.690404 2.5754,-1.350764 3.88397,-1.986024 0.62217,-0.339364 1.1021,0.54052 0.47993,0.87988 z"
       id="path901"
       style="fill:#f2f2f2;fill-opacity:0.94117647;stroke:none;stroke-width:4;stroke-miterlimit:4;stroke-dasharray:none;stroke-opacity:1" />
    <path
       d="m -114.98835,-94.068562 c -0.43075,-0.18634 -0.87693,-0.36716 -1.34865,-0.41258 -0.0873,-0.008 -0.17525,-0.006 -0.26288,-0.009 -0.26086,0.0166 -0.61204,0.0568 -0.72901,0.33807 -0.0128,0.0307 -0.013,0.0653 -0.0195,0.098 -0.001,0.0432 -0.007,0.0865 -0.003,0.12948 0.041,0.44002 0.38839,1.024 0.59349,1.40553 0.34484,0.686119 0.7471,1.368379 0.92724,2.123015 0.0324,0.135758 0.0467,0.275207 0.0701,0.412809 -0.003,0.135352 0.0116,0.272116 -0.008,0.406058 -0.0673,0.457856 -0.32261,0.834824 -0.72615,1.06579 -0.35882,0.205369 -0.58564,0.205657 -0.98534,0.272081 -0.18702,0.0019 -0.37428,0.01564 -0.56104,0.0057 -0.76259,-0.04052 -1.55236,-0.24538 -2.21938,-0.622284 -0.15304,-0.08648 -0.29226,-0.195416 -0.43839,-0.293124 -0.12002,-0.145696 -0.24004,-0.291389 -0.36007,-0.437084 -0.42409,-0.567809 0.37891,-1.167569 0.80301,-0.59976 v 0 c 0.041,0.06988 0.082,0.139758 0.12297,0.209637 0.10288,0.07265 0.20001,0.154244 0.30866,0.217956 0.65757,0.385596 1.44359,0.535789 2.19777,0.527455 0.27278,-0.03236 0.77218,-0.04011 0.8567,-0.391163 0.0161,-0.06673 0.0129,-0.136663 0.0193,-0.204994 -0.0129,-0.09229 -0.018,-0.186007 -0.0388,-0.27686 -0.15795,-0.692213 -0.54125,-1.312463 -0.85175,-1.941483 -0.32341,-0.604169 -0.74377,-1.311209 -0.70209,-2.023519 0.007,-0.12576 0.0466,-0.2476 0.0699,-0.3714 0.0545,-0.1133 0.0947,-0.23461 0.16334,-0.33991 0.34268,-0.52546 0.96564,-0.69748 1.55647,-0.71115 0.12571,0.007 0.25201,0.007 0.37712,0.0208 0.55442,0.0624 1.08221,0.2615 1.5897,0.48365 0.64929,0.28406 0.24756,1.20229 -0.40172,0.91822 z"
       id="path903"
       style="fill:#f2f2f2;fill-opacity:0.94117647;stroke:none;stroke-width:4;stroke-miterlimit:4;stroke-dasharray:none;stroke-opacity:1" />
    <path
       d="m -113.45881,-87.865438 c -0.40411,-0.153985 -0.85933,-0.192633 -1.28433,-0.10654 -0.0988,0.02003 -0.1942,0.05432 -0.29129,0.08147 -0.28226,0.114049 -0.58795,0.278979 -0.67059,0.599636 -0.0407,0.157827 -0.008,0.219477 0.025,0.37601 0.0344,0.07263 0.061,0.149495 0.10321,0.217898 0.26142,0.423854 0.70742,0.69733 1.18005,0.829257 0.14492,0.04045 0.29586,0.05489 0.44379,0.08233 0.14647,-0.0021 0.29397,0.0109 0.4394,-0.0066 0.42965,-0.05186 0.95239,-0.271079 1.04521,-0.7488 0.0165,-0.08473 -0.002,-0.172609 -0.003,-0.258914 -0.063,-0.0781 -0.12602,-0.156196 -0.18903,-0.234296 -0.29619,-0.643842 0.61434,-1.062718 0.91053,-0.418873 v 0 c 0.0913,0.257212 0.18249,0.514422 0.27373,0.771634 -0.0357,0.203798 -0.0357,0.417205 -0.10705,0.611394 -0.29455,0.801065 -1.13357,1.214241 -1.93646,1.280096 -0.21055,0.01728 -0.42241,-0.0091 -0.63361,-0.01363 -0.20586,-0.04488 -0.41657,-0.07149 -0.61758,-0.13463 -0.72222,-0.226838 -1.40332,-0.706044 -1.74136,-1.400093 -0.0744,-0.152689 -0.1101,-0.321331 -0.16515,-0.482 -0.008,-0.164896 -0.0403,-0.330356 -0.0245,-0.494694 0.0594,-0.615116 0.48449,-1.1029 1.0145,-1.379556 0.12785,-0.06673 0.26642,-0.110485 0.39963,-0.165724 0.14384,-0.03589 0.28552,-0.082 0.43153,-0.107678 0.61864,-0.108765 1.26829,-0.03709 1.84605,0.205907 0.63388,0.316942 0.18566,1.21339 -0.44823,0.896448 z"
       id="path905"
       style="fill:#f2f2f2;fill-opacity:0.94117647;stroke:none;stroke-width:4;stroke-miterlimit:4;stroke-dasharray:none;stroke-opacity:1" />
    <path
       d="m -108.84367,-82.486966 c -0.30093,-0.425177 -0.46939,-0.937278 -0.0746,-1.382361 0.0789,-0.08895 0.18906,-0.144253 0.28359,-0.216381 0.11343,-0.03813 0.22272,-0.09207 0.34029,-0.114379 0.51137,-0.09706 1.07492,0.09817 1.48204,0.403656 0.11586,0.08693 0.21366,0.195633 0.32049,0.293449 0.084,0.124201 0.18551,0.238231 0.25206,0.372605 0.22763,0.459568 0.237,0.972915 0.0755,1.454981 -0.15606,0.465693 -0.30086,0.595886 -0.59111,0.991206 -0.15184,0.148571 -0.29395,0.307792 -0.45553,0.445709 -0.67127,0.572973 -1.48705,0.982723 -2.33157,1.228495 -0.18894,0.05499 -0.38286,0.09113 -0.57428,0.136702 -0.45111,0.08209 -0.90993,0.126283 -1.36852,0.09876 -0.12605,-0.0076 -0.40427,-0.03956 -0.53955,-0.08234 -0.0737,-0.02328 -0.14198,-0.06103 -0.21298,-0.09155 -0.0903,-0.149291 -0.30458,-0.276688 -0.27087,-0.447871 0.14747,-0.7489 0.89731,-0.593971 1.34825,-0.378222 0.10763,0.0515 0.2059,0.120626 0.30884,0.180938 0.0973,0.08455 0.20338,0.159936 0.29188,0.253648 0.5118,0.541957 0.69707,1.283237 0.8751,1.983521 0.12621,0.451905 0.1888,0.949454 0.44812,1.352695 0.1131,0.175863 0.18309,0.217956 0.33744,0.352436 0.30228,0.216757 0.65777,0.335325 1.0009,0.469482 0.65998,0.258228 0.29479,1.191588 -0.3652,0.93336 v 0 c -0.46059,-0.180335 -0.93068,-0.350399 -1.31841,-0.66906 -0.27366,-0.264393 -0.35094,-0.304885 -0.55032,-0.636281 -0.28504,-0.47377 -0.38882,-1.029311 -0.5242,-1.556885 -0.12403,-0.493281 -0.24348,-1.084601 -0.57748,-1.487524 -0.043,-0.05188 -0.0958,-0.09478 -0.1437,-0.142174 -0.14276,-0.09704 -0.14076,-0.109024 -0.29985,-0.166994 -0.0444,-0.01619 -0.14985,-0.02561 -0.13409,-0.05396 0.3649,-0.656457 0.42919,-0.323437 0.0368,-0.875921 -0.0667,0.0033 -0.0899,0.0013 0.0949,0.03269 0.29488,0.05024 0.59919,0.04541 0.89593,0.01582 0.14689,-0.01466 0.29247,-0.04032 0.43871,-0.06048 0.1609,-0.03687 0.32381,-0.06584 0.48269,-0.11062 0.86709,-0.244414 1.67276,-0.68884 2.30844,-1.329976 0.085,-0.106984 0.17914,-0.20734 0.25508,-0.320955 0.18629,-0.278712 0.33305,-0.651153 0.2111,-0.985541 -0.0239,-0.06541 -0.0657,-0.122775 -0.0986,-0.184164 -0.0528,-0.05561 -0.0996,-0.117512 -0.15832,-0.16684 -0.21326,-0.179248 -0.47988,-0.275503 -0.75535,-0.290621 -0.0324,-0.03936 -0.0175,-0.118013 -0.0541,-0.121045 -0.0594,-0.0049 0.0688,0.233458 0.0806,0.230349 0.45371,0.544444 -0.31625,1.186074 -0.76995,0.641633 z"
       id="path907"
       style="fill:#f2f2f2;fill-opacity:0.94117647;stroke:none;stroke-width:4;stroke-miterlimit:4;stroke-dasharray:none;stroke-opacity:1" />
    <path
       d="m -101.68366,-78.270262 c -0.0858,-0.321947 -0.19341,-0.673679 -0.46727,-0.888457 -0.0379,-0.02973 -0.0821,-0.05049 -0.12311,-0.07574 -0.0357,-0.0098 -0.0702,-0.0259 -0.10704,-0.02953 -0.22111,-0.0217 -0.48265,0.260382 -0.62089,0.387561 -0.52876,0.544021 -0.92114,1.198275 -1.34433,1.82313 -0.17958,0.260607 -0.35188,0.526214 -0.53107,0.78708 -0.0739,0.107585 -0.15415,0.210781 -0.21811,0.324776 0.162,-0.473821 0.0794,-0.03871 -0.54273,-0.721622 -0.0216,-0.02376 0.0566,-0.03044 0.0858,-0.04401 0.23539,-0.109627 0.34165,-0.129392 0.60195,-0.163433 0.54836,0.0088 0.95513,0.268491 1.28564,0.696166 0.0698,0.09036 0.12779,0.189291 0.19169,0.283935 0.24319,0.421053 0.39868,0.895141 0.37165,1.387245 -0.019,0.346271 -0.0694,0.418256 -0.18189,0.742522 -0.0654,0.114908 -0.1213,0.235841 -0.19634,0.344723 -0.31358,0.454966 -0.78711,0.788926 -1.29338,0.998122 -0.1348,0.0557 -0.27611,0.09407 -0.41416,0.141107 -0.43386,0.110466 -0.87516,0.13675 -1.315,0.04128 -0.14264,-0.03096 -0.28679,-0.06568 -0.4187,-0.128169 -0.15617,-0.07398 -0.29189,-0.18506 -0.43783,-0.277593 -0.58227,-0.404008 -0.0109,-1.227466 0.57135,-0.823458 v 0 c 0.0582,0.0491 0.10783,0.110662 0.17457,0.147315 0.0801,0.04398 0.17028,0.06747 0.25866,0.09064 0.28338,0.07428 0.56915,0.0633 0.853,-0.0019 0.0976,-0.03069 0.19744,-0.05496 0.29278,-0.09207 0.40329,-0.156956 0.76565,-0.41171 0.98571,-0.789591 0.026,-0.0616 0.0574,-0.121166 0.078,-0.184787 0.11457,-0.354915 0.006,-0.727287 -0.16466,-1.043001 -0.13735,-0.214974 -0.28281,-0.472255 -0.55086,-0.534355 -0.09,-0.009 -0.15965,0.0223 -0.24141,0.06042 -0.0454,0.02117 -0.0882,0.08598 -0.13456,0.06695 -0.90331,-0.370964 -0.86474,-0.189825 -0.72474,-0.701913 0.23967,-0.402995 0.53733,-0.770274 0.78485,-1.168509 0.46952,-0.693097 0.90704,-1.417933 1.50734,-2.009317 0.21602,-0.188447 0.34513,-0.324818 0.60455,-0.455925 0.33272,-0.168153 0.70003,-0.218617 1.0607,-0.111805 0.10775,0.03191 0.20479,0.09261 0.30718,0.138923 0.0893,0.06665 0.18499,0.125386 0.26775,0.199948 0.3953,0.356171 0.59841,0.861041 0.72333,1.365853 0.15375,0.69183 -0.82465,0.909249 -0.97839,0.217421 z"
       id="path909"
       style="fill:#f2f2f2;fill-opacity:0.94117647;stroke:none;stroke-width:4;stroke-miterlimit:4;stroke-dasharray:none;stroke-opacity:1" />
    <path
       d="m -95.805348,-71.948268 c -0.46032,-0.247264 -0.97048,-0.396819 -1.48872,-0.459655 -0.13812,-0.01675 -0.27748,-0.02077 -0.41622,-0.03114 -0.53471,0.0016 -1.06057,0.110054 -1.52198,0.389544 -0.31404,0.190222 -0.3772,0.27396 -0.64705,0.522996 -0.360692,0.407329 -0.616232,0.893456 -0.659912,1.443165 -0.0246,0.309112 0.0115,0.390744 0.0692,0.685292 0.0817,0.218061 0.16422,0.469029 0.36824,0.607904 0.0244,0.01656 0.0575,0.03705 0.0846,0.02551 0.0174,-0.0074 -0.009,-0.04121 -0.0254,-0.05072 -0.0322,-0.01873 -0.0722,-0.01807 -0.10828,-0.0271 -0.0309,0.0046 -0.0631,0.02365 -0.0927,0.01368 -0.0312,-0.01053 -0.0557,-0.17531 -0.0667,-0.208796 -0.11335,-0.345826 -0.25995,-0.522647 -0.48576,-0.803455 -0.24494,-0.231418 -0.34816,-0.348882 -0.63407,-0.536398 -0.11564,-0.07585 -0.24148,-0.134895 -0.36222,-0.202342 -0.61479,-0.352552 -0.11621,-1.222002 0.49858,-0.86945 v 0 c 0.15864,0.09276 0.32375,0.175241 0.47591,0.278281 0.37697,0.255277 0.49023,0.396491 0.81352,0.71534 0.107602,0.142113 0.226812,0.276141 0.322802,0.426339 0.30013,0.469633 0.57472,1.217507 0.27277,1.755037 -0.0738,0.131461 -0.20352,0.222523 -0.30529,0.333785 -0.13959,0.04109 -0.27342,0.116242 -0.418752,0.123283 -0.55745,0.02701 -0.97253,-0.512493 -1.17066,-0.96257 -0.0637,-0.144831 -0.103,-0.299252 -0.1545,-0.448879 -0.0707,-0.454239 -0.11923,-0.572122 -0.0661,-1.041204 0.0868,-0.766511 0.45387,-1.441702 0.97288,-2.000483 0.36085,-0.320628 0.4547,-0.43765 0.876262,-0.678455 0.62562,-0.357373 1.32923,-0.498708 2.04445,-0.489371 0.1693,0.01423 0.33941,0.02093 0.5079,0.04275 0.66105,0.08563 1.31094,0.286946 1.88765,0.623073 0.5827,0.403402 0.0122,1.227452 -0.57049,0.82405 z"
       id="path911"
       style="fill:#f2f2f2;fill-opacity:0.94117647;stroke:none;stroke-width:4;stroke-miterlimit:4;stroke-dasharray:none;stroke-opacity:1" />
    <path
       d="m -95.752548,-67.61737 c -0.40008,-0.225398 -0.87656,-0.326009 -1.33519,-0.289721 -0.10223,0.0081 -0.20252,0.03239 -0.30379,0.04859 -0.27527,0.07753 -0.58715,0.214908 -0.65312,0.527915 -0.0302,0.143386 0.004,0.237583 0.0308,0.380201 0.0344,0.07895 0.0598,0.16238 0.10303,0.236842 0.24066,0.414626 0.67626,0.669012 1.12643,0.799706 0.13037,0.03785 0.26609,0.05394 0.39913,0.08092 0.12069,-0.0021 0.24258,0.01071 0.36207,-0.0064 0.23964,-0.03422 0.51068,-0.15616 0.58236,-0.41202 0.0425,-0.151831 -0.0202,-0.278233 -0.0617,-0.420312 -0.0797,-0.09136 -0.15945,-0.182729 -0.23917,-0.274092 -0.38897,-0.592429 0.44885,-1.142508 0.83782,-0.55008 v 0 c 0.13159,0.230495 0.26319,0.460989 0.39479,0.691484 0.015,0.203758 0.0693,0.408405 0.0451,0.611274 -0.0704,0.589444 -0.48818,1.038024 -1.02941,1.240462 -0.4374,0.163603 -0.65248,0.11212 -1.10777,0.09836 -0.4864,-0.113517 -0.64685,-0.118113 -1.09472,-0.355309 -0.49425,-0.261758 -0.91746,-0.65047 -1.15721,-1.162561 -0.0722,-0.154151 -0.10579,-0.323564 -0.15868,-0.485346 -0.022,-0.415592 -0.0761,-0.555546 0.0866,-0.951958 0.17722,-0.431736 0.54723,-0.740603 0.96964,-0.915921 0.13609,-0.05649 0.28255,-0.08375 0.42383,-0.125619 0.15123,-0.01947 0.30144,-0.05005 0.45368,-0.05839 0.66533,-0.03647 1.34074,0.129479 1.90801,0.476361 0.5767,0.411927 -0.006,1.2275 -0.58255,0.815573 z"
       id="path913"
       style="fill:#f2f2f2;fill-opacity:0.94117647;stroke:none;stroke-width:4;stroke-miterlimit:4;stroke-dasharray:none;stroke-opacity:1" />
    <path
       d="m -92.201534,-63.19025 c -0.461849,-0.212294 -0.980194,-0.303223 -1.484723,-0.214016 -0.114771,0.02029 -0.225475,0.05913 -0.338214,0.08869 -0.314517,0.127801 -0.700247,0.318325 -0.776187,0.69053 -0.0306,0.150233 0.0113,0.204611 0.0614,0.341519 0.0433,0.0582 0.079,0.12287 0.12984,0.174604 0.37323,0.379804 0.99582,0.566219 1.506307,0.641088 0.15957,0.02339 0.321704,0.02344 0.482555,0.03515 0.284559,-0.02225 0.477052,-0.0049 0.73261,-0.131286 0.0573,-0.02834 0.113522,-0.07011 0.144574,-0.125987 0.01318,-0.02368 -0.0071,-0.06721 -0.03335,-0.07414 -0.05925,-0.01566 -0.122055,0.01127 -0.183081,0.01691 -0.269843,-0.65532 0.656921,-1.036939 0.926766,-0.381619 v 0 c 0.04944,0.273905 0.181753,0.545399 0.148318,0.821714 -0.02172,0.179615 -0.172262,0.325004 -0.302297,0.450797 -0.389123,0.376434 -1.016622,0.407477 -1.516674,0.422415 -0.207491,-0.01894 -0.416861,-0.02315 -0.622474,-0.05683 -0.785368,-0.128665 -1.669314,-0.45003 -2.154284,-1.122413 -0.10492,-0.145465 -0.1619,-0.320101 -0.24285,-0.480153 -0.0229,-0.168949 -0.0737,-0.336415 -0.0689,-0.506846 0.0192,-0.669925 0.50489,-1.204931 1.06964,-1.501466 0.14698,-0.07717 0.30748,-0.125248 0.46122,-0.187872 0.16491,-0.03795 0.327364,-0.08886 0.494729,-0.113848 0.719106,-0.107362 1.452536,0.0356 2.096212,0.363141 0.60098,0.375613 0.06978,1.225529 -0.531196,0.849916 z"
       id="path915"
       style="fill:#f2f2f2;fill-opacity:0.94117647;stroke:none;stroke-width:4;stroke-miterlimit:4;stroke-dasharray:none;stroke-opacity:1" />
    <path
       d="m -133.06779,-45.885265 c -0.009,0.579855 0.009,1.159057 0.0299,1.738416 0.017,0.462534 0.027,0.925269 0.0346,1.388038 0.006,0.463701 0.0653,0.355148 -1.00642,0.193416 -0.058,-0.0088 -0.0134,-0.116811 -0.0145,-0.175498 -10e-4,-0.06303 0.005,-0.12599 0.008,-0.188984 0.0567,-0.468252 0.16821,-0.929056 0.29617,-1.382432 0.13376,-0.492075 0.34842,-0.952037 0.63525,-1.372108 0.24212,-0.356055 0.55418,-0.65101 0.89771,-0.906799 0.27602,-0.174731 0.55508,-0.367898 0.8709,-0.465304 0.0721,-0.02225 0.14674,-0.03562 0.22011,-0.05343 0.38757,-0.07114 0.77375,-0.004 1.15346,0.07597 0.46247,0.101568 0.72151,0.294618 1.02658,0.646049 0.33129,0.443396 0.46095,0.985218 0.55777,1.519983 0.078,0.522592 0.10395,1.051079 0.0836,1.578639 -0.008,0.136896 -0.016,0.273831 -0.0292,0.410321 -0.002,0.02416 0.002,0.09424 -0.008,0.07234 -0.0118,-0.02484 0.002,-0.05496 0.003,-0.08244 -0.26018,-0.12137 -0.52036,-0.242739 -0.78053,-0.364109 0.5436,-0.454702 1.18665,0.314076 0.64304,0.768779 v 0 c -0.28637,-0.09946 -0.58843,-0.161896 -0.85912,-0.298382 -0.0405,-0.02043 -0.003,-0.09072 -0.003,-0.136077 0.002,-0.136496 0.0361,-0.273241 0.0316,-0.410351 0.0188,-0.455432 -0.005,-0.911555 -0.0688,-1.363083 -0.0628,-0.360349 -0.13746,-0.734139 -0.3356,-1.047575 -0.13526,-0.166873 -0.24836,-0.273346 -0.46891,-0.31342 -0.24085,-0.05091 -0.48617,-0.107821 -0.73382,-0.07721 -0.26418,0.0383 -0.48713,0.213905 -0.71067,0.347261 -0.25746,0.184904 -0.48612,0.407114 -0.6665,0.668996 -0.22976,0.325922 -0.38873,0.691777 -0.49545,1.07591 -0.10958,0.382582 -0.20079,0.77175 -0.25962,1.165558 -0.002,0.02524 -0.005,0.05043 -0.008,0.0757 -0.001,0.01357 0.011,0.03776 -0.002,0.04082 -1.04354,0.240411 -0.97129,0.490911 -0.97962,0.01386 -0.007,-0.456237 -0.0173,-0.912439 -0.0341,-1.36844 -0.0212,-0.591344 -0.0398,-1.182556 -0.0306,-1.774397 0,-0.708705 1.00226,-0.708705 1.00226,0 z"
       id="path939"
       style="fill:#f2f2f2;fill-opacity:0.94117647;stroke:none;stroke-width:4;stroke-miterlimit:4;stroke-dasharray:none;stroke-opacity:1" />
    <path
       d="m -125.29357,-44.986968 c -0.28094,-0.0588 -0.58708,-0.03842 -0.82497,0.13901 -0.0357,0.02661 -0.0631,0.06277 -0.0947,0.09416 -0.0165,0.03165 -0.039,0.0608 -0.0494,0.09494 -0.0461,0.152011 0.20744,0.324104 0.29334,0.39732 0.46203,0.271174 1.01069,0.360645 1.5414,0.31529 0.11559,-0.0099 0.22946,-0.03439 0.34419,-0.05158 0.36659,-0.100382 0.79818,-0.276296 0.88612,-0.694676 0.0119,-0.05662 0.007,-0.115512 0.01,-0.173268 -0.0492,-0.380159 -0.30143,-0.691187 -0.63974,-0.867664 -0.0772,-0.04028 -0.16341,-0.06038 -0.24511,-0.09057 -0.6519,-0.278022 -0.25872,-1.199941 0.39318,-0.92192 v 0 c 0.14747,0.06755 0.30261,0.120402 0.44242,0.20265 0.50631,0.297852 0.90885,0.820965 1.01361,1.403866 0.0258,0.143693 0.0163,0.291536 0.0244,0.437303 -0.0815,0.390546 -0.0621,0.489104 -0.29249,0.826826 -0.33816,0.495715 -0.891,0.738531 -1.45476,0.870228 -0.15598,0.02032 -0.31099,0.05052 -0.46794,0.06097 -0.63305,0.04216 -1.31124,-0.05612 -1.8783,-0.353388 -0.13077,-0.06855 -0.24759,-0.160927 -0.37139,-0.241392 -0.22627,-0.230058 -0.36155,-0.323017 -0.48844,-0.629817 -0.14723,-0.355994 -0.11585,-0.745884 0.0773,-1.077309 0.0595,-0.10205 0.14667,-0.185169 0.22001,-0.277752 0.0917,-0.07135 0.17662,-0.152424 0.27513,-0.214048 0.47036,-0.294262 1.03997,-0.334468 1.569,-0.210714 0.6799,0.199972 0.3971,1.161507 -0.28281,0.961535 z"
       id="path941"
       style="fill:#f2f2f2;fill-opacity:0.94117647;stroke:none;stroke-width:4;stroke-miterlimit:4;stroke-dasharray:none;stroke-opacity:1" />
    <path
       d="m -119.07784,-46.238722 c -0.14367,0.645226 -0.23543,1.299096 -0.30113,1.956305 -0.013,0.234471 -0.0336,0.470207 7.9e-4,0.703633 0.0892,0.703072 -0.9051,0.829202 -0.99429,0.12613 v 0 c -0.0361,-0.309393 -0.0308,-0.619392 -0.004,-0.929783 0.0694,-0.689539 0.16534,-1.375741 0.31559,-2.052844 0.13899,-0.694944 1.12179,-0.498382 0.9828,0.196559 z"
       id="path943"
       style="fill:#f2f2f2;fill-opacity:0.94117647;stroke:none;stroke-width:4;stroke-miterlimit:4;stroke-dasharray:none;stroke-opacity:1" />
    <path
       d="m -116.66303,-45.783154 c -0.0859,0.02111 -0.43353,0.08121 -0.46969,0.16955 -0.004,0.01048 0.0256,0.0044 0.0338,-0.0035 0.0324,-0.03131 0.0543,-0.07191 0.0815,-0.107858 0.0457,0.15734 -0.003,-0.165044 0.0438,-0.146245 0.035,0.01389 0.0579,0.04824 0.0883,0.07037 0.0489,0.03552 0.0985,0.07001 0.14944,0.102481 0.19605,0.124995 0.26309,0.155954 0.47487,0.270537 0.60177,0.291914 1.22239,0.541872 1.82147,0.839576 0.28936,0.172159 0.77205,0.389546 0.86291,0.755446 0.0295,0.118864 0.009,0.244768 0.014,0.367154 -0.0599,0.109262 -0.10288,0.229613 -0.17958,0.327787 -0.0625,0.07994 -0.1492,0.138176 -0.23117,0.197935 -0.37351,0.272298 -0.83251,0.396065 -1.27083,0.515324 -0.58206,0.121242 -1.19709,0.220876 -1.79067,0.113839 -0.0951,-0.01714 -0.18736,-0.0475 -0.28104,-0.07124 -0.084,-0.03898 -0.17462,-0.06591 -0.25185,-0.116938 -0.25486,-0.168418 -0.45319,-0.45489 -0.43342,-0.774205 0.008,-0.121957 0.0601,-0.236868 0.0902,-0.355304 0.25871,-0.659797 1.19181,-0.293923 0.9331,0.365874 v 0 c -0.0166,-0.04965 -0.017,-0.07645 -0.057,-0.110749 -0.0197,-0.01688 -0.0882,-0.04048 -0.0759,-0.01765 0.0114,0.02106 0.0389,0.02796 0.0583,0.04194 0.50226,0.155768 1.04513,0.05603 1.54889,-0.04367 0.26405,-0.0694 0.52505,-0.139216 0.77205,-0.258612 0.0503,-0.02432 0.0965,-0.05644 0.14611,-0.08226 0.0172,-0.009 0.0476,-0.04029 0.0539,-0.02193 0.0134,0.03929 -0.0129,0.08203 -0.0194,0.123044 0.0388,0.149889 0.0115,0.163973 0.11202,0.246507 0.0108,0.0089 -0.0138,-0.02495 -0.0241,-0.03438 -0.0292,-0.02662 -0.0611,-0.05028 -0.0936,-0.07283 -0.11727,-0.08148 -0.20294,-0.12582 -0.32983,-0.197916 -0.60929,-0.304181 -1.24376,-0.553122 -1.85354,-0.856271 -0.41274,-0.225481 -1.05351,-0.539046 -1.21678,-1.02158 -0.0383,-0.113215 -0.0286,-0.237321 -0.0429,-0.355981 0.0422,-0.109572 0.0653,-0.22847 0.12645,-0.328713 0.20892,-0.342733 0.72402,-0.453425 1.08579,-0.524071 0.70323,-0.0879 0.82755,0.906619 0.12432,0.994521 z"
       id="path945"
       style="fill:#f2f2f2;fill-opacity:0.94117647;stroke:none;stroke-width:4;stroke-miterlimit:4;stroke-dasharray:none;stroke-opacity:1" />
    <path
       d="m -112.56665,-45.675879 c 0.333,-0.08048 0.6704,-0.154347 0.99188,-0.274667 -0.12626,0.0778 0.19483,-0.08865 0.1486,-0.06152 -0.1359,0.07977 -0.21785,0.03371 -0.2471,0.330639 -0.0164,0.166423 0.058,0.28828 0.13111,0.413732 -0.3198,-0.05159 -0.65355,-0.05301 -0.97356,2.64e-4 -0.083,0.01381 -0.16401,0.03728 -0.24602,0.05593 -0.16452,0.05712 -0.3762,0.102823 -0.49196,0.250484 -0.01,0.0123 -0.019,0.04094 -0.004,0.04671 0.0248,0.0098 0.089,-0.05884 0.0997,-0.06891 0.38941,0.268358 0.83118,0.420388 1.29412,0.509357 0.18451,0.03546 0.37163,0.0556 0.55744,0.08341 1.03501,0.09508 2.08122,0.124942 3.11684,0.02376 0.70547,-0.06765 0.80114,0.930034 0.0957,0.997685 v 0 c -1.11843,0.105492 -2.24746,0.08008 -3.36466,-0.0308 -0.21633,-0.03396 -0.43441,-0.05815 -0.64898,-0.10187 -0.60018,-0.122288 -1.35307,-0.355531 -1.77742,-0.831257 -0.0919,-0.103056 -0.15197,-0.230622 -0.22796,-0.345933 -0.0261,-0.142935 -0.0849,-0.283659 -0.0783,-0.428807 0.0292,-0.643133 0.69685,-0.933961 1.21902,-1.083646 0.11757,-0.02432 0.23404,-0.05467 0.3527,-0.07293 0.4014,-0.06179 0.87596,-0.0726 1.27404,0.01895 0.0837,0.01923 0.16367,0.05197 0.2455,0.07796 0.24912,0.148148 0.4141,0.189682 0.42319,0.597003 0.008,0.336399 -0.3102,0.469048 -0.55399,0.561311 -0.37113,0.133215 -0.75462,0.228968 -1.13892,0.315939 -0.69494,0.138988 -0.8915,-0.843809 -0.19656,-0.982798 z"
       id="path947"
       style="fill:#f2f2f2;fill-opacity:0.94117647;stroke:none;stroke-width:4;stroke-miterlimit:4;stroke-dasharray:none;stroke-opacity:1" />
    <path
       d="m -119.116,-49.333429 c -0.10803,0.323731 -0.23129,0.642057 -0.34498,0.96375 -0.20298,0.601634 -0.10022,0.392581 -0.84936,-0.361386 -0.12293,0.106434 -0.13581,0.283186 -0.10652,0.433213 -0.23993,-0.666856 0.70315,-1.006166 0.94308,-0.33931 v 0 c 0.012,0.04623 0.0363,0.09093 0.0359,0.138681 -0.002,0.211209 -0.0402,0.354275 -0.18588,0.497594 -0.25903,-0.212169 -0.49319,-0.458988 -0.77708,-0.636508 -0.028,-0.01749 -0.0994,0.22533 -0.056,0.08755 0.007,-0.02204 0.014,-0.04404 0.0212,-0.06596 0.01,-0.02963 0.02,-0.05914 0.0299,-0.08871 0.11627,-0.32722 0.24062,-0.651562 0.3512,-0.980826 0.24885,-0.663583 1.18729,-0.311666 0.93845,0.351917 z"
       id="path949"
       style="fill:#f2f2f2;fill-opacity:0.94117647;stroke:none;stroke-width:4;stroke-miterlimit:4;stroke-dasharray:none;stroke-opacity:1" />
    <path
       d="m -30.01373,-61.840063 c 0.150789,-0.617043 0.06374,-1.269299 -0.0057,-1.891861 -0.130636,-1.051679 -0.361328,-2.084959 -0.664462,-3.099319 -0.09703,-0.329363 -0.205197,-0.655341 -0.32146,-0.978381 -0.05353,-0.148736 -0.107273,-0.284977 -0.143008,-0.438621 0.319485,-0.108111 0.622747,-0.29179 0.958453,-0.324334 0.09224,-0.0089 0.119034,0.142078 0.177176,0.214241 0.364056,0.451847 0.723593,0.905216 1.099016,1.347941 0.814636,0.946234 1.608201,1.910445 2.428655,2.851652 0.25,0.246462 0.456385,0.543515 0.735994,0.760265 0.02405,0.01865 -0.04042,-0.0455 -0.06063,-0.06825 0.677511,0.207952 0.383421,1.166095 -0.294087,0.958143 v 0 c -0.106169,-0.04913 -0.220554,-0.08344 -0.318511,-0.147402 -0.08738,-0.05706 -0.156813,-0.137945 -0.230968,-0.211383 -0.13613,-0.134813 -0.475194,-0.510093 -0.587367,-0.63286 -0.823296,-0.944819 -1.620192,-1.91221 -2.437627,-2.86209 -0.379161,-0.447471 -0.746514,-0.902563 -1.110798,-1.362099 -0.04033,-0.05088 -0.165541,-0.103931 -0.121856,-0.151969 0.207325,-0.227973 0.500462,-0.359666 0.750694,-0.539498 -0.0313,-0.08059 -0.01881,-0.04906 0.02755,0.07643 0.09901,0.267997 0.194572,0.537001 0.281675,0.80917 0.04388,0.137115 0.08504,0.275085 0.127561,0.412628 0.319128,1.072251 0.563642,2.16412 0.700199,3.275695 0.07669,0.700784 0.166034,1.437654 0.01,2.135386 -0.01987,0.08883 -0.05281,0.174221 -0.07921,0.261332 -0.279172,0.651402 -1.200393,0.256593 -0.921221,-0.394811 z"
       id="path951"
       style="fill:#f2f2f2;fill-opacity:0.94117647;stroke:none;stroke-width:4;stroke-miterlimit:4;stroke-dasharray:none;stroke-opacity:1" />
    <path
       d="m -28.889997,-74.966108 c 0.46645,0.471675 0.85879,1.008417 1.265415,1.530474 0.473591,0.608031 0.626245,0.798333 1.121645,1.42449 1.46738,1.805956 2.966924,3.585313 4.42676,5.397421 0.831699,1.02271 1.585267,2.103919 2.353252,3.174023 -0.01902,-0.0264 -0.03804,-0.05282 -0.05706,-0.07922 0.598522,0.379518 0.0618,1.225958 -0.53672,0.846439 v 0 c -0.0735,-0.06096 -0.147008,-0.121914 -0.220514,-0.182872 -0.75705,-1.055058 -1.499651,-2.121236 -2.31947,-3.129613 -1.461606,-1.814452 -2.96341,-3.595756 -4.432258,-5.40431 -0.496922,-0.628097 -0.652939,-0.822635 -1.128284,-1.432973 -0.191505,-0.245891 -0.528793,-0.689848 -0.741275,-0.946293 -0.150498,-0.181634 -0.259508,-0.29664 -0.411305,-0.461097 -0.520758,-0.480701 0.159054,-1.217166 0.679812,-0.736465 z"
       id="path953"
       style="fill:#f2f2f2;fill-opacity:0.94117647;stroke:none;stroke-width:4;stroke-miterlimit:4;stroke-dasharray:none;stroke-opacity:1" />
    <path
       d="m -24.445256,-74.684735 c 0.757018,0.570537 1.404313,1.270212 2.076283,1.935118 0.931416,0.925608 1.907223,1.804617 2.913409,2.647868 0.19381,0.151019 0.388771,0.311507 0.59604,0.445426 0.053,0.03424 0.107633,0.06683 0.165661,0.09163 0.01032,0.0044 0.0442,-0.0061 0.03299,-0.0067 -0.38346,-0.02053 -0.226409,-0.05681 -0.52809,0.242667 -0.01222,-0.01468 -0.02887,-0.0266 -0.03669,-0.04403 -0.03123,-0.06968 -0.05291,-0.143253 -0.07936,-0.214878 -0.04434,-0.102312 -0.087,-0.20537 -0.133027,-0.306935 -0.170725,-0.376738 -0.361289,-0.74389 -0.547698,-1.112973 -0.13892,-0.294947 -0.300189,-0.580004 -0.424829,-0.881708 -0.02582,-0.06252 -0.05481,-0.124635 -0.06949,-0.190669 -0.01826,-0.08209 -0.07588,-0.1811 -0.0286,-0.250635 0.138316,-0.203414 0.360394,-0.334891 0.540591,-0.502338 0.136001,0.04657 0.280837,0.07267 0.408006,0.139703 0.114951,0.06059 0.437431,0.37487 0.524841,0.461743 0.298585,0.296746 0.587211,0.604533 0.881163,0.905888 0.265184,0.252481 0.511937,0.526092 0.789236,0.765911 0.05274,0.04561 0.107641,0.08906 0.165656,0.127748 0.0236,0.01574 0.105315,0.02775 0.07777,0.03458 -0.202978,0.05031 -0.41293,0.06644 -0.619395,0.09967 0.369718,-0.604626 1.224788,-0.08177 0.85507,0.522859 v 0 c -0.238588,0.08576 -0.464706,0.221946 -0.715764,0.257268 -0.08274,0.01164 -0.147939,-0.07854 -0.216646,-0.12608 -0.39569,-0.273796 -0.700119,-0.660624 -1.053394,-0.982117 -0.286205,-0.293415 -0.567782,-0.592132 -0.857313,-0.882245 -0.06993,-0.07007 -0.142476,-0.137483 -0.213797,-0.20614 -0.03715,-0.03576 -0.12452,-0.0572 -0.111609,-0.107124 0.01191,-0.04601 0.09477,-0.0073 0.142153,-0.01098 0.135226,-0.164934 0.289988,-0.315619 0.405683,-0.494795 0.01683,-0.02604 -0.03994,-0.117375 -0.02917,-0.08831 0.122245,0.330116 0.288528,0.640482 0.444468,0.955919 0.195792,0.387678 0.396899,0.773226 0.574236,1.169879 0.08252,0.184584 0.229716,0.520723 0.274979,0.725056 0.02734,0.123407 0.03017,0.250992 0.04525,0.376486 -0.09564,0.167825 -0.135789,0.383188 -0.28693,0.503481 -0.470463,0.374438 -1.291404,-0.40576 -1.615874,-0.649155 -1.027072,-0.861219 -2.023604,-1.758392 -2.974488,-2.703513 -0.629861,-0.623257 -1.236334,-1.278734 -1.939136,-1.821648 -0.584002,-0.401503 -0.01619,-1.227407 0.567809,-0.825905 z"
       id="path955"
       style="fill:#f2f2f2;fill-opacity:0.94117647;stroke:none;stroke-width:4;stroke-miterlimit:4;stroke-dasharray:none;stroke-opacity:1" />
    <path
       d="m -19.192539,-75.610535 c 0.09652,0.475514 0.288084,0.941644 0.60628,1.313931 0.05981,0.06998 0.131278,0.129101 0.196916,0.193651 0.181919,0.140965 0.506994,0.316796 0.687358,0.07159 0.02479,-0.03371 0.04091,-0.07302 0.06136,-0.109525 0.122682,-0.346508 0.08379,-0.730379 -0.138446,-1.030552 -0.04289,-0.05793 -0.099,-0.104783 -0.148505,-0.157175 -0.142997,-0.09791 -0.303498,-0.158536 -0.479017,-0.110535 -0.06645,0.01818 -0.126201,0.05529 -0.189302,0.08293 -0.680275,0.198721 -0.96131,-0.763331 -0.281035,-0.962054 v 0 c 0.171011,-0.04074 0.337884,-0.107148 0.513032,-0.122229 0.287896,-0.02479 0.607092,0.06101 0.856189,0.201509 0.126815,0.07153 0.231397,0.176779 0.347097,0.265165 0.0908,0.114388 0.19491,0.219372 0.272404,0.343162 0.318826,0.509302 0.414044,1.175856 0.20782,1.746144 -0.05218,0.144288 -0.14056,0.272778 -0.210841,0.409165 -0.105479,0.105291 -0.195218,0.229164 -0.316434,0.315871 -0.474501,0.339415 -1.086332,0.286649 -1.569606,0.0026 -0.118187,-0.06947 -0.219655,-0.164102 -0.329483,-0.246155 -0.09806,-0.103243 -0.203827,-0.199676 -0.294177,-0.309729 -0.41124,-0.50092 -0.660609,-1.117859 -0.782783,-1.74907 -0.10513,-0.700866 0.886042,-0.84954 0.991171,-0.148678 z"
       id="path957"
       style="fill:#f2f2f2;fill-opacity:0.94117647;stroke:none;stroke-width:4;stroke-miterlimit:4;stroke-dasharray:none;stroke-opacity:1" />
    <path
       d="m -17.518218,-78.000109 c -0.044,-0.07691 -0.5163,0.0069 -0.228264,0.05411 0.09668,0.241712 0.237876,0.46142 0.456369,0.610563 0.05513,0.03763 0.115731,0.06653 0.173596,0.09979 0.216802,0.08806 0.48193,0.09511 0.62865,-0.118634 0.02826,-0.04117 0.04727,-0.08798 0.07091,-0.131971 0.02172,-0.06315 0.05031,-0.124349 0.06519,-0.189452 0.05951,-0.260287 0.03599,-0.600507 -0.150895,-0.809189 -0.02893,-0.0323 -0.07099,-0.04981 -0.106481,-0.07472 -0.14759,-0.0087 -0.173136,0.07182 -0.247476,0.190211 -0.597299,0.381442 -1.13674,-0.463267 -0.53944,-0.844709 v 0 c 0.197702,-0.09856 0.378508,-0.243255 0.593103,-0.295685 0.390366,-0.09538 0.58715,0.07738 0.902621,0.241581 0.09485,0.105476 0.20547,0.19866 0.284541,0.316423 0.319016,0.475123 0.363484,1.129199 0.188325,1.663636 -0.04444,0.135605 -0.118385,0.259694 -0.177575,0.389539 -0.0891,0.111767 -0.163417,0.237114 -0.267288,0.335303 -0.385736,0.364641 -0.939649,0.460187 -1.440275,0.31686 -0.115586,-0.03309 -0.222139,-0.09206 -0.333208,-0.138094 -0.102465,-0.06645 -0.21104,-0.124301 -0.30739,-0.199334 -0.375053,-0.292063 -0.691185,-0.736928 -0.7634,-1.215832 -0.01831,-0.121431 -0.0048,-0.24556 -0.0072,-0.368343 0.04103,-0.122136 0.05893,-0.254679 0.123092,-0.366413 0.2979,-0.518745 0.886836,-0.552738 1.399468,-0.41647 0.672336,0.224113 0.355394,1.17494 -0.316944,0.950828 z"
       id="path959"
       style="fill:#f2f2f2;fill-opacity:0.94117647;stroke:none;stroke-width:4;stroke-miterlimit:4;stroke-dasharray:none;stroke-opacity:1" />
    <path
       d="m -15.647654,-81.36036 c -0.138946,0.354608 -0.174194,0.7468 -0.0581,1.113549 0.02349,0.0742 0.05783,0.144505 0.08675,0.216758 0.117444,0.199249 0.327155,0.532926 0.613305,0.46519 0.02685,-0.0063 0.04833,-0.02664 0.07249,-0.03995 0.206576,-0.165629 0.299945,-0.449326 0.28584,-0.710036 -0.0034,-0.06208 -0.02183,-0.122409 -0.03275,-0.183612 -0.02302,-0.0405 -0.03631,-0.08834 -0.06902,-0.121497 -0.09921,-0.100587 -0.468114,0.130193 -0.514593,0.155525 -0.661128,0.255291 -1.022162,-0.679686 -0.361035,-0.934977 v 0 c 0.204253,-0.06613 0.400275,-0.16769 0.612762,-0.198382 0.486587,-0.07028 0.953492,0.186629 1.192435,0.603097 0.0679,0.118342 0.09043,0.257452 0.135646,0.38618 0.01082,0.135485 0.03665,0.270608 0.03244,0.406458 -0.01685,0.544947 -0.271669,1.115769 -0.739897,1.419426 -0.112387,0.07288 -0.24439,0.109757 -0.366588,0.164637 -0.133138,0.01463 -0.265586,0.04928 -0.399415,0.04385 -0.510164,-0.02069 -0.946822,-0.364707 -1.218316,-0.773689 -0.06995,-0.105365 -0.12174,-0.221713 -0.18261,-0.332571 -0.04287,-0.120605 -0.0953,-0.238228 -0.128614,-0.361812 -0.156872,-0.581827 -0.09646,-1.191829 0.132389,-1.744901 0.301766,-0.641249 1.20863,-0.214489 0.906865,0.42676 z"
       id="path961"
       style="fill:#f2f2f2;fill-opacity:0.94117647;stroke:none;stroke-width:4;stroke-miterlimit:4;stroke-dasharray:none;stroke-opacity:1" />
    <path
       d="m -14.471581,-85.285292 c -0.06261,0.129765 -0.351568,0.594881 -0.248013,0.722064 0.01704,0.0027 0.03425,-0.0069 0.05118,-0.0044 0.05308,0.0079 0.102531,0.03237 0.15512,0.04305 0.12437,0.02524 0.244303,0.03115 0.371277,0.04237 0.626038,0.02684 1.244655,-0.09493 1.854641,-0.220662 0.404802,-0.06878 0.922256,-0.294547 1.30973,-0.03246 0.105479,0.07134 0.174699,0.185314 0.262046,0.277971 0.03318,0.122701 0.08418,0.241928 0.09955,0.368105 0.01318,0.108119 -5.29e-4,0.21845 -0.01495,0.326411 -0.06208,0.465452 -0.282887,0.887748 -0.499459,1.296085 -0.07438,0.110908 -0.148765,0.221814 -0.223147,0.332722 -0.398989,0.585721 -1.227326,0.02146 -0.828336,-0.564256 v 0 c 0.0558,-0.08019 0.11159,-0.160393 0.167386,-0.240588 0.127682,-0.237123 0.252335,-0.471041 0.336216,-0.728083 0.01929,-0.05908 0.03372,-0.119666 0.04861,-0.180004 0.0084,-0.03393 -0.0055,-0.08012 0.02119,-0.102685 0.01691,-0.01431 0.03556,0.02643 0.05335,0.03965 0.05721,0.03153 0.137726,0.103515 0.216223,0.06735 0.01884,-0.0087 -0.04047,-0.01172 -0.06119,-0.01114 -0.05114,0.0016 -0.102124,0.0084 -0.152508,0.0173 -0.178975,0.0316 -0.353605,0.08533 -0.532898,0.115332 -0.709091,0.145393 -1.428689,0.280074 -2.156116,0.236217 -0.536413,-0.05789 -1.075745,-0.14202 -1.367202,-0.665663 -0.04899,-0.08801 -0.06974,-0.188994 -0.104614,-0.28349 -0.0067,-0.09681 -0.02381,-0.193448 -0.02011,-0.290412 0.01497,-0.39138 0.231357,-0.750335 0.40845,-1.08608 0.37143,-0.603576 1.225013,-0.07829 0.853583,0.525282 z"
       id="path963"
       style="fill:#f2f2f2;fill-opacity:0.94117647;stroke:none;stroke-width:4;stroke-miterlimit:4;stroke-dasharray:none;stroke-opacity:1" />
    <path
       d="m 47.660308,-35.894596 c -0.130075,-0.824764 -0.346705,-1.63326 -0.534392,-2.446255 -0.227185,-1.009947 -0.514332,-2.00328 -0.823505,-2.990543 -0.03485,-0.130281 -0.356928,-0.932927 -0.191805,-1.052222 0.207497,-0.149907 0.483508,-0.168315 0.72526,-0.252471 0.0597,0.04495 0.121132,0.08769 0.179102,0.134848 0.15734,0.128003 0.297556,0.27786 0.452649,0.408985 0.232085,0.196218 0.310843,0.252775 0.565296,0.450749 1.128048,0.825445 2.284055,1.612154 3.434842,2.405423 0.865079,0.608973 1.723035,1.228883 2.563833,1.871107 0.04468,0.03676 0.08937,0.07351 0.134049,0.110273 0.546372,0.451373 -0.09197,1.224063 -0.638342,0.772689 v 0 c -0.03474,-0.02886 -0.06948,-0.05771 -0.104222,-0.08657 -0.82759,-0.632582 -1.672712,-1.242372 -2.524154,-1.842299 -1.166767,-0.804294 -2.339094,-1.601618 -3.48184,-2.439876 -0.279228,-0.21766 -0.556599,-0.434721 -0.819687,-0.671867 -0.04841,-0.04364 -0.09495,-0.08931 -0.142806,-0.133562 -0.03431,-0.03172 -0.0753,-0.05722 -0.103669,-0.09434 -0.0089,-0.01164 0.0279,0.0089 0.04185,0.01344 0.217895,-0.09592 0.467694,-0.139141 0.65369,-0.287747 0.06436,-0.05142 0.0095,-0.164484 0.01519,-0.246669 5.29e-4,-0.0063 -0.0011,0.01275 5.29e-4,0.01884 0.01077,0.04075 0.02365,0.0809 0.03642,0.121065 0.02252,0.07083 0.0463,0.141251 0.06945,0.211876 0.03028,0.09627 0.06056,0.192548 0.09085,0.288822 0.31682,1.01169 0.610542,2.029785 0.843621,3.064623 0.196387,0.850752 0.424159,1.696794 0.553948,2.561019 0.07826,0.704371 -0.917869,0.815051 -0.99613,0.11068 z"
       id="path965"
       style="fill:#f2f2f2;fill-opacity:0.94117647;stroke:none;stroke-width:4;stroke-miterlimit:4;stroke-dasharray:none;stroke-opacity:1" />
    <path
       d="m 53.66981,-43.250883 c -0.03449,0.157573 -0.09851,0.362548 0.0041,0.510207 0.02511,0.03611 0.08541,0.06093 0.120745,0.07932 0.459071,0.148767 0.949537,0.09763 1.42013,0.04536 0.64476,-0.08184 1.27131,-0.259723 1.906257,-0.393271 0.372771,-0.05992 0.763529,-0.04014 1.052237,0.23981 0.203441,0.197268 0.220202,0.325154 0.316815,0.579758 0.168986,0.695213 0.104703,1.348004 -0.05014,2.036754 -0.0981,0.293468 -0.213508,0.61263 -0.437369,0.838864 -0.09448,0.09548 -0.20919,0.168537 -0.313783,0.252807 -0.575558,0.41352 -1.160362,-0.400442 -0.584805,-0.813959 v 0 c 0.03334,-0.01482 0.07205,-0.02106 0.100012,-0.04449 0.134766,-0.112972 0.199652,-0.301512 0.259215,-0.458005 0.116157,-0.489653 0.174329,-0.996696 0.07589,-1.495491 -0.006,-0.03237 -0.01752,-0.0642 -0.01789,-0.09711 -2.65e-4,-0.02774 0.08786,-0.04022 0.04244,-0.05833 -0.02619,-0.01045 -0.05538,-0.01318 -0.08358,-0.01315 -0.05118,5.3e-5 -0.101973,0.0089 -0.152961,0.01339 -0.66762,0.140131 -1.326292,0.328046 -2.005123,0.408935 -0.605393,0.0634 -1.301888,0.131916 -1.878407,-0.11639 -0.111255,-0.04792 -0.211172,-0.118743 -0.316757,-0.178115 -0.08354,-0.08337 -0.179493,-0.15593 -0.250623,-0.250114 -0.323192,-0.427939 -0.290852,-0.975865 -0.137012,-1.45901 0.263205,-0.658016 1.193781,-0.285784 0.930574,0.372232 z"
       id="path967"
       style="fill:#f2f2f2;fill-opacity:0.94117647;stroke:none;stroke-width:4;stroke-miterlimit:4;stroke-dasharray:none;stroke-opacity:1" />
    <path
       d="m 77.424112,-50.527488 c 0.212151,0.697381 0.390374,1.404289 0.570204,2.110499 0.259403,0.953508 0.517088,1.90708 0.710054,2.876566 0.05138,0.315352 0.100656,0.635632 0.08255,0.956474 -0.0055,0.09764 -0.0347,0.354415 -0.101748,0.436486 -0.09341,0.114339 -0.224443,0.191889 -0.336663,0.287835 -0.187074,-0.04905 -0.392206,-0.05315 -0.561219,-0.147159 -0.09122,-0.05073 -0.124034,-0.168844 -0.172834,-0.261109 -0.03979,-0.07524 -0.06445,-0.157684 -0.09137,-0.23843 -0.105066,-0.315232 -0.152458,-0.638381 -0.20038,-0.965872 -0.08608,-0.748506 -0.08945,-1.508887 -0.0031,-2.257792 0.01778,-0.154176 0.04396,-0.307264 0.06593,-0.460897 0.0974,-0.552489 0.235574,-1.109596 0.530325,-1.593947 0.187897,-0.308761 0.240983,-0.332785 0.493364,-0.588479 0.101187,-0.07275 0.195926,-0.155432 0.303564,-0.218244 0.421957,-0.246227 0.942684,-0.345464 1.424109,-0.252439 0.121939,0.02357 0.238183,0.07047 0.357275,0.105698 0.798097,0.36892 1.164389,1.018093 1.536938,1.772698 0.311229,0.675418 0.509847,1.392227 0.637183,2.1228 0.03324,0.234447 0.07201,0.47367 0.0492,0.711478 -0.0062,0.06506 -0.02275,0.12873 -0.03414,0.193093 -0.153196,0.691949 -1.13176,0.475294 -0.978561,-0.216654 v 0 c 0.06378,-0.0635 -0.02379,-0.445479 -0.02416,-0.517433 -0.108717,-0.637072 -0.28185,-1.261792 -0.549354,-1.851874 -0.231865,-0.47629 -0.472511,-0.982639 -0.947089,-1.260988 -0.05394,-0.02103 -0.105902,-0.04806 -0.161801,-0.06312 -0.318376,-0.08578 -0.65079,0.0057 -0.912955,0.192079 -0.05369,0.0491 -0.112345,0.09328 -0.161063,0.147312 -0.359701,0.398963 -0.471252,0.952334 -0.570904,1.461524 -0.117978,0.805278 -0.164735,1.621909 -0.0627,2.432407 0.03336,0.236503 0.04207,0.340651 0.09462,0.565529 0.01577,0.06748 0.03593,0.133866 0.05554,0.200332 0.01172,0.0397 0.04321,0.07698 0.0384,0.118096 -0.0021,0.0182 -0.03293,-0.01614 -0.04939,-0.02421 -0.149331,-0.01543 -0.298659,-0.03087 -0.447987,-0.04631 -0.07966,0.0841 -0.166312,0.162084 -0.238967,0.252302 -0.0091,0.0113 -0.0048,0.05699 7.94e-4,0.04356 0.07929,-0.192823 -0.03056,-0.647097 -0.04634,-0.839515 -0.18868,-0.952198 -0.444735,-1.887881 -0.698265,-2.824496 -0.175402,-0.688877 -0.348982,-1.3785 -0.555572,-2.058868 -0.211388,-0.676445 0.74525,-0.975395 0.956638,-0.298948 z"
       id="path969"
       style="fill:#f2f2f2;fill-opacity:0.94117647;stroke:none;stroke-width:4;stroke-miterlimit:4;stroke-dasharray:none;stroke-opacity:1" />
    <path
       d="m 80.899353,-48.951074 c 0.245439,-0.386599 0.4997,-0.771017 0.810842,-1.108956 0.0721,-0.07831 0.149712,-0.15136 0.224568,-0.227039 0.430612,-0.370845 0.968288,-0.668412 1.556094,-0.639017 0.123018,0.0061 0.243181,0.03936 0.364771,0.05904 0.117734,0.05142 0.242591,0.08892 0.353208,0.154265 0.489307,0.289044 0.810127,0.813279 1.0341,1.318588 0.06323,0.142653 0.113101,0.290857 0.169653,0.436282 0.292783,0.79918 0.392859,1.640586 0.428035,2.485139 0.0051,0.227433 -0.0071,0.454133 -0.03052,0.680143 -0.07681,0.70453 -1.073163,0.595911 -0.996357,-0.108619 v 0 c 0.02072,-0.176112 0.02649,-0.353267 0.02545,-0.530596 -0.02943,-0.735764 -0.109926,-1.469501 -0.362339,-2.166985 -0.177996,-0.471633 -0.373507,-1.000524 -0.817936,-1.285446 -0.04373,-0.01341 -0.08599,-0.03314 -0.131177,-0.04023 -0.328324,-0.05152 -0.640977,0.15313 -0.883542,0.345408 -0.352274,0.34893 -0.646102,0.745249 -0.901771,1.170001 -0.383236,0.596148 -1.226318,0.05417 -0.843079,-0.541978 z"
       id="path971"
       style="fill:#f2f2f2;fill-opacity:0.94117647;stroke:none;stroke-width:4;stroke-miterlimit:4;stroke-dasharray:none;stroke-opacity:1" />
    <path
       d="m 88.010676,-48.590011 c -0.306858,0.05052 -0.59595,0.181272 -0.805587,0.417039 -0.04037,0.0454 -0.0722,0.09772 -0.108292,0.146582 -0.151849,0.256757 -0.200197,0.549341 -0.06201,0.823722 0.02839,0.05637 0.06711,0.106918 0.100661,0.160377 0.30439,0.341816 0.733587,0.463344 1.181772,0.447363 0.115589,-0.0041 0.230151,-0.02328 0.345226,-0.03491 0.365461,-0.08859 0.861846,-0.25899 0.89767,-0.705758 0.0044,-0.05483 -0.0075,-0.109749 -0.01124,-0.164621 -0.07371,-0.162597 -0.179642,-0.33224 -0.352484,-0.407379 -0.07664,-0.03332 -0.162975,-0.0371 -0.244461,-0.05565 -0.663554,-0.248917 -0.311531,-1.187323 0.352022,-0.938405 v 0 c 0.186447,0.08196 0.388102,0.13562 0.559343,0.24588 0.247613,0.159435 0.480092,0.476787 0.584044,0.749612 0.05664,0.148648 0.06799,0.310793 0.101983,0.466188 -0.04271,0.398087 -0.01191,0.516805 -0.226046,0.872088 -0.244034,0.404889 -0.658318,0.671882 -1.097294,0.821017 -0.155178,0.05272 -0.318587,0.07708 -0.47788,0.115621 -0.409363,0.03069 -0.57858,0.06807 -0.989155,-0.0011 -0.45639,-0.07683 -0.891484,-0.275984 -1.226767,-0.598855 -0.102664,-0.09886 -0.183126,-0.218448 -0.274688,-0.327673 -0.156361,-0.303252 -0.229145,-0.384059 -0.282831,-0.725048 -0.07738,-0.491469 0.06973,-0.961176 0.339352,-1.368439 0.07439,-0.08932 0.141766,-0.184988 0.223186,-0.267954 0.360812,-0.367667 0.837282,-0.582763 1.341009,-0.663204 0.702487,-0.09367 0.834951,0.899803 0.132461,0.993468 z"
       id="path973"
       style="fill:#f2f2f2;fill-opacity:0.94117647;stroke:none;stroke-width:4;stroke-miterlimit:4;stroke-dasharray:none;stroke-opacity:1" />
    <path
       d="m 90.987897,-55.377224 c 0.208294,0.858528 0.438923,1.711037 0.671888,2.563196 0.423646,1.504527 0.717066,3.038285 0.939652,4.58397 0.117555,0.864976 0.183309,1.735463 0.231696,2.60663 0.03926,0.707617 -0.961459,0.763145 -1.000723,0.05553 v 0 c -0.04668,-0.842029 -0.109741,-1.683433 -0.223033,-2.519521 -0.216001,-1.504773 -0.501923,-2.997719 -0.914374,-4.462307 -0.234894,-0.859213 -0.467116,-1.71886 -0.677442,-2.584413 -0.171886,-0.687546 0.80045,-0.930629 0.972336,-0.243083 z"
       id="path975"
       style="fill:#f2f2f2;fill-opacity:0.94117647;stroke:none;stroke-width:4;stroke-miterlimit:4;stroke-dasharray:none;stroke-opacity:1" />
    <path
       d="m 93.871107,-50.321843 c -0.573903,0.134993 -1.147435,0.27192 -1.72276,0.400753 -0.06403,0.06432 -0.407618,0.02096 -0.460566,0.119013 -0.635881,0.31292 -1.078415,-0.586351 -0.442534,-0.899271 v 0 c 0.07337,-0.03149 0.144383,-0.06918 0.220117,-0.09448 0.06796,-0.0227 0.405067,-0.09097 0.464069,-0.103325 0.567272,-0.126907 1.132689,-0.262184 1.698591,-0.395028 0.687546,-0.171887 0.930629,0.800449 0.243083,0.972336 z"
       id="path977"
       style="fill:#f2f2f2;fill-opacity:0.94117647;stroke:none;stroke-width:4;stroke-miterlimit:4;stroke-dasharray:none;stroke-opacity:1" />
    <path
       d="m 96.132837,-48.3614 c 0.12674,0.502936 0.228912,1.011888 0.30916,1.524238 -0.01746,0.07716 0.164253,0.520613 -0.01244,0.101201 0.512684,0.489304 -0.179308,1.214347 -0.691993,0.725043 v 0 c -0.06831,-0.0995 -0.148807,-0.191649 -0.204944,-0.29849 -0.02648,-0.05041 -0.07219,-0.325379 -0.08093,-0.373213 -0.07502,-0.482677 -0.172059,-0.961951 -0.291217,-1.435696 -0.171886,-0.687543 0.80045,-0.930629 0.972336,-0.243083 z"
       id="path979"
       style="fill:#f2f2f2;fill-opacity:0.94117647;stroke:none;stroke-width:4;stroke-miterlimit:4;stroke-dasharray:none;stroke-opacity:1" />
    <path
       d="m 99.629274,-48.648817 c -0.287153,0.105651 -0.568669,0.274709 -0.735833,0.540348 -0.02461,0.03915 -0.03892,0.08393 -0.05837,0.125899 -0.06133,0.263213 0.05485,0.406866 0.247068,0.568902 0.307578,0.202764 0.689583,0.255657 1.052491,0.23055 0.0884,-0.0061 0.17565,-0.02429 0.26347,-0.03642 0.17203,-0.04375 0.73403,-0.162097 0.75433,-0.407652 0,-0.01352 -0.0146,-0.02294 -0.0217,-0.0344 -0.0116,-0.01151 -0.0254,-0.02133 -0.035,-0.03453 -0.13377,-0.182052 0.0469,0.01826 -0.15208,-0.224184 -0.16595,-0.202174 -0.36666,-0.357368 -0.57354,-0.514559 -0.32822,-0.209664 -0.16015,-0.116801 -0.50332,-0.280133 -0.636111,-0.312441 -0.194257,-1.212046 0.44186,-0.899602 v 0 c 0.46958,0.23572 0.2454,0.106307 0.67371,0.386204 0.46315,0.361498 1.0038,0.811485 1.11035,1.429496 0.022,0.127416 0.006,0.258528 0.008,0.38779 -0.0402,0.116168 -0.0636,0.239612 -0.12057,0.348506 -0.27895,0.532599 -0.9208,0.723432 -1.4614,0.837986 -0.13165,0.01455 -0.26265,0.03762 -0.39499,0.0437 -0.499566,0.02294 -1.028627,-0.06487 -1.465322,-0.318436 -0.09641,-0.05598 -0.181954,-0.128895 -0.272917,-0.193344 -0.195633,-0.199795 -0.276305,-0.251828 -0.405289,-0.505135 -0.207513,-0.407501 -0.19394,-0.848855 -0.02514,-1.265298 0.05522,-0.09474 0.102394,-0.19467 0.165682,-0.284234 0.296149,-0.419079 0.74848,-0.697164 1.225259,-0.862994 0.679897,-0.199972 0.962707,0.761563 0.282814,0.961535 z"
       id="path981"
       style="fill:#f2f2f2;fill-opacity:0.94117647;stroke:none;stroke-width:4;stroke-miterlimit:4;stroke-dasharray:none;stroke-opacity:1" />
    <path
       d="m 103.28349,-50.293557 c 0.27508,0.682432 0.53247,1.371809 0.80973,2.053352 0.11522,0.257366 0.21706,0.520872 0.34475,0.772568 0.0214,0.04218 0.0434,0.08412 0.0683,0.124372 0.006,0.01008 0.0335,0.03329 0.0243,0.02582 -0.0633,-0.05149 -0.12454,-0.105368 -0.18682,-0.158052 -0.88717,-1.278324 -0.39894,0.248454 -0.61889,0.233394 -0.0309,-0.0021 0.003,-0.0618 0.004,-0.09265 0.0151,-0.231127 0.0312,-0.462204 0.0488,-0.693148 0.0421,-0.498496 0.0665,-1.004686 0.19124,-1.491567 0.0241,-0.09446 0.0563,-0.186698 0.0845,-0.280046 0.17987,-0.482044 0.492,-0.890923 1.02817,-0.991857 0.11108,-0.0209 0.22561,-0.01355 0.33843,-0.02029 0.10369,0.01601 0.20955,0.02154 0.3111,0.04798 0.45635,0.118841 0.83942,0.421757 1.10635,0.804738 0.0722,0.103545 0.12841,0.217316 0.19262,0.325972 0.2984,0.589619 0.42945,1.235562 0.47011,1.890014 -0.005,0.276667 0.009,0.142206 -0.0403,0.403662 -0.17579,0.686559 -1.14673,0.437954 -0.97094,-0.248603 v 0 c 0.013,0.06992 0.005,0.0388 0.0109,-0.09585 -0.0277,-0.500576 -0.12224,-0.9965 -0.33991,-1.452083 -0.17433,-0.323149 -0.352,-0.590574 -0.73197,-0.673595 -0.24995,-0.05691 -0.32713,0.08697 -0.41672,0.305517 -0.16002,0.502338 -0.19886,1.028494 -0.23405,1.552276 -0.0177,0.2315 -0.0295,0.463444 -0.0489,0.694798 -0.009,0.11139 -0.0254,0.424551 -0.11591,0.490085 -0.17815,0.129024 -0.41222,0.153678 -0.61833,0.230516 -0.0909,-0.06335 -0.19008,-0.116295 -0.27279,-0.190061 -0.0529,-0.04714 -0.16004,-0.254479 -0.18724,-0.308448 -0.13605,-0.270079 -0.2467,-0.551723 -0.36923,-0.827929 -0.27649,-0.680265 -0.53398,-1.368007 -0.80804,-2.049259 -0.26985,-0.655325 0.65691,-1.036936 0.92676,-0.381611 z"
       id="path983"
       style="fill:#f2f2f2;fill-opacity:0.94117647;stroke:none;stroke-width:4;stroke-miterlimit:4;stroke-dasharray:none;stroke-opacity:1" />
    <path
       d="m 96.988494,-51.965792 c -0.0879,0.306345 -0.22352,0.598384 -0.309483,0.905182 -0.202486,0.679169 -1.162968,0.39284 -0.960504,-0.28633 v 0 c 0.09462,-0.309126 0.216019,-0.609534 0.313351,-0.9178 0.211392,-0.676447 1.168038,-0.377497 0.956636,0.298948 z"
       id="path985"
       style="fill:#f2f2f2;fill-opacity:0.94117647;stroke:none;stroke-width:4;stroke-miterlimit:4;stroke-dasharray:none;stroke-opacity:1" />
    <path
       d="m 113.29683,-55.609232 c 0.33517,0.768102 0.56184,1.578393 0.80473,2.378956 0.2786,0.943804 0.52991,1.900058 0.67622,2.874534 0.0241,0.160729 0.0403,0.322546 0.0605,0.48382 0.0321,0.334454 0.0633,0.66948 0.0583,1.005848 0,0.03361 -0.009,0.266282 -0.0233,0.320905 -0.0196,0.07405 -0.0515,0.144243 -0.0773,0.216363 -0.31639,-0.06666 -0.6536,-0.06883 -0.94917,-0.199969 -0.0719,-0.03192 -0.0262,-0.155612 -0.0294,-0.234233 -0.0159,-0.377645 0.0812,-0.75025 0.17489,-1.111909 0.15864,-0.500594 0.35951,-1.020871 0.73427,-1.403945 0.0774,-0.07916 0.16756,-0.14482 0.25133,-0.217231 0.10371,-0.05673 0.20143,-0.126257 0.31117,-0.170209 0.47072,-0.188505 1.0092,-0.141058 1.47032,0.05131 0.12211,0.05094 0.23477,0.122042 0.35213,0.18306 0.10613,0.08124 0.21942,0.153858 0.31832,0.243729 0.40844,0.371139 0.67382,0.893558 0.72073,1.445511 0.0124,0.146124 -0.003,0.29328 -0.005,0.439923 -0.0849,0.615013 -0.36078,1.167693 -0.78552,1.620202 -0.29173,0.310817 -0.41238,0.368829 -0.75848,0.611286 -0.41513,0.230179 -0.86114,0.415073 -1.3417,0.442629 -0.15706,0.009 -0.31835,0.01503 -0.47146,-0.02103 -0.18508,-0.0436 -0.35235,-0.143039 -0.52853,-0.214559 -0.63871,-0.307062 -0.20447,-1.210363 0.43426,-0.903298 v 0 c 0.0544,0.03932 0.0998,0.0958 0.16319,0.117967 0.0816,0.02853 0.17113,0.0303 0.25752,0.02921 0.3274,-0.0041 0.63291,-0.130444 0.91908,-0.276928 0.0982,-0.06574 0.20085,-0.125379 0.29472,-0.197226 0.40746,-0.311888 0.71141,-0.73733 0.81529,-1.24329 0.006,-0.07916 0.0206,-0.158107 0.0185,-0.237477 -0.0111,-0.40934 -0.21312,-0.733081 -0.53067,-0.976702 -0.0631,-0.0374 -0.12296,-0.081 -0.18934,-0.112209 -0.25821,-0.121354 -0.56007,-0.176798 -0.82722,-0.05829 -0.0416,0.03084 -0.0868,0.05735 -0.12472,0.09252 -0.28208,0.261202 -0.40754,0.657561 -0.52859,1.009015 -0.0575,0.216779 -0.10816,0.426916 -0.13496,0.649756 -0.005,0.03861 -0.008,0.07732 -0.0114,0.116094 -0.003,0.02016 0.018,0.05959 -0.003,0.06066 -0.29887,0.01582 -0.59854,-0.0087 -0.89778,-0.01307 -0.0124,0.04752 -0.0209,0.09626 -0.0372,0.14256 -0.007,0.01969 0.007,-0.04124 0.009,-0.06205 0.004,-0.04483 0.006,-0.08976 0.007,-0.134734 0.006,-0.296614 -0.0243,-0.591942 -0.0507,-0.886957 -0.13279,-1.08321 -0.38153,-2.147433 -0.70117,-3.190611 -0.2291,-0.755189 -0.44191,-1.519886 -0.75388,-2.246098 -0.29969,-0.642215 0.60854,-1.066056 0.90824,-0.423841 z"
       id="path987"
       style="fill:#f2f2f2;fill-opacity:0.94117647;stroke:none;stroke-width:4;stroke-miterlimit:4;stroke-dasharray:none;stroke-opacity:1" />
    <path
       d="m 118.04732,-56.684382 c 0.1402,0.844074 0.32763,1.679117 0.5086,2.515119 0.31732,1.354275 0.58108,2.719514 0.78952,4.09458 0.0873,0.616175 0.14978,1.23553 0.19534,1.856087 0.0238,0.324694 0.0212,0.288041 0.008,0.150828 0.25641,0.660694 -0.67794,1.023313 -0.93438,0.362619 v 0 c -0.0193,-0.0706 -0.0458,-0.139612 -0.0579,-0.211793 -0.0124,-0.07418 -0.01,-0.150106 -0.0153,-0.225124 -0.008,-0.106656 -0.0153,-0.213333 -0.0243,-0.319891 -0.0414,-0.488861 -0.0944,-0.976776 -0.16251,-1.462665 -0.20487,-1.354362 -0.46575,-2.698744 -0.77814,-4.032565 -0.18296,-0.845097 -0.37216,-1.689277 -0.51414,-2.542492 -0.1306,-0.696566 0.8545,-0.881271 0.9851,-0.184703 z"
       id="path989"
       style="fill:#f2f2f2;fill-opacity:0.94117647;stroke:none;stroke-width:4;stroke-miterlimit:4;stroke-dasharray:none;stroke-opacity:1" />
    <path
       d="m 121.14154,-51.281905 c -0.0726,0.456279 -0.0898,0.924703 -0.0122,1.381845 0.0169,0.09941 0.0435,0.196918 0.0652,0.295378 0.11549,0.346882 0.25718,0.754467 0.58087,0.967356 0.0251,0.01646 0.0562,0.02077 0.0843,0.03116 0.0161,-0.0026 0.0383,0.0051 0.0487,-0.0076 0.009,-0.01077 -0.0366,-0.05247 -0.0356,-0.05997 0.003,-0.02225 0.0198,-0.04026 0.0304,-0.06002 0.022,-0.04075 0.0467,-0.07993 0.067,-0.12147 0.0295,-0.06032 0.055,-0.122568 0.0824,-0.183854 0.20466,-0.538681 0.27848,-1.11306 0.35283,-1.680877 0.0508,-0.398806 0.0811,-0.799782 0.0997,-1.201269 0.019,-0.445503 -0.0419,-0.249666 1.01068,-0.158501 0.0369,0.0032 0.0127,0.07303 0.0193,0.109495 0.006,0.03111 0.0116,0.06215 0.0175,0.09322 0.0735,0.408208 0.16629,0.812438 0.26916,1.214221 0.13174,0.477531 0.28691,0.948216 0.5107,1.390888 0.0214,0.03412 0.0402,0.06994 0.064,0.102375 0.0632,0.08608 0.11797,-2.64e-4 -0.0607,-0.04006 -0.0979,-0.02175 -0.20055,-0.007 -0.30083,-0.01043 0.64998,-0.282498 1.0495,0.636696 0.39952,0.919195 v 0 c -0.13964,0.01365 -0.27971,0.05836 -0.41896,0.04093 -0.25562,-0.03201 -0.46387,-0.36753 -0.57907,-0.563116 -0.25281,-0.508224 -0.43834,-1.043778 -0.58568,-1.591728 -0.10779,-0.422912 -0.20553,-0.848214 -0.28321,-1.277715 -0.007,-0.03706 -0.0143,-0.07404 -0.0206,-0.111172 -0.003,-0.01797 -0.0262,-0.05016 -0.008,-0.0541 1.02647,-0.227198 0.98599,-0.467522 0.96784,-0.01696 -0.0201,0.429442 -0.0526,0.858335 -0.1071,1.284898 -0.088,0.671396 -0.18246,1.349547 -0.44125,1.98065 -0.11027,0.224549 -0.17131,0.386321 -0.33935,0.577247 -0.24567,0.279127 -0.56245,0.436713 -0.94059,0.39352 -0.10499,-0.01199 -0.20249,-0.06059 -0.30372,-0.09089 -0.0913,-0.0557 -0.1887,-0.10241 -0.27384,-0.167101 -0.47636,-0.361894 -0.72205,-0.945015 -0.88615,-1.499311 -0.0268,-0.129485 -0.0596,-0.257882 -0.0805,-0.388454 -0.0882,-0.550502 -0.0681,-1.113607 0.019,-1.662522 0.11652,-0.699064 1.10513,-0.534292 0.98861,0.164769 z"
       id="path991"
       style="fill:#f2f2f2;fill-opacity:0.94117647;stroke:none;stroke-width:4;stroke-miterlimit:4;stroke-dasharray:none;stroke-opacity:1" />
    <path
       d="m 128.43988,-52.056219 c -0.37769,-0.06239 -0.73408,0.04434 -1.0287,0.288332 -0.0789,0.06534 -0.14663,0.143045 -0.21997,0.21457 -0.30364,0.364709 -0.48702,0.801523 -0.50718,1.278689 -0.013,0.308916 0.0259,0.407492 0.0868,0.707252 0.11253,0.407088 0.33816,0.755785 0.58523,1.09148 0.41709,0.572992 -0.39325,1.162812 -0.81031,0.58982 v 0 c -0.33184,-0.459878 -0.625,-0.940361 -0.76049,-1.499222 -0.0766,-0.444865 -0.12769,-0.579509 -0.0926,-1.036894 0.0541,-0.70563 0.34896,-1.342403 0.81759,-1.866535 0.12052,-0.107976 0.23193,-0.227094 0.36158,-0.323929 0.52729,-0.393835 1.16787,-0.538877 1.8111,-0.415899 0.68754,0.171887 0.44447,1.144223 -0.24308,0.972336 z"
       id="path993"
       style="fill:#f2f2f2;fill-opacity:0.94117647;stroke:none;stroke-width:4;stroke-miterlimit:4;stroke-dasharray:none;stroke-opacity:1" />
  </g>
</svg>
